<?xml version="1.0" encoding="utf-8"?>
<!-- Generator: Adobe Illustrator 17.0.1, SVG Export Plug-In . SVG Version: 6.00 Build 0)  -->
<!DOCTYPE svg PUBLIC "-//W3C//DTD SVG 1.1//EN" "http://www.w3.org/Graphics/SVG/1.1/DTD/svg11.dtd">
<svg version="1.1" id="Layer_1" xmlns="http://www.w3.org/2000/svg" xmlns:xlink="http://www.w3.org/1999/xlink" x="0px" y="0px"
	 width="196.124px" height="86.45px" viewBox="0 0 196.124 86.45" enable-background="new 0 0 196.124 86.45" xml:space="preserve">
<g>
	<path fill="#FFFFFF" d="M67.435,63.936V0h10.053c5.831,0,10.096,0.377,12.794,1.13c3.83,1.015,6.876,2.898,9.14,5.65
		c2.263,2.753,3.394,5.998,3.394,9.736c0,2.434-0.515,4.644-1.543,6.628c-1.028,1.985-2.702,3.847-5.02,5.585
		c3.883,1.825,6.722,4.107,8.519,6.846s2.695,5.976,2.695,9.714c0,3.593-0.929,6.867-2.785,9.823
		c-1.857,2.956-4.25,5.166-7.18,6.628c-2.93,1.463-6.977,2.195-12.139,2.195H67.435z M79.604,11.605v13.474h2.662
		c2.966,0,5.17-0.623,6.609-1.869c1.44-1.246,2.16-2.941,2.16-5.085c0-2-0.684-3.586-2.051-4.759
		c-1.367-1.174-3.447-1.76-6.239-1.76H79.604z M79.604,35.945v16.386h3.051c5.056,0,8.463-0.637,10.221-1.913
		c1.758-1.274,2.637-3.129,2.637-5.563c0-2.752-1.031-4.926-3.095-6.52c-2.063-1.593-5.491-2.391-10.285-2.391H79.604z"/>
	<path fill="#FFFFFF" d="M112.395,0h12.17v52.331h17.733v11.605h-29.903V0z"/>
	<path fill="#FFFFFF" d="M144.923,0h11.674l27.357,42.073V0h12.17v63.936h-11.708l-27.323-41.943v41.943h-12.17V0z"/>
</g>
<g>
	<polygon fill="#FFFFFF" points="33.559,38.805 0,46.365 0,62.402 36.987,46.23 	"/>
	<polygon fill="#FFFFFF" points="15.65,0.024 0,0.024 0,10.189 22.531,14.925 	"/>
	<polygon fill="#FFFFFF" points="38.166,48.783 3.577,63.937 11.863,63.937 11.863,86.45 29.514,63.938 45.165,63.937 	"/>
	<polygon fill="#FFFFFF" points="24.001,18.107 0,13.063 0,43.482 32.353,36.193 	"/>
	<polygon fill="#FFFFFF" points="35.158,35.561 63.912,29.084 63.912,26.497 27.431,18.829 	"/>
	<polygon fill="#FFFFFF" points="18.748,0.024 25.962,15.646 63.912,23.624 63.912,0.024 	"/>
	<polygon fill="#FFFFFF" points="39.565,45.103 63.912,34.456 63.912,31.981 36.365,38.173 	"/>
	<polygon fill="#FFFFFF" points="48.262,63.937 63.912,63.937 63.912,37.525 40.744,47.656 	"/>
</g>
</svg>
