<?xml version="1.0" encoding="utf-8"?>
<!-- Generator: Adobe Illustrator 17.0.1, SVG Export Plug-In . SVG Version: 6.00 Build 0)  -->
<!DOCTYPE svg PUBLIC "-//W3C//DTD SVG 1.1//EN" "http://www.w3.org/Graphics/SVG/1.1/DTD/svg11.dtd">
<svg version="1.1" id="Layer_1" xmlns="http://www.w3.org/2000/svg" xmlns:xlink="http://www.w3.org/1999/xlink" x="0px" y="0px"
	 width="411.525px" height="107.682px" viewBox="0 0 411.525 107.682" enable-background="new 0 0 411.525 107.682"
	 xml:space="preserve">
<g>
	<g>
		<path fill="#FFFFFF" d="M67.461,78.701H80.34v2.2H69.707v7.043h10.541v2.2H69.707v8.83h10.541v2.2H67.461V78.701z"/>
		<path fill="#FFFFFF" d="M82.295,84.552h2.276l5.579,12.117l5.513-12.117h2.291l-7.607,16.622h-0.397L82.295,84.552z"/>
		<path fill="#FFFFFF" d="M115.203,95.659l1.803,0.947c-0.592,1.161-1.274,2.098-2.05,2.811c-0.774,0.713-1.646,1.255-2.614,1.627
			c-0.969,0.372-2.064,0.558-3.288,0.558c-2.712,0-4.832-0.889-6.361-2.666c-1.529-1.777-2.294-3.786-2.294-6.027
			c0-2.108,0.647-3.987,1.942-5.638c1.641-2.098,3.838-3.147,6.591-3.147c2.834,0,5.097,1.075,6.789,3.224
			c1.203,1.518,1.814,3.412,1.835,5.683h-14.957c0.041,1.931,0.658,3.514,1.851,4.748c1.193,1.235,2.667,1.852,4.421,1.852
			c0.847,0,1.67-0.147,2.471-0.441c0.8-0.294,1.48-0.685,2.042-1.172C113.943,97.531,114.55,96.744,115.203,95.659z M115.203,91.182
			c-0.286-1.141-0.701-2.052-1.247-2.734c-0.546-0.683-1.268-1.232-2.164-1.65c-0.898-0.418-1.841-0.626-2.83-0.626
			c-1.632,0-3.034,0.524-4.207,1.573c-0.856,0.764-1.504,1.91-1.942,3.438H115.203z"/>
		<path fill="#FFFFFF" d="M121.543,84.552h2.139v2.979c0.855-1.14,1.803-1.994,2.842-2.559c1.038-0.565,2.169-0.848,3.392-0.848
			c1.242,0,2.345,0.316,3.308,0.947c0.962,0.632,1.673,1.482,2.131,2.551s0.688,2.735,0.688,4.996v8.556h-2.139v-7.929
			c0-1.915-0.08-3.193-0.238-3.834c-0.248-1.1-0.724-1.927-1.426-2.482c-0.703-0.555-1.62-0.833-2.751-0.833
			c-1.293,0-2.452,0.428-3.476,1.284c-1.024,0.855-1.699,1.915-2.024,3.178c-0.204,0.825-0.306,2.332-0.306,4.522v6.096h-2.139
			V84.552z"/>
		<path fill="#FFFFFF" d="M142.488,78.38h2.139v6.172h3.392V86.4h-3.392v14.773h-2.139V86.4h-2.918v-1.849h2.918V78.38z"/>
		<path fill="#FFFFFF" d="M159.584,86.37l-1.375,1.421c-1.144-1.11-2.262-1.665-3.354-1.665c-0.694,0-1.289,0.229-1.784,0.688
			c-0.496,0.458-0.743,0.993-0.743,1.604c0,0.54,0.204,1.054,0.612,1.543c0.408,0.5,1.266,1.085,2.572,1.757
			c1.592,0.825,2.674,1.62,3.245,2.383c0.562,0.774,0.843,1.645,0.843,2.613c0,1.365-0.48,2.521-1.438,3.468
			c-0.959,0.947-2.158,1.421-3.596,1.421c-0.959,0-1.875-0.209-2.747-0.626s-1.594-0.993-2.165-1.726l1.345-1.528
			c1.092,1.232,2.251,1.849,3.476,1.849c0.857,0,1.588-0.275,2.19-0.825c0.602-0.55,0.903-1.197,0.903-1.94
			c0-0.611-0.199-1.156-0.597-1.634c-0.398-0.469-1.297-1.06-2.695-1.772c-1.5-0.774-2.521-1.538-3.062-2.292
			c-0.541-0.754-0.812-1.614-0.812-2.582c0-1.263,0.431-2.312,1.293-3.147s1.951-1.253,3.268-1.253
			C156.492,84.124,158.033,84.873,159.584,86.37z"/>
		<path fill="#FFFFFF" d="M169.789,84.552h2.2l5.095,12.069l5.304-12.069h0.388l5.339,12.069l5.193-12.069h2.224l-7.221,16.622
			h-0.396l-5.315-11.901l-5.312,11.901h-0.398L169.789,84.552z"/>
		<path fill="#FFFFFF" d="M205.904,84.124c2.562,0,4.684,0.927,6.367,2.781c1.53,1.69,2.296,3.692,2.296,6.004
			c0,2.322-0.81,4.352-2.426,6.088c-1.618,1.737-3.696,2.605-6.237,2.605c-2.551,0-4.635-0.868-6.252-2.605
			c-1.617-1.736-2.426-3.766-2.426-6.088c0-2.302,0.766-4.298,2.296-5.989C201.206,85.056,203.333,84.124,205.904,84.124z
			 M205.896,86.217c-1.778,0-3.307,0.657-4.584,1.971s-1.916,2.903-1.916,4.767c0,1.202,0.291,2.322,0.874,3.361
			c0.582,1.039,1.369,1.841,2.361,2.406c0.991,0.565,2.079,0.848,3.265,0.848s2.274-0.283,3.266-0.848
			c0.992-0.565,1.779-1.367,2.361-2.406c0.583-1.039,0.874-2.159,0.874-3.361c0-1.864-0.642-3.453-1.924-4.767
			C209.19,86.874,207.665,86.217,205.896,86.217z"/>
		<path fill="#FFFFFF" d="M217.714,84.552h2.185v2.429c0.652-0.957,1.34-1.673,2.063-2.146c0.724-0.474,1.478-0.71,2.262-0.71
			c0.591,0,1.222,0.188,1.895,0.565l-1.115,1.803c-0.448-0.193-0.825-0.291-1.131-0.291c-0.713,0-1.4,0.293-2.063,0.878
			c-0.662,0.586-1.166,1.495-1.513,2.727c-0.265,0.947-0.397,2.862-0.397,5.745v5.622h-2.185V84.552z"/>
		<path fill="#FFFFFF" d="M229.799,78.38h2.139v6.172h3.392V86.4h-3.392v14.773h-2.139V86.4h-2.918v-1.849h2.918V78.38z"/>
		<path fill="#FFFFFF" d="M238.538,78.135h2.139v9.396c0.865-1.14,1.817-1.994,2.856-2.559c1.039-0.565,2.164-0.848,3.377-0.848
			c1.242,0,2.345,0.316,3.308,0.947c0.962,0.632,1.673,1.479,2.131,2.543c0.458,1.064,0.688,2.732,0.688,5.003v8.556h-2.139v-7.929
			c0-1.915-0.077-3.193-0.229-3.834c-0.265-1.1-0.746-1.927-1.443-2.482c-0.698-0.555-1.612-0.833-2.742-0.833
			c-1.294,0-2.452,0.428-3.477,1.284c-1.023,0.855-1.698,1.915-2.023,3.178c-0.204,0.815-0.306,2.322-0.306,4.522v6.096h-2.139
			V78.135z"/>
		<path fill="#FFFFFF" d="M282.843,84.552v16.622h-2.108v-2.857c-0.896,1.09-1.902,1.91-3.018,2.459
			c-1.115,0.55-2.335,0.825-3.659,0.825c-2.353,0-4.361-0.853-6.026-2.559c-1.665-1.706-2.498-3.781-2.498-6.226
			c0-2.393,0.84-4.44,2.521-6.142c1.681-1.701,3.702-2.551,6.065-2.551c1.364,0,2.6,0.291,3.705,0.871
			c1.104,0.58,2.075,1.451,2.91,2.612v-3.056H282.843z M274.295,86.187c-1.19,0-2.289,0.292-3.296,0.877
			c-1.008,0.585-1.809,1.407-2.404,2.465c-0.595,1.058-0.893,2.177-0.893,3.357c0,1.17,0.301,2.289,0.9,3.357
			c0.601,1.068,1.406,1.9,2.419,2.495c1.012,0.596,2.099,0.893,3.258,0.893c1.17,0,2.279-0.295,3.327-0.885
			c1.048-0.59,1.854-1.389,2.418-2.396c0.565-1.007,0.848-2.142,0.848-3.403c0-1.922-0.634-3.53-1.9-4.822
			C277.705,86.833,276.146,86.187,274.295,86.187z"/>
		<path fill="#FFFFFF" d="M289.519,78.38h2.139v6.172h3.392V86.4h-3.392v14.773h-2.139V86.4h-2.918v-1.849h2.918V78.38z"/>
		<path fill="#FFFFFF" d="M300.121,78.38h2.139v6.172h3.392V86.4h-3.392v14.773h-2.139V86.4h-2.918v-1.849h2.918V78.38z"/>
		<path fill="#FFFFFF" d="M322.854,95.659l1.803,0.947c-0.592,1.161-1.274,2.098-2.05,2.811c-0.774,0.713-1.646,1.255-2.614,1.627
			c-0.969,0.372-2.064,0.558-3.288,0.558c-2.712,0-4.832-0.889-6.361-2.666c-1.529-1.777-2.294-3.786-2.294-6.027
			c0-2.108,0.647-3.987,1.942-5.638c1.641-2.098,3.838-3.147,6.591-3.147c2.834,0,5.097,1.075,6.789,3.224
			c1.203,1.518,1.814,3.412,1.835,5.683H310.25c0.041,1.931,0.658,3.514,1.851,4.748c1.193,1.235,2.667,1.852,4.421,1.852
			c0.847,0,1.67-0.147,2.471-0.441c0.8-0.294,1.48-0.685,2.042-1.172C321.595,97.531,322.201,96.744,322.854,95.659z
			 M322.854,91.182c-0.286-1.141-0.701-2.052-1.247-2.734c-0.546-0.683-1.268-1.232-2.164-1.65c-0.898-0.418-1.841-0.626-2.83-0.626
			c-1.632,0-3.034,0.524-4.207,1.573c-0.856,0.764-1.504,1.91-1.942,3.438H322.854z"/>
		<path fill="#FFFFFF" d="M329.194,84.552h2.139v2.979c0.855-1.14,1.803-1.994,2.842-2.559c1.038-0.565,2.169-0.848,3.392-0.848
			c1.242,0,2.345,0.316,3.308,0.947c0.962,0.632,1.673,1.482,2.131,2.551s0.688,2.735,0.688,4.996v8.556h-2.139v-7.929
			c0-1.915-0.08-3.193-0.238-3.834c-0.248-1.1-0.724-1.927-1.426-2.482c-0.703-0.555-1.62-0.833-2.751-0.833
			c-1.293,0-2.452,0.428-3.476,1.284c-1.024,0.855-1.699,1.915-2.024,3.178c-0.204,0.825-0.306,2.332-0.306,4.522v6.096h-2.139
			V84.552z"/>
		<path fill="#FFFFFF" d="M364.867,78.135v23.039h-2.108v-2.857c-0.896,1.09-1.901,1.91-3.018,2.459
			c-1.115,0.55-2.335,0.825-3.658,0.825c-2.354,0-4.362-0.853-6.027-2.559c-1.665-1.706-2.498-3.781-2.498-6.226
			c0-2.393,0.841-4.44,2.521-6.142c1.68-1.701,3.702-2.551,6.064-2.551c1.365,0,2.6,0.291,3.705,0.871
			c1.105,0.58,2.075,1.451,2.91,2.612v-9.472H364.867z M356.319,86.187c-1.19,0-2.289,0.292-3.296,0.877
			c-1.008,0.585-1.809,1.407-2.403,2.465c-0.596,1.058-0.893,2.177-0.893,3.357c0,1.17,0.3,2.289,0.899,3.357
			c0.601,1.068,1.407,1.9,2.419,2.495c1.013,0.596,2.099,0.893,3.259,0.893c1.17,0,2.278-0.295,3.326-0.885
			c1.048-0.59,1.854-1.389,2.419-2.396c0.564-1.007,0.847-2.142,0.847-3.403c0-1.922-0.633-3.53-1.899-4.822
			C359.73,86.833,358.171,86.187,356.319,86.187z"/>
		<path fill="#FFFFFF" d="M370.451,77.708c0.487,0,0.902,0.173,1.247,0.52s0.518,0.764,0.518,1.252c0,0.479-0.173,0.892-0.518,1.238
			s-0.76,0.52-1.247,0.52c-0.477,0-0.888-0.173-1.232-0.52s-0.517-0.759-0.517-1.238c0-0.489,0.172-0.906,0.517-1.252
			S369.975,77.708,370.451,77.708z M369.39,84.552h2.139v16.622h-2.139V84.552z"/>
		<path fill="#FFFFFF" d="M375.975,84.552h2.139v2.979c0.855-1.14,1.803-1.994,2.842-2.559c1.038-0.565,2.169-0.848,3.392-0.848
			c1.242,0,2.345,0.316,3.308,0.947c0.962,0.632,1.673,1.482,2.131,2.551s0.688,2.735,0.688,4.996v8.556h-2.139v-7.929
			c0-1.915-0.08-3.193-0.238-3.834c-0.248-1.1-0.724-1.927-1.426-2.482c-0.703-0.555-1.62-0.833-2.751-0.833
			c-1.293,0-2.452,0.428-3.476,1.284c-1.024,0.855-1.699,1.915-2.024,3.178c-0.204,0.825-0.306,2.332-0.306,4.522v6.096h-2.139
			V84.552z"/>
		<path fill="#FFFFFF" d="M409.387,84.552h2.139v13.246c0,2.333-0.204,4.039-0.611,5.118c-0.56,1.528-1.533,2.704-2.918,3.529
			c-1.385,0.825-3.051,1.237-4.995,1.237c-1.427,0-2.707-0.202-3.843-0.605c-1.136-0.404-2.061-0.945-2.772-1.625
			c-0.714-0.68-1.37-1.673-1.972-2.98h2.322c0.633,1.1,1.448,1.915,2.447,2.444c1,0.529,2.239,0.794,3.718,0.794
			c1.458,0,2.689-0.272,3.693-0.814c1.005-0.543,1.721-1.226,2.149-2.048s0.643-2.149,0.643-3.982v-0.855
			c-0.806,1.019-1.79,1.8-2.952,2.345s-2.396,0.817-3.7,0.817c-1.529,0-2.967-0.379-4.313-1.138
			c-1.346-0.759-2.386-1.78-3.119-3.063c-0.734-1.284-1.102-2.694-1.102-4.232s0.383-2.972,1.147-4.301s1.822-2.381,3.173-3.155
			c1.352-0.774,2.776-1.161,4.274-1.161c1.244,0,2.404,0.257,3.479,0.771c1.075,0.515,2.113,1.362,3.112,2.544V84.552z
			 M403.077,86.187c-1.213,0-2.338,0.293-3.377,0.878c-1.038,0.586-1.854,1.396-2.444,2.429s-0.886,2.152-0.886,3.354
			c0,1.823,0.611,3.331,1.833,4.522c1.223,1.192,2.806,1.788,4.752,1.788c1.965,0,3.546-0.591,4.743-1.772
			c1.196-1.181,1.795-2.734,1.795-4.66c0-1.252-0.274-2.37-0.824-3.353c-0.551-0.983-1.33-1.759-2.338-2.33
			C405.322,86.472,404.238,86.187,403.077,86.187z"/>
	</g>
</g>
<g>
	<path fill="#FFFFFF" d="M67.435,63.936V0h10.053c5.831,0,10.096,0.377,12.794,1.13c3.83,1.015,6.876,2.898,9.14,5.65
		c2.263,2.753,3.394,5.998,3.394,9.736c0,2.434-0.515,4.644-1.543,6.628c-1.028,1.985-2.702,3.847-5.02,5.585
		c3.883,1.825,6.722,4.107,8.519,6.846s2.695,5.976,2.695,9.714c0,3.593-0.929,6.867-2.785,9.823
		c-1.857,2.956-4.25,5.166-7.18,6.628c-2.93,1.463-6.977,2.195-12.139,2.195H67.435z M79.604,11.605v13.474h2.662
		c2.966,0,5.17-0.623,6.609-1.869c1.44-1.246,2.16-2.941,2.16-5.085c0-2-0.684-3.586-2.051-4.759
		c-1.367-1.174-3.447-1.76-6.239-1.76H79.604z M79.604,35.945v16.386h3.051c5.056,0,8.463-0.637,10.221-1.913
		c1.758-1.274,2.637-3.129,2.637-5.563c0-2.752-1.031-4.926-3.095-6.52c-2.063-1.593-5.491-2.391-10.285-2.391H79.604z"/>
	<path fill="#FFFFFF" d="M112.395,0h12.17v52.331h17.733v11.605h-29.903V0z"/>
	<path fill="#FFFFFF" d="M144.923,0h11.674l27.357,42.073V0h12.17v63.936h-11.708l-27.323-41.943v41.943h-12.17V0z"/>
</g>
<g>
	<polygon fill="#FFFFFF" points="33.559,38.805 0,46.365 0,62.402 36.987,46.23 	"/>
	<polygon fill="#FFFFFF" points="15.65,0.024 0,0.024 0,10.189 22.531,14.925 	"/>
	<polygon fill="#FFFFFF" points="38.166,48.783 3.577,63.937 11.863,63.937 11.863,86.45 29.514,63.938 45.165,63.937 	"/>
	<polygon fill="#FFFFFF" points="24.001,18.107 0,13.063 0,43.482 32.353,36.193 	"/>
	<polygon fill="#FFFFFF" points="35.158,35.561 63.912,29.084 63.912,26.497 27.431,18.829 	"/>
	<polygon fill="#FFFFFF" points="18.748,0.024 25.962,15.646 63.912,23.624 63.912,0.024 	"/>
	<polygon fill="#FFFFFF" points="39.565,45.103 63.912,34.456 63.912,31.981 36.365,38.173 	"/>
	<polygon fill="#FFFFFF" points="48.262,63.937 63.912,63.937 63.912,37.525 40.744,47.656 	"/>
</g>
</svg>
