<?xml version="1.0" encoding="utf-8"?>
<!-- Generator: Adobe Illustrator 17.0.1, SVG Export Plug-In . SVG Version: 6.00 Build 0)  -->
<!DOCTYPE svg PUBLIC "-//W3C//DTD SVG 1.1//EN" "http://www.w3.org/Graphics/SVG/1.1/DTD/svg11.dtd">
<svg version="1.1" id="Layer_1" xmlns="http://www.w3.org/2000/svg" xmlns:xlink="http://www.w3.org/1999/xlink" x="0px" y="0px"
	 width="407.966px" height="107.683px" viewBox="0 0 407.966 107.683" enable-background="new 0 0 407.966 107.683"
	 xml:space="preserve">
<polygon fill="#5073AE" points="0,63.937 11.863,63.937 11.863,86.45 29.514,63.938 63.912,63.937 63.912,0.024 0,0.024 "/>
<polygon fill="#7086BA" points="63.912,35.991 38.865,46.943 46.713,63.937 63.912,63.937 "/>
<g>
	<g>
		<path fill="#37335D" d="M63.9,78.701h12.879V80.9H66.146v7.043h10.542v2.2H66.146v8.83h10.542v2.2H63.9V78.701z"/>
		<path fill="#37335D" d="M78.734,84.552h2.276l5.58,12.117l5.512-12.117h2.292l-7.608,16.622h-0.397L78.734,84.552z"/>
		<path fill="#37335D" d="M111.642,95.659l1.803,0.947c-0.591,1.161-1.274,2.098-2.049,2.811s-1.646,1.256-2.615,1.627
			c-0.968,0.372-2.064,0.558-3.288,0.558c-2.712,0-4.832-0.889-6.361-2.666c-1.529-1.776-2.293-3.786-2.293-6.026
			c0-2.108,0.647-3.987,1.942-5.638c1.641-2.098,3.838-3.147,6.59-3.147c2.834,0,5.097,1.075,6.79,3.224
			c1.203,1.518,1.814,3.412,1.835,5.684H99.038c0.041,1.931,0.658,3.514,1.851,4.748c1.193,1.234,2.667,1.852,4.42,1.852
			c0.846,0,1.669-0.146,2.47-0.441c0.8-0.294,1.481-0.685,2.042-1.172C110.383,97.531,110.99,96.744,111.642,95.659z
			 M111.642,91.183c-0.285-1.141-0.701-2.053-1.247-2.734c-0.546-0.683-1.267-1.232-2.165-1.65s-1.841-0.626-2.83-0.626
			c-1.632,0-3.034,0.524-4.207,1.573c-0.857,0.764-1.504,1.909-1.943,3.438H111.642z"/>
		<path fill="#37335D" d="M117.983,84.552h2.139v2.979c0.856-1.141,1.803-1.994,2.842-2.559c1.039-0.565,2.169-0.849,3.392-0.849
			c1.243,0,2.345,0.316,3.308,0.947c0.962,0.632,1.673,1.482,2.131,2.552c0.458,1.069,0.688,2.734,0.688,4.995v8.556h-2.139v-7.929
			c0-1.915-0.079-3.193-0.238-3.835c-0.248-1.1-0.723-1.927-1.426-2.482c-0.703-0.555-1.62-0.833-2.75-0.833
			c-1.294,0-2.453,0.428-3.477,1.284c-1.023,0.855-1.699,1.914-2.024,3.178c-0.204,0.824-0.306,2.332-0.306,4.521v6.096h-2.139
			V84.552z"/>
		<path fill="#37335D" d="M138.928,78.38h2.139v6.172h3.392V86.4h-3.392v14.773h-2.139V86.4h-2.918v-1.849h2.918V78.38z"/>
		<path fill="#37335D" d="M156.024,86.37l-1.375,1.421c-1.144-1.11-2.262-1.665-3.354-1.665c-0.695,0-1.29,0.229-1.785,0.688
			c-0.495,0.458-0.743,0.993-0.743,1.604c0,0.54,0.204,1.055,0.612,1.543c0.408,0.5,1.266,1.085,2.572,1.757
			c1.592,0.825,2.674,1.62,3.246,2.384c0.561,0.774,0.842,1.645,0.842,2.612c0,1.365-0.479,2.521-1.438,3.468
			s-2.157,1.421-3.595,1.421c-0.959,0-1.875-0.209-2.747-0.626c-0.872-0.418-1.594-0.993-2.165-1.727l1.345-1.527
			c1.092,1.232,2.251,1.849,3.476,1.849c0.857,0,1.587-0.275,2.189-0.825s0.904-1.197,0.904-1.94c0-0.611-0.199-1.156-0.597-1.635
			c-0.398-0.469-1.296-1.06-2.694-1.772c-1.501-0.773-2.521-1.537-3.063-2.291s-0.812-1.614-0.812-2.582
			c0-1.263,0.431-2.313,1.293-3.147c0.862-0.835,1.951-1.253,3.267-1.253C152.933,84.124,154.473,84.873,156.024,86.37z"/>
		<path fill="#37335D" d="M166.23,84.552h2.2l5.095,12.069l5.304-12.069h0.388l5.339,12.069l5.193-12.069h2.224l-7.221,16.622
			h-0.396l-5.315-11.901l-5.312,11.901h-0.398L166.23,84.552z"/>
		<path fill="#37335D" d="M202.345,84.124c2.562,0,4.684,0.927,6.367,2.781c1.53,1.69,2.296,3.691,2.296,6.004
			c0,2.322-0.81,4.352-2.426,6.088c-1.618,1.736-3.696,2.604-6.237,2.604c-2.551,0-4.635-0.868-6.252-2.604
			s-2.426-3.766-2.426-6.088c0-2.302,0.766-4.298,2.296-5.989C197.647,85.057,199.774,84.124,202.345,84.124z M202.337,86.218
			c-1.778,0-3.307,0.656-4.584,1.971c-1.277,1.313-1.916,2.902-1.916,4.767c0,1.201,0.291,2.322,0.874,3.36
			c0.582,1.039,1.369,1.842,2.361,2.406c0.991,0.565,2.079,0.849,3.265,0.849s2.274-0.283,3.266-0.849
			c0.992-0.564,1.779-1.367,2.361-2.406c0.583-1.038,0.874-2.159,0.874-3.36c0-1.864-0.642-3.453-1.924-4.767
			C205.631,86.874,204.106,86.218,202.337,86.218z"/>
		<path fill="#37335D" d="M214.154,84.552h2.185v2.43c0.652-0.957,1.34-1.673,2.063-2.146c0.724-0.474,1.478-0.711,2.262-0.711
			c0.591,0,1.222,0.188,1.895,0.565l-1.115,1.803c-0.448-0.193-0.825-0.29-1.131-0.29c-0.713,0-1.4,0.293-2.063,0.878
			c-0.662,0.586-1.166,1.495-1.513,2.728c-0.265,0.947-0.397,2.862-0.397,5.744v5.622h-2.185V84.552z"/>
		<path fill="#37335D" d="M226.239,78.38h2.139v6.172h3.392V86.4h-3.392v14.773h-2.139V86.4h-2.918v-1.849h2.918V78.38z"/>
		<path fill="#37335D" d="M234.979,78.136h2.139v9.396c0.865-1.141,1.817-1.994,2.856-2.559c1.039-0.565,2.164-0.849,3.377-0.849
			c1.242,0,2.345,0.316,3.308,0.947c0.962,0.632,1.673,1.479,2.131,2.544s0.688,2.732,0.688,5.003v8.556h-2.139v-7.929
			c0-1.915-0.077-3.193-0.229-3.835c-0.265-1.1-0.746-1.927-1.443-2.482c-0.698-0.555-1.612-0.833-2.742-0.833
			c-1.294,0-2.452,0.428-3.477,1.284c-1.023,0.855-1.698,1.914-2.023,3.178c-0.204,0.814-0.306,2.321-0.306,4.521v6.096h-2.139
			V78.136z"/>
		<path fill="#37335D" d="M279.283,84.552v16.622h-2.108v-2.856c-0.896,1.09-1.902,1.909-3.018,2.459
			c-1.115,0.551-2.335,0.825-3.659,0.825c-2.353,0-4.361-0.853-6.026-2.559s-2.498-3.781-2.498-6.226c0-2.394,0.84-4.44,2.521-6.142
			s3.702-2.552,6.065-2.552c1.364,0,2.6,0.291,3.705,0.871c1.104,0.58,2.075,1.451,2.91,2.612v-3.056H279.283z M270.735,86.187
			c-1.19,0-2.289,0.293-3.296,0.878c-1.008,0.585-1.809,1.406-2.404,2.465c-0.595,1.058-0.893,2.177-0.893,3.356
			c0,1.171,0.301,2.289,0.9,3.357c0.601,1.068,1.406,1.9,2.419,2.495c1.012,0.596,2.099,0.893,3.258,0.893
			c1.17,0,2.279-0.295,3.327-0.885s1.854-1.389,2.418-2.396c0.565-1.008,0.848-2.142,0.848-3.403c0-1.923-0.634-3.53-1.9-4.822
			S272.587,86.187,270.735,86.187z"/>
		<path fill="#37335D" d="M285.959,78.38h2.139v6.172h3.392V86.4h-3.392v14.773h-2.139V86.4h-2.918v-1.849h2.918V78.38z"/>
		<path fill="#37335D" d="M296.562,78.38h2.139v6.172h3.392V86.4H298.7v14.773h-2.139V86.4h-2.918v-1.849h2.918V78.38z"/>
		<path fill="#37335D" d="M319.295,95.659l1.803,0.947c-0.592,1.161-1.274,2.098-2.05,2.811c-0.774,0.713-1.646,1.256-2.614,1.627
			c-0.969,0.372-2.064,0.558-3.288,0.558c-2.712,0-4.832-0.889-6.361-2.666c-1.529-1.776-2.294-3.786-2.294-6.026
			c0-2.108,0.647-3.987,1.942-5.638c1.641-2.098,3.838-3.147,6.591-3.147c2.834,0,5.097,1.075,6.789,3.224
			c1.203,1.518,1.814,3.412,1.835,5.684h-14.957c0.041,1.931,0.658,3.514,1.851,4.748c1.193,1.234,2.667,1.852,4.421,1.852
			c0.847,0,1.67-0.146,2.471-0.441c0.8-0.294,1.48-0.685,2.042-1.172C318.035,97.531,318.642,96.744,319.295,95.659z
			 M319.295,91.183c-0.286-1.141-0.701-2.053-1.247-2.734c-0.546-0.683-1.268-1.232-2.164-1.65c-0.898-0.418-1.841-0.626-2.83-0.626
			c-1.632,0-3.034,0.524-4.207,1.573c-0.856,0.764-1.504,1.909-1.942,3.438H319.295z"/>
		<path fill="#37335D" d="M325.636,84.552h2.139v2.979c0.855-1.141,1.803-1.994,2.842-2.559c1.038-0.565,2.169-0.849,3.392-0.849
			c1.242,0,2.345,0.316,3.308,0.947c0.962,0.632,1.673,1.482,2.131,2.552s0.688,2.734,0.688,4.995v8.556h-2.139v-7.929
			c0-1.915-0.08-3.193-0.238-3.835c-0.248-1.1-0.724-1.927-1.426-2.482c-0.703-0.555-1.62-0.833-2.751-0.833
			c-1.293,0-2.452,0.428-3.476,1.284c-1.024,0.855-1.699,1.914-2.024,3.178c-0.204,0.824-0.306,2.332-0.306,4.521v6.096h-2.139
			V84.552z"/>
		<path fill="#37335D" d="M361.308,78.136v23.038h-2.108v-2.856c-0.896,1.09-1.901,1.909-3.017,2.459
			c-1.116,0.551-2.336,0.825-3.659,0.825c-2.354,0-4.362-0.853-6.027-2.559s-2.498-3.781-2.498-6.226
			c0-2.394,0.841-4.44,2.521-6.142c1.68-1.701,3.702-2.552,6.064-2.552c1.365,0,2.6,0.291,3.705,0.871s2.075,1.451,2.91,2.612
			v-9.472H361.308z M352.76,86.187c-1.19,0-2.289,0.293-3.296,0.878c-1.008,0.585-1.809,1.406-2.403,2.465
			c-0.596,1.058-0.893,2.177-0.893,3.356c0,1.171,0.3,2.289,0.899,3.357c0.601,1.068,1.407,1.9,2.419,2.495
			c1.013,0.596,2.099,0.893,3.259,0.893c1.17,0,2.278-0.295,3.326-0.885s1.854-1.389,2.419-2.396
			c0.564-1.008,0.847-2.142,0.847-3.403c0-1.923-0.633-3.53-1.899-4.822S354.611,86.187,352.76,86.187z"/>
		<path fill="#37335D" d="M366.892,77.708c0.487,0,0.902,0.173,1.247,0.52c0.345,0.346,0.518,0.764,0.518,1.252
			c0,0.479-0.173,0.892-0.518,1.238c-0.345,0.346-0.76,0.52-1.247,0.52c-0.477,0-0.888-0.174-1.232-0.52
			c-0.345-0.347-0.517-0.759-0.517-1.238c0-0.488,0.172-0.906,0.517-1.252C366.004,77.881,366.415,77.708,366.892,77.708z
			 M365.83,84.552h2.139v16.622h-2.139V84.552z"/>
		<path fill="#37335D" d="M372.416,84.552h2.139v2.979c0.855-1.141,1.803-1.994,2.842-2.559c1.038-0.565,2.169-0.849,3.392-0.849
			c1.242,0,2.345,0.316,3.308,0.947c0.962,0.632,1.673,1.482,2.131,2.552s0.688,2.734,0.688,4.995v8.556h-2.139v-7.929
			c0-1.915-0.08-3.193-0.238-3.835c-0.248-1.1-0.724-1.927-1.426-2.482c-0.703-0.555-1.62-0.833-2.751-0.833
			c-1.293,0-2.452,0.428-3.476,1.284c-1.024,0.855-1.699,1.914-2.024,3.178c-0.204,0.824-0.306,2.332-0.306,4.521v6.096h-2.139
			V84.552z"/>
		<path fill="#37335D" d="M405.827,84.552h2.139v13.246c0,2.332-0.204,4.038-0.611,5.118c-0.56,1.527-1.533,2.704-2.918,3.529
			c-1.385,0.824-3.051,1.237-4.995,1.237c-1.427,0-2.707-0.202-3.843-0.605s-2.061-0.945-2.772-1.624
			c-0.714-0.68-1.37-1.673-1.972-2.98h2.322c0.633,1.1,1.448,1.915,2.447,2.444c1,0.529,2.239,0.795,3.718,0.795
			c1.458,0,2.689-0.272,3.693-0.814c1.005-0.544,1.721-1.227,2.149-2.049s0.643-2.149,0.643-3.981v-0.855
			c-0.806,1.019-1.79,1.8-2.952,2.345s-2.396,0.817-3.7,0.817c-1.529,0-2.967-0.379-4.313-1.138
			c-1.346-0.759-2.386-1.78-3.119-3.063c-0.734-1.283-1.102-2.693-1.102-4.231s0.383-2.972,1.147-4.301s1.822-2.381,3.173-3.155
			c1.352-0.773,2.776-1.161,4.274-1.161c1.244,0,2.404,0.258,3.479,0.771c1.075,0.515,2.113,1.362,3.112,2.544V84.552z
			 M399.518,86.187c-1.213,0-2.338,0.293-3.377,0.879c-1.038,0.586-1.854,1.396-2.444,2.429c-0.591,1.034-0.886,2.152-0.886,3.354
			c0,1.823,0.611,3.331,1.833,4.522c1.223,1.191,2.806,1.787,4.752,1.787c1.965,0,3.546-0.591,4.743-1.772
			c1.196-1.181,1.795-2.734,1.795-4.659c0-1.253-0.274-2.37-0.824-3.354c-0.551-0.982-1.33-1.759-2.338-2.33
			C401.763,86.472,400.679,86.187,399.518,86.187z"/>
	</g>
</g>
<polygon fill="#607098" points="0,44.923 34.359,37.183 24.981,16.877 0,11.626 "/>
<polygon fill="#8E9DC8" points="0,44.923 34.359,37.183 38.865,46.943 0,63.937 "/>
<polygon fill="#37335D" points="0,0.024 17.199,0.024 24.981,16.877 0,11.626 "/>
<polygon fill="#8E9DC8" points="24.981,16.877 34.359,37.183 63.912,30.525 63.912,25.06 "/>
<polygon fill="#7086BA" points="17.199,0.024 63.912,0.024 63.912,25.06 24.981,16.877 "/>
<polygon fill="#AFB9D8" points="63.912,30.525 34.359,37.183 38.865,46.943 63.912,35.991 "/>
<g>
	<path fill="#37335D" d="M63.874,63.937V0h10.052c5.831,0,10.096,0.377,12.794,1.13c3.83,1.015,6.876,2.898,9.139,5.65
		c2.263,2.753,3.395,5.998,3.395,9.736c0,2.434-0.515,4.644-1.543,6.628c-1.029,1.985-2.702,3.847-5.02,5.585
		c3.882,1.825,6.722,4.107,8.519,6.846c1.796,2.738,2.694,5.976,2.694,9.714c0,3.593-0.928,6.867-2.785,9.823
		c-1.857,2.955-4.25,5.165-7.179,6.628c-2.93,1.464-6.977,2.195-12.14,2.195H63.874z M76.044,11.605v13.474h2.662
		c2.966,0,5.17-0.623,6.61-1.869c1.439-1.246,2.16-2.941,2.16-5.085c0-2-0.684-3.586-2.051-4.759
		c-1.367-1.174-3.446-1.76-6.238-1.76H76.044z M76.044,35.945v16.386h3.051c5.055,0,8.462-0.637,10.22-1.913
		c1.757-1.274,2.637-3.129,2.637-5.563c0-2.752-1.031-4.926-3.095-6.52c-2.063-1.593-5.491-2.391-10.285-2.391H76.044z"/>
	<path fill="#37335D" d="M108.833,0h12.17v52.331h17.733v11.605h-29.903V0z"/>
	<path fill="#37335D" d="M141.362,0h11.674l27.358,42.073V0h12.17v63.937h-11.709l-27.323-41.944v41.944h-12.17V0z"/>
</g>
</svg>
