<?xml version="1.0" encoding="utf-8"?>
<!-- Generator: Adobe Illustrator 17.1.0, SVG Export Plug-In . SVG Version: 6.00 Build 0)  -->
<!DOCTYPE svg PUBLIC "-//W3C//DTD SVG 1.1//EN" "http://www.w3.org/Graphics/SVG/1.1/DTD/svg11.dtd">
<svg version="1.1" id="Layer_1" xmlns="http://www.w3.org/2000/svg" xmlns:xlink="http://www.w3.org/1999/xlink" x="0px" y="0px"
	 viewBox="0 0 64 64" enable-background="new 0 0 64 64" xml:space="preserve">
<path fill="#5C5E5E" d="M59.3,0H4.7C2.1,0,0,2.1,0,4.6v54.9C0,62,2.1,64,4.7,64h30.4c0,0,0-15.1,0-27.6h-5.5v-9.8h5.5v-6.3
	c0-4.5,2.2-11.6,11.7-11.6l8.6,0v9.5c0,0-5.2,0-6.2,0c-1,0-2.4,0.5-2.4,2.7v5.7h8.8l-1,9.8h-7.8c0,12.4,0,27.6,0,27.6h12.6
	c2.6,0,4.7-2.1,4.7-4.6V4.6C64,2.1,61.9,0,59.3,0z"/>
</svg>
