<?xml version="1.0" encoding="utf-8"?>
<!-- Generator: Adobe Illustrator 17.1.0, SVG Export Plug-In . SVG Version: 6.00 Build 0)  -->
<!DOCTYPE svg PUBLIC "-//W3C//DTD SVG 1.1//EN" "http://www.w3.org/Graphics/SVG/1.1/DTD/svg11.dtd">
<svg version="1.1" id="Layer_1" xmlns="http://www.w3.org/2000/svg" xmlns:xlink="http://www.w3.org/1999/xlink" x="0px" y="0px"
	 viewBox="0 0 64 64" enable-background="new 0 0 64 64" xml:space="preserve">
<g>
	<path fill="#5C5E5E" d="M34.5,28.9L34.5,28.9C34.5,28.8,34.5,28.8,34.5,28.9L34.5,28.9z"/>
	<path fill="#5C5E5E" d="M59.4,0H4.7C2.1,0,0,2.1,0,4.6v54.8C0,61.9,2.1,64,4.7,64h54.7c2.6,0,4.7-2.1,4.7-4.6V4.6
		C64.2,2.1,62,0,59.4,0z M19.4,53.5H9.8V24.7h9.7V53.5z M14.6,20.7L14.6,20.7c-3.3,0-5.4-2.2-5.4-5c0-2.8,2.2-5,5.5-5
		c3.3,0,5.4,2.2,5.4,5C20.1,18.5,18,20.7,14.6,20.7z M54.4,53.5h-9.7V38.1c0-3.9-1.4-6.5-4.9-6.5c-2.7,0-4.3,1.8-5,3.5
		c-0.3,0.6-0.3,1.5-0.3,2.3v16.1h-9.7c0,0,0.1-26.2,0-28.9h9.7v4.1c1.3-2,3.6-4.8,8.7-4.8c6.4,0,11.2,4.1,11.2,13V53.5z"/>
</g>
</svg>
