<?xml version="1.0" encoding="utf-8"?>
<!-- Generator: Adobe Illustrator 17.1.0, SVG Export Plug-In . SVG Version: 6.00 Build 0)  -->
<!DOCTYPE svg PUBLIC "-//W3C//DTD SVG 1.1//EN" "http://www.w3.org/Graphics/SVG/1.1/DTD/svg11.dtd">
<svg version="1.1" id="Layer_1" xmlns="http://www.w3.org/2000/svg" xmlns:xlink="http://www.w3.org/1999/xlink" x="0px" y="0px"
	 viewBox="0 0 64 64" enable-background="new 0 0 64 64" xml:space="preserve">
<path fill="#5C5E5E" d="M59.4,0H4.7C2.1,0,0,2.1,0,4.6v54.8C0,61.9,2.1,64,4.7,64h54.6c2.6,0,4.7-2.1,4.7-4.6V4.6
	C64.1,2.1,62,0,59.4,0z M51.8,32.9c-0.4,2.2-1.5,4.4-3.2,6.8c-3.7,4.5-8.2,7.5-13.6,8.9h-0.1c-5.5,1.5-11,1.3-16.5-0.4
	c-4.8-1.8-8.7-4.7-11.6-8.6c2.9,2.3,5.6,3.4,8.1,3.4l0.1,0c4.1,0.3,7.6-1,10.5-3.9c0,0,0,0,0,0L25.5,39c-1.7,0.1-2.8-0.4-3.5-1.5
	c-0.2-0.7,0-1.4,0.5-1.9c0.3-0.4,0.8-0.7,1.4-0.9c-3,0.1-5-0.9-6.2-3.1c0.9-0.9,2-1.4,3.4-1.3l0,0c-3.5-0.9-5.4-2.7-5.6-5.1
	c0.9-0.3,1.8-0.4,2.8-0.4v0c-2.8-1.5-4.1-3.7-4.1-6.3c2.5,0.8,5,1.8,7.5,3c2.3,0.9,4.2,1.9,5.9,2.9c1.4,0.8,2.6,1.8,3.6,2.9l0,0
	l0.3-0.2c0.7-2.6,1.8-5.1,3.5-7.6l0-0.1c0.6-0.9,1.5-1.9,2.5-3c0.5-0.5,1.1-0.9,1.7-1.4c0.1,0.1-0.1,0.5-0.6,1.3
	c1.4-1.2,2.7-1.7,3.9-1.8c0.3,0.3-0.2,0.8-1.4,1.5c1-0.4,2.1-0.6,3.2-0.7c0.5,0.1,0.7,0.3,0.5,0.8c-0.4,0.6-1.8,1.1-4.1,1.6
	c0,0,0,0,0,0l0.1,0.2c2.6-0.1,4.8,0.7,6.7,2.4c0,0,0.1,0.1,0.1,0.1c2.3,2.2,3.6,4.5,3.9,7.2c2,0.7,4,0.7,6.1-0.1
	c-0.6,1.5-2.3,2.4-5.2,2.7c0,0,0,0,0,0v0.3c2.7,0.5,4.5,0.6,5.4,0.3l0,0C56.6,32.2,54.6,33,51.8,32.9z"/>
</svg>
