<?xml version="1.0" encoding="utf-8"?>
<!-- Generator: Adobe Illustrator 17.1.0, SVG Export Plug-In . SVG Version: 6.00 Build 0)  -->
<!DOCTYPE svg PUBLIC "-//W3C//DTD SVG 1.1//EN" "http://www.w3.org/Graphics/SVG/1.1/DTD/svg11.dtd">
<svg version="1.1" id="Layer_1" xmlns="http://www.w3.org/2000/svg" xmlns:xlink="http://www.w3.org/1999/xlink" x="0px" y="0px"
	 viewBox="0 0 64 64" enable-background="new 0 0 64 64" xml:space="preserve">
<path fill-rule="evenodd" clip-rule="evenodd" fill="#FFFFFF" d="M46.211,30.468c10.014-2.626,13.287-8.61,12.729-16.49h0.05
	c0-9.437-7.199-14.058-14.268-13.976C37.964,0.082,31.026,4.46,30.502,12.94H5.157c-0.933,8.384,2.175,14.772,12.648,17.528
	c9.278,2.967,2.536,14.075,11.897,14.075v12.161c-3.209,3.324-6.873,4.864-14.727,4.864V64h34.05v-2.432
	c-7.838,0-11.519-1.541-14.727-4.864V44.542C43.052,44.542,36.916,33.435,46.211,30.468z M55.995,7.978l1.13,4.994l-10.636-0.017
	L55.995,7.978z M47.895,2.449l5.318,2.383l-7.788,7.297L47.895,2.449z M43.838,1.946l0.197,10.037l-6.644-8.14L43.838,1.946z
	 M32.581,12.94l2.748-6.21l8.722,6.243h-11.47l0.015-0.033H32.581z M9.361,22.668c-1.325-1.93-1.898-4.215-1.914-6.826l0.034-0.47
	h49.039l0.032,0.47c-0.032,2.611-0.606,4.897-1.93,6.826H9.361z"/>
</svg>
