<?xml version="1.0" encoding="utf-8"?>
<!-- Generator: Adobe Illustrator 17.1.0, SVG Export Plug-In . SVG Version: 6.00 Build 0)  -->
<!DOCTYPE svg PUBLIC "-//W3C//DTD SVG 1.1//EN" "http://www.w3.org/Graphics/SVG/1.1/DTD/svg11.dtd">
<svg version="1.1" id="Layer_1" xmlns="http://www.w3.org/2000/svg" xmlns:xlink="http://www.w3.org/1999/xlink" x="0px" y="0px"
	 viewBox="0 0 64 64" enable-background="new 0 0 64 64" xml:space="preserve">
<g>
	<path fill="#FFFFFF" d="M20.109,57.045c-0.11-0.062-0.219-0.124-0.344-0.186c-0.204-0.124-0.424-0.263-0.643-0.386
		c-0.095,0.448-0.141,0.897-0.141,1.36c0,3.401,2.787,6.167,6.234,6.167c1.958,0,3.713-0.897,4.857-2.272
		c-2.884-1.051-6.188-2.581-9.62-4.482C20.345,57.184,20.22,57.107,20.109,57.045z"/>
	<path fill="#FFFFFF" d="M52.773,0.815c-3.242-1.839-7.567-0.463-9.649,3.091c-1.144,1.932-1.363,4.127-0.815,6.028
		c0.188,4.08-2.177,7.604-5.797,11.654c1.066,0.139,2.131,0.463,3.196,0.974l0.015-0.016c0.11,0.062,0.22,0.14,0.329,0.202
		c0.11,0.062,0.22,0.124,0.346,0.185l-0.015,0.016c1.08,0.726,1.973,1.561,2.662,2.504c1.255-6.26,4.027-9.815,7.677-11.36
		c1.677-0.588,3.181-1.793,4.183-3.493C56.972,7.059,56.031,2.67,52.773,0.815z"/>
	<path fill="#FFFFFF" d="M39.034,24.602l0.015-0.015c-0.11-0.062-0.203-0.124-0.314-0.17c-0.093-0.062-0.188-0.124-0.282-0.186
		l-0.015,0.015c-5.593-2.72-11.39,0.618-14.398,6.893c-5.546,6.059-12.392,5.518-15.885,11.391
		c-1.175,1.994,4.401,7.342,12.518,12.071c0.093,0.062,0.203,0.124,0.297,0.186c0.11,0.046,0.203,0.108,0.314,0.17
		c8.193,4.56,15.682,6.646,16.857,4.652c3.416-5.92-0.5-11.499,2.053-19.273C44.188,34.634,44.236,28.018,39.034,24.602z
		 M31.327,32.871c-1.536,2.69-3.995,4.838-6.658,6.259c-1.567,0.851-3.259,1.438-4.825,2.241c-0.878,0.463-1.645,0.958-2.475,1.469
		c-0.987,0.618-1.88,1.437-2.977,1.87c-0.125-1.376,0.424-2.69,1.082-3.725c1.551-2.426,4.12-3.926,6.58-5.193
		c0.658-0.34,1.316-0.711,1.958-1.051c0.5-0.263,1.002-0.572,1.504-0.897c2.272-1.468,4.402-3.509,6.924-4.59
		C32.439,30.63,31.937,31.805,31.327,32.871z"/>
</g>
</svg>
