<?xml version="1.0" encoding="utf-8"?>
<!-- Generator: Adobe Illustrator 17.1.0, SVG Export Plug-In . SVG Version: 6.00 Build 0)  -->
<!DOCTYPE svg PUBLIC "-//W3C//DTD SVG 1.1//EN" "http://www.w3.org/Graphics/SVG/1.1/DTD/svg11.dtd">
<svg version="1.1" id="Layer_1" xmlns="http://www.w3.org/2000/svg" xmlns:xlink="http://www.w3.org/1999/xlink" x="0px" y="0px"
	 viewBox="0 0 64 64" enable-background="new 0 0 64 64" xml:space="preserve">
<path fill-rule="evenodd" clip-rule="evenodd" fill="#FFFFFF" d="M14.222,41.667c0-10.666,8.502-19.333,18.963-19.333
	c2.971,0,5.782,0.71,8.296,1.949c-6.321,3.142-10.667,9.747-10.667,17.384c0,7.637,4.346,14.258,10.667,17.4
	C38.967,60.308,36.156,61,33.185,61C22.724,61,14.222,52.348,14.222,41.667z M35.556,41.667c0-5.719,3.255-10.681,8.011-13.034
	c3.54-1.773,3.54-6.945-0.015-8.701c-3.13-1.547-6.653-2.432-10.366-2.432C20.1,17.5,9.481,28.326,9.481,41.667
	c0,0.741,0.031,1.482,0.094,2.207C4.123,42.795,0,37.881,0,32c0-6.669,5.309-12.083,11.852-12.083c0.015,0,0.031,0,0.031,0
	C12.498,10.475,20.21,3,29.63,3c7.869,0,14.554,5.236,16.892,12.47c1.043-0.242,2.133-0.387,3.256-0.387
	c7.853,0,14.222,6.509,14.222,14.5c0,8.007-6.369,14.5-14.222,14.5H35.744C35.617,43.309,35.556,42.488,35.556,41.667z"/>
</svg>
