<?xml version="1.0" encoding="utf-8"?>
<!-- Generator: Adobe Illustrator 17.1.0, SVG Export Plug-In . SVG Version: 6.00 Build 0)  -->
<!DOCTYPE svg PUBLIC "-//W3C//DTD SVG 1.1//EN" "http://www.w3.org/Graphics/SVG/1.1/DTD/svg11.dtd">
<svg version="1.1" id="Layer_1" xmlns="http://www.w3.org/2000/svg" xmlns:xlink="http://www.w3.org/1999/xlink" x="0px" y="0px"
	 viewBox="0 0 64 64" enable-background="new 0 0 64 64" xml:space="preserve">
<path fill-rule="evenodd" clip-rule="evenodd" fill="#FFFFFF" d="M0,43.826C0,33.612,5.231,24.592,13.163,19.33
	c-2.584-7.32-2.437-9.935-11.954-10.572C18.281-4.316,28.679,9.738,48.301,4.345l-2.125,12.747h10.956
	C61.4,20.18,63.591,24.674,64,30.328l-8.831-8.334l-5.69,0.31c5.771,5.36,9.386,13.023,9.386,21.521
	c0,6.406-2.062,12.337-5.528,17.174H5.527C2.044,56.163,0,50.231,0,43.826z M29.433,19.314c-10.974,0-20.277,7.223-23.4,17.158
	h46.799C49.708,26.537,40.405,19.314,29.433,19.314z"/>
</svg>
