<?xml version="1.0" encoding="utf-8"?>
<!-- Generator: Adobe Illustrator 17.1.0, SVG Export Plug-In . SVG Version: 6.00 Build 0)  -->
<!DOCTYPE svg PUBLIC "-//W3C//DTD SVG 1.1//EN" "http://www.w3.org/Graphics/SVG/1.1/DTD/svg11.dtd">
<svg version="1.1" id="Layer_1" xmlns="http://www.w3.org/2000/svg" xmlns:xlink="http://www.w3.org/1999/xlink" x="0px" y="0px"
	 viewBox="0 0 64 64" enable-background="new 0 0 64 64" xml:space="preserve">
<path fill-rule="evenodd" clip-rule="evenodd" fill="#FFFFFF" d="M20.436,25.612c-0.254-0.045-0.508-0.092-0.747-0.137
	c-1.015-0.228-2.061-0.64-2.971-1.37c-0.942-0.761-1.629-1.767-2.077-3.015C14.194,19.887,14,18.471,14,16.856V4.294
	c0-1.248,1.015-2.284,2.24-2.284c1.24,0,2.24,1.036,2.24,2.284v12.563c0,1.264,0.165,2.102,0.359,2.665
	c0.194,0.533,0.433,0.808,0.656,0.99c0.225,0.183,0.524,0.335,0.957,0.457V4.309c0-1.264,1.001-2.284,2.24-2.284
	c1.238,0,2.24,1.02,2.24,2.284v16.765c0.747-0.106,1.224-0.305,1.553-0.564c0.223-0.182,0.462-0.457,0.642-0.99
	c0.208-0.563,0.359-1.401,0.359-2.665V4.294c0-1.248,1.015-2.284,2.24-2.284c1.24,0,2.24,1.036,2.24,2.284v12.563
	c0,1.614-0.195,3.031-0.627,4.234c-0.449,1.248-1.151,2.254-2.077,3.015c-0.895,0.715-1.896,1.111-2.882,1.34
	c3.748,28.643,1.18,38.053-2.987,38.266h-1.254C17.554,63.498,16.315,54.285,20.436,25.612z M43.405,29.419
	C34.729,13.43,42.181,1.401,49.871,0v26.054c0,28.643,1.256,37.718-4.076,37.946h-0.15C40.314,63.772,37.82,59.218,43.405,29.419z"
	/>
</svg>
