<?xml version="1.0" encoding="utf-8"?>
<!-- Generator: Adobe Illustrator 17.1.0, SVG Export Plug-In . SVG Version: 6.00 Build 0)  -->
<!DOCTYPE svg PUBLIC "-//W3C//DTD SVG 1.1//EN" "http://www.w3.org/Graphics/SVG/1.1/DTD/svg11.dtd">
<svg version="1.1" id="Layer_1" xmlns="http://www.w3.org/2000/svg" xmlns:xlink="http://www.w3.org/1999/xlink" x="0px" y="0px"
	 viewBox="0 0 64 64" enable-background="new 0 0 64 64" xml:space="preserve">
<path fill-rule="evenodd" clip-rule="evenodd" fill="#FFFFFF" d="M42.137,64l-0.457-2.919c4.361-1.165,7.76-3.207,8.233-7.466
	l-1.236-7.801c-2.576,0.064-4.862-0.574-6.814-1.882c-2.515-1.692-4.268-4.339-5.473-7.53c-1.266-3.318-1.967-7.37-2.302-11.853
	c-0.838,2.616-1.83,4.962-2.988,6.956c-1.708,2.903-3.872,5.216-6.633,6.428c-2.133,0.941-4.496,1.149-7.027,0.622l-2.485,7.45
	c-0.244,4.291,2.774,6.923,6.875,8.853l-0.931,2.792L0,49.962l0.93-2.792c4.207,1.132,8.019,1.069,10.396-2.09l2.607-7.816
	c-2.255-1.244-3.932-2.919-5.045-5.025c-1.434-2.761-1.754-5.966-1.341-9.364C8.339,16.159,12.044,8.12,16.846,0l1.571,1.02
	l17.197,6.286l1.83,0.223c-0.153,1.372-0.32,2.728-0.52,4.068l16.969-2.935l1.706-0.718c3.4,8.854,5.733,17.453,5.413,24.2
	c-0.168,3.414-1.006,6.524-2.867,8.981c-1.432,1.866-3.369,3.222-5.808,4.052l1.295,8.168c1.83,3.541,5.565,4.275,9.909,3.924
	L64,60.172L42.137,64z M55.249,38.7c1.219-1.611,1.921-3.845,2.057-6.748c0.259-5.519-1.554-12.89-4.603-21.12l-14.986,2.6
	c-0.153,3.684-0.153,7.162,0.046,10.337l0.731-0.128l-0.564,0.255h15.399c1.92,6.636,2.133,12.044,1.188,15.617
	C54.792,39.258,55.036,38.971,55.249,38.7z M15.26,18.808h16.664l-0.092-0.048c0.701-3.078,1.28-6.477,1.739-10.13L19.24,3.366
	c-4.376,7.561-7.364,14.5-8.019,19.988c-0.336,2.887-0.015,5.201,0.929,7.02c0.168,0.302,0.351,0.622,0.581,0.925
	C12.425,28.156,13.188,23.848,15.26,18.808z"/>
</svg>
