<?xml version="1.0" encoding="utf-8"?>
<!-- Generator: Adobe Illustrator 17.1.0, SVG Export Plug-In . SVG Version: 6.00 Build 0)  -->
<!DOCTYPE svg PUBLIC "-//W3C//DTD SVG 1.1//EN" "http://www.w3.org/Graphics/SVG/1.1/DTD/svg11.dtd">
<svg version="1.1" id="Layer_1" xmlns="http://www.w3.org/2000/svg" xmlns:xlink="http://www.w3.org/1999/xlink" x="0px" y="0px"
	 viewBox="0 0 64 64" enable-background="new 0 0 64 64" xml:space="preserve">
<path fill-rule="evenodd" clip-rule="evenodd" fill="#FFFFFF" d="M0,46.72V20.174c0-4.581,3.761-8.281,8.377-8.281h47.244
	c4.615,0,8.379,3.699,8.379,8.281V46.72c0,4.581-3.763,8.28-8.379,8.28H8.377C3.761,55,0,51.301,0,46.72z M58.201,33.438
	c0-8.74-7.176-15.813-16.019-15.813c-8.826,0-16,7.072-16,15.813s7.174,15.813,16,15.813C51.025,49.25,58.201,42.178,58.201,33.438z
	 M32,33.438c0-5.558,4.557-10.063,10.182-10.063c5.623,0,10.182,4.504,10.182,10.063S47.805,43.5,42.182,43.5
	C36.557,43.5,32,38.996,32,33.438z M36.731,36.676l3.279-1.227l1.822-2.108l1.087-2.549l-0.388-3.489l-3.316,1.227l-1.824,2.109
	l-1.085,2.549L36.731,36.676z M20.364,26.25v-2.875H5.818v2.875H20.364z M20.364,20.5v-2.875H5.818V20.5H20.364z M8.727,11.875V9
	h14.545v2.875H8.727z"/>
</svg>
