<?xml version="1.0" encoding="utf-8"?>
<!-- Generator: Adobe Illustrator 17.1.0, SVG Export Plug-In . SVG Version: 6.00 Build 0)  -->
<!DOCTYPE svg PUBLIC "-//W3C//DTD SVG 1.1//EN" "http://www.w3.org/Graphics/SVG/1.1/DTD/svg11.dtd">
<svg version="1.1" id="Layer_1" xmlns="http://www.w3.org/2000/svg" xmlns:xlink="http://www.w3.org/1999/xlink" x="0px" y="0px"
	 viewBox="0 0 64 64.01" enable-background="new 0 0 64 64.01" xml:space="preserve">
<g>
	<path fill-rule="evenodd" clip-rule="evenodd" fill="#FFFFFF" d="M16.894,64.01l-2.449-2.186l-4.099-17.065
		c1.739,0.943,3.762,1.547,6.051,1.76l2.928,12.141h3.336l-1.614-11.288c1.366,0.036,2.679-0.071,3.993-0.303l1.65,11.591h3.017
		V45.807c1.331-0.444,2.662-0.942,3.993-1.422V58.66h3.336l2.289-16.052c1.331-0.302,2.697-0.533,4.117-0.587L41.064,58.66h3.248
		l3.851-16.088c1.988,0.195,3.904,0.285,5.625,0.089l-4.596,19.162l-2.449,2.186H16.894z M9.37,41.719
		C3.176,38.555,0,32.173,0,25.17C0,10.754,14.836,0,31.961,0c15.953,0,30.061,9.367,31.765,22.503l0.159,2.435
		c0.479,5.511-0.515,9.599-3.318,12.158c-2.697,2.488-6.407,2.862-9.672,2.773c-6.69-0.177-13.575-2.133-17.143-0.356
		C23.921,44.439,15.51,44.847,9.37,41.719z M31.357,34.751c5.448-2.72,13.203-0.373,19.68-0.195c2.999,0.07,4.862-0.391,5.945-1.387
		c0.994-0.906,2.022-2.933,1.597-7.767V25.17c0-6.63-4.65-12.869-11.961-16.531c-0.177,1.315-0.532,2.862-1.064,4.693
		c-5.75-0.995-7.436-3.626-6.531-7.288c-2.236-0.463-4.596-0.711-7.063-0.711c-15.297,0-26.637,9.509-26.637,19.837
		c0,5.422,2.396,9.724,6.46,11.786C15.883,39.053,22.414,39.231,31.357,34.751z M14.676,32.014
		c-1.881-4.532-0.638-7.821,5.963-8.959C23.797,33.791,20.603,34.965,14.676,32.014z M43.673,18.149
		c6.583,1.137,7.825,4.426,5.962,8.959C43.69,30.058,40.496,28.885,43.673,18.149z M22.981,10.771
		c5.927-2.968,9.121-1.778,5.962,8.959C22.342,18.575,21.1,15.305,22.981,10.771z"/>
</g>
</svg>
