<?xml version="1.0" encoding="utf-8"?>
<!-- Generator: Adobe Illustrator 17.1.0, SVG Export Plug-In . SVG Version: 6.00 Build 0)  -->
<!DOCTYPE svg PUBLIC "-//W3C//DTD SVG 1.1//EN" "http://www.w3.org/Graphics/SVG/1.1/DTD/svg11.dtd">
<svg version="1.1" id="Layer_1" xmlns="http://www.w3.org/2000/svg" xmlns:xlink="http://www.w3.org/1999/xlink" x="0px" y="0px"
	 viewBox="0 0 256.5 76.6" enable-background="new 0 0 256.5 76.6" xml:space="preserve">
<g>
	<g>
		<path fill="#BE3126" d="M45.4,47.5V2h7.1c4.1,0,7.2,0.3,9.1,0.8c2.7,0.7,4.9,2.1,6.5,4c1.6,2,2.4,4.3,2.4,6.9
			c0,1.7-0.4,3.3-1.1,4.7c-0.7,1.4-1.9,2.7-3.6,4c2.8,1.3,4.8,2.9,6.1,4.9c1.3,1.9,1.9,4.2,1.9,6.9c0,2.6-0.7,4.9-2,7
			s-3,3.7-5.1,4.7c-2.1,1-5,1.6-8.6,1.6H45.4z M54.1,10.3v9.6H56c2.1,0,3.7-0.4,4.7-1.3c1-0.9,1.5-2.1,1.5-3.6
			c0-1.4-0.5-2.5-1.5-3.4c-1-0.8-2.5-1.3-4.4-1.3H54.1z M54.1,27.6v11.7h2.2c3.6,0,6-0.5,7.3-1.4c1.3-0.9,1.9-2.2,1.9-4
			c0-2-0.7-3.5-2.2-4.6c-1.5-1.1-3.9-1.7-7.3-1.7H54.1z"/>
		<path fill="#BE3126" d="M76.4,13.8H85V30c0,3.2,0.2,5.3,0.7,6.6c0.4,1.2,1.1,2.2,2.1,2.9c1,0.7,2.1,1,3.5,1s2.6-0.3,3.6-1
			c1-0.7,1.7-1.7,2.2-3c0.4-1,0.5-3,0.5-6.2V13.8h8.4v14.2c0,5.9-0.5,9.9-1.4,12.1c-1.1,2.6-2.8,4.7-5,6.1c-2.2,1.4-5,2.1-8.4,2.1
			c-3.7,0-6.7-0.8-8.9-2.5c-2.3-1.6-3.9-3.9-4.8-6.9c-0.7-2-1-5.7-1-11.1V13.8z"/>
		<path fill="#BE3126" d="M130.3,18.5l-5.2,5.2c-2.1-2.1-4-3.2-5.8-3.2c-0.9,0-1.7,0.2-2.2,0.6s-0.8,0.9-0.8,1.5
			c0,0.5,0.2,0.9,0.5,1.3c0.3,0.4,1.2,0.9,2.5,1.6l3.1,1.5c3.3,1.6,5.5,3.2,6.7,4.9c1.2,1.7,1.8,3.6,1.8,5.9c0,3-1.1,5.5-3.3,7.5
			c-2.2,2-5.1,3-8.8,3c-4.9,0-8.8-1.9-11.7-5.7l5.2-5.7c1,1.2,2.1,2.1,3.5,2.8s2.5,1.1,3.5,1.1c1.1,0,2-0.3,2.7-0.8
			c0.7-0.5,1-1.2,1-1.9c0-1.3-1.2-2.6-3.7-3.8l-2.8-1.4c-5.4-2.7-8.2-6.2-8.2-10.3c0-2.7,1-4.9,3.1-6.8c2-1.9,4.7-2.8,7.9-2.8
			c2.2,0,4.2,0.5,6.2,1.4C127.3,15.4,128.9,16.8,130.3,18.5z"/>
		<path fill="#BE3126" d="M136.1,0c1.5,0,2.7,0.5,3.8,1.6c1.1,1.1,1.6,2.4,1.6,3.9c0,1.5-0.5,2.8-1.6,3.8c-1,1.1-2.3,1.6-3.8,1.6
			c-1.5,0-2.8-0.5-3.8-1.6c-1.1-1.1-1.6-2.4-1.6-3.9c0-1.5,0.5-2.8,1.6-3.8C133.4,0.5,134.6,0,136.1,0z M131.9,13.8h8.4v33.6h-8.4
			V13.8z"/>
		<path fill="#BE3126" d="M143.2,13.8h8.4v3.4c1.9-1.6,3.6-2.7,5.2-3.4c1.6-0.6,3.1-0.9,4.8-0.9c3.3,0,6.2,1.2,8.5,3.5
			c2,2,2.9,4.9,2.9,8.8v22.2h-8.3V32.7c0-4-0.2-6.7-0.5-8c-0.4-1.3-1-2.3-1.9-3c-0.9-0.7-2-1-3.3-1c-1.7,0-3.2,0.6-4.4,1.7
			c-1.2,1.1-2.1,2.7-2.5,4.7c-0.2,1-0.4,3.3-0.4,6.8v13.5h-8.4V13.8z"/>
		<path fill="#BE3126" d="M210.2,33.1h-27.1c0.4,2.4,1.4,4.3,3.1,5.7c1.7,1.4,3.9,2.1,6.5,2.1c3.2,0,5.9-1.1,8.1-3.3l7.1,3.3
			c-1.8,2.5-3.9,4.4-6.4,5.6c-2.5,1.2-5.4,1.8-8.8,1.8c-5.3,0-9.6-1.7-12.9-5c-3.3-3.3-5-7.5-5-12.5c0-5.1,1.7-9.4,5-12.8
			c3.3-3.4,7.5-5.1,12.4-5.1c5.3,0,9.6,1.7,12.9,5.1c3.3,3.4,5,7.9,5,13.4L210.2,33.1z M201.7,26.5c-0.6-1.9-1.7-3.4-3.3-4.6
			c-1.6-1.2-3.5-1.8-5.7-1.8c-2.4,0-4.4,0.7-6.2,2c-1.1,0.8-2.1,2.3-3.1,4.4H201.7z"/>
		<path fill="#BE3126" d="M232.8,18.5l-5.2,5.2c-2.1-2.1-4-3.2-5.8-3.2c-0.9,0-1.7,0.2-2.2,0.6s-0.8,0.9-0.8,1.5
			c0,0.5,0.2,0.9,0.5,1.3c0.3,0.4,1.2,0.9,2.5,1.6l3.1,1.5c3.3,1.6,5.5,3.2,6.7,4.9c1.2,1.7,1.8,3.6,1.8,5.9c0,3-1.1,5.5-3.3,7.5
			c-2.2,2-5.1,3-8.8,3c-4.9,0-8.8-1.9-11.7-5.7l5.2-5.7c1,1.2,2.1,2.1,3.5,2.8s2.5,1.1,3.5,1.1c1.1,0,2-0.3,2.7-0.8
			c0.7-0.5,1-1.2,1-1.9c0-1.3-1.2-2.6-3.7-3.8l-2.8-1.4c-5.4-2.7-8.2-6.2-8.2-10.3c0-2.7,1-4.9,3.1-6.8c2-1.9,4.7-2.8,7.9-2.8
			c2.2,0,4.2,0.5,6.2,1.4C229.9,15.4,231.5,16.8,232.8,18.5z"/>
		<path fill="#BE3126" d="M255.9,18.5l-5.2,5.2c-2.1-2.1-4-3.2-5.8-3.2c-0.9,0-1.7,0.2-2.2,0.6s-0.8,0.9-0.8,1.5
			c0,0.5,0.2,0.9,0.5,1.3c0.3,0.4,1.2,0.9,2.5,1.6l3.1,1.5c3.3,1.6,5.5,3.2,6.7,4.9c1.2,1.7,1.8,3.6,1.8,5.9c0,3-1.1,5.5-3.3,7.5
			c-2.2,2-5.1,3-8.8,3c-4.9,0-8.8-1.9-11.7-5.7l5.2-5.7c1,1.2,2.1,2.1,3.5,2.8s2.5,1.1,3.5,1.1c1.1,0,2-0.3,2.7-0.8
			c0.7-0.5,1-1.2,1-1.9c0-1.3-1.2-2.6-3.7-3.8l-2.8-1.4c-5.4-2.7-8.2-6.2-8.2-10.3c0-2.7,1-4.9,3.1-6.8c2-1.9,4.7-2.8,7.9-2.8
			c2.2,0,4.2,0.5,6.2,1.4C253,15.4,254.6,16.8,255.9,18.5z"/>
	</g>
</g>
<g>
	<g>
		<path fill="#BE3126" d="M51.6,61.8c1.8,0,3.3,0.7,4.5,2c1.1,1.2,1.6,2.6,1.6,4.3c0,1.7-0.6,3.1-1.7,4.3c-1.2,1.2-2.6,1.9-4.4,1.9
			c-1.8,0-3.3-0.6-4.4-1.9c-1.1-1.2-1.7-2.7-1.7-4.3c0-1.6,0.5-3.1,1.6-4.3C48.3,62.5,49.8,61.8,51.6,61.8z M51.6,63.3
			c-1.3,0-2.4,0.5-3.3,1.4S47,66.8,47,68.1c0,0.9,0.2,1.7,0.6,2.4c0.4,0.7,1,1.3,1.7,1.7c0.7,0.4,1.5,0.6,2.3,0.6s1.6-0.2,2.3-0.6
			c0.7-0.4,1.3-1,1.7-1.7c0.4-0.7,0.6-1.5,0.6-2.4c0-1.3-0.5-2.5-1.4-3.4C54,63.8,52.9,63.3,51.6,63.3z"/>
		<path fill="#BE3126" d="M65.5,57.6v1.5c-0.6-0.2-1-0.4-1.4-0.4c-0.3,0-0.5,0.1-0.7,0.2c-0.2,0.1-0.3,0.3-0.4,0.4
			c-0.1,0.2-0.1,0.6-0.1,1.2l0,1.6h2.5v1.3h-2.5l0,10.5h-1.5V63.4h-1.6v-1.3h1.6v-1.8c0-0.8,0.1-1.5,0.2-1.8
			c0.2-0.4,0.4-0.7,0.8-0.9s0.8-0.3,1.4-0.3C64.2,57.3,64.8,57.4,65.5,57.6z"/>
		<path fill="#BE3126" d="M72.4,71l1.4-0.8c1,1.8,2.1,2.6,3.3,2.6c0.5,0,1-0.1,1.5-0.4s0.8-0.6,1.1-1s0.4-0.9,0.4-1.3
			c0-0.5-0.2-1.1-0.5-1.6c-0.5-0.7-1.4-1.6-2.7-2.6c-1.3-1-2.2-1.7-2.5-2.2c-0.6-0.8-0.8-1.6-0.8-2.4c0-0.7,0.2-1.3,0.5-1.9
			s0.8-1,1.4-1.4c0.6-0.3,1.3-0.5,2-0.5c0.8,0,1.5,0.2,2.1,0.6s1.3,1.1,2.1,2.1l-1.3,1c-0.6-0.8-1.1-1.3-1.5-1.6
			c-0.4-0.3-0.9-0.4-1.4-0.4c-0.6,0-1.2,0.2-1.6,0.6c-0.4,0.4-0.6,0.9-0.6,1.4c0,0.3,0.1,0.7,0.2,1c0.1,0.3,0.4,0.7,0.8,1.1
			c0.2,0.2,0.9,0.7,2.1,1.6c1.4,1,2.3,1.9,2.8,2.7s0.8,1.6,0.8,2.4c0,1.2-0.4,2.2-1.3,3s-2,1.3-3.2,1.3c-1,0-1.9-0.3-2.6-0.8
			C73.7,73.1,73,72.2,72.4,71z"/>
		<path fill="#BE3126" d="M90.4,61.8c1.8,0,3.3,0.7,4.5,2c1.1,1.2,1.6,2.6,1.6,4.3c0,1.7-0.6,3.1-1.7,4.3c-1.2,1.2-2.6,1.9-4.4,1.9
			c-1.8,0-3.3-0.6-4.4-1.9c-1.1-1.2-1.7-2.7-1.7-4.3c0-1.6,0.5-3.1,1.6-4.3C87.1,62.5,88.6,61.8,90.4,61.8z M90.4,63.3
			c-1.3,0-2.4,0.5-3.3,1.4s-1.4,2.1-1.4,3.4c0,0.9,0.2,1.7,0.6,2.4c0.4,0.7,1,1.3,1.7,1.7c0.7,0.4,1.5,0.6,2.3,0.6s1.6-0.2,2.3-0.6
			c0.7-0.4,1.3-1,1.7-1.7c0.4-0.7,0.6-1.5,0.6-2.4c0-1.3-0.5-2.5-1.4-3.4C92.8,63.8,91.7,63.3,90.4,63.3z"/>
		<path fill="#BE3126" d="M104.3,57.6v1.5c-0.6-0.2-1-0.4-1.4-0.4c-0.3,0-0.5,0.1-0.7,0.2c-0.2,0.1-0.3,0.3-0.4,0.4
			c-0.1,0.2-0.1,0.6-0.1,1.2l0,1.6h2.5v1.3h-2.5l0,10.5h-1.5V63.4h-1.6v-1.3h1.6v-1.8c0-0.8,0.1-1.5,0.2-1.8
			c0.2-0.4,0.4-0.7,0.8-0.9s0.8-0.3,1.4-0.3C103,57.3,103.6,57.4,104.3,57.6z"/>
		<path fill="#BE3126" d="M107.7,57.7h1.5v4.4h2.4v1.3h-2.4V74h-1.5V63.4h-2.1v-1.3h2.1V57.7z"/>
		<path fill="#BE3126" d="M112.3,62.1h1.6l3.6,8.6l3.8-8.6h0.3l3.8,8.6l3.7-8.6h1.6L125.5,74h-0.3l-3.8-8.5l-3.8,8.5h-0.3
			L112.3,62.1z"/>
		<path fill="#BE3126" d="M144.2,62.1V74h-1.5v-2c-0.6,0.8-1.4,1.4-2.1,1.7c-0.8,0.4-1.7,0.6-2.6,0.6c-1.7,0-3.1-0.6-4.3-1.8
			c-1.2-1.2-1.8-2.7-1.8-4.4c0-1.7,0.6-3.2,1.8-4.4c1.2-1.2,2.6-1.8,4.3-1.8c1,0,1.8,0.2,2.6,0.6s1.5,1,2.1,1.9v-2.2H144.2z
			 M138.1,63.3c-0.8,0-1.6,0.2-2.3,0.6c-0.7,0.4-1.3,1-1.7,1.8c-0.4,0.8-0.6,1.5-0.6,2.4c0,0.8,0.2,1.6,0.6,2.4s1,1.4,1.7,1.8
			c0.7,0.4,1.5,0.6,2.3,0.6c0.8,0,1.6-0.2,2.4-0.6s1.3-1,1.7-1.7c0.4-0.7,0.6-1.5,0.6-2.4c0-1.4-0.5-2.5-1.4-3.4
			C140.5,63.8,139.4,63.3,138.1,63.3z"/>
		<path fill="#BE3126" d="M147,62.1h1.6v1.7c0.5-0.7,1-1.2,1.5-1.5c0.5-0.3,1-0.5,1.6-0.5c0.4,0,0.9,0.1,1.3,0.4l-0.8,1.3
			c-0.3-0.1-0.6-0.2-0.8-0.2c-0.5,0-1,0.2-1.5,0.6c-0.5,0.4-0.8,1.1-1.1,1.9c-0.2,0.7-0.3,2-0.3,4.1v4H147V62.1z"/>
		<path fill="#BE3126" d="M164.3,70l1.3,0.7c-0.4,0.8-0.9,1.5-1.5,2c-0.6,0.5-1.2,0.9-1.9,1.2c-0.7,0.3-1.5,0.4-2.3,0.4
			c-1.9,0-3.4-0.6-4.5-1.9c-1.1-1.3-1.6-2.7-1.6-4.3c0-1.5,0.5-2.8,1.4-4c1.2-1.5,2.7-2.2,4.7-2.2c2,0,3.6,0.8,4.8,2.3
			c0.9,1.1,1.3,2.4,1.3,4h-10.6c0,1.4,0.5,2.5,1.3,3.4c0.8,0.9,1.9,1.3,3.1,1.3c0.6,0,1.2-0.1,1.8-0.3c0.6-0.2,1.1-0.5,1.5-0.8
			C163.4,71.4,163.8,70.8,164.3,70z M164.3,66.8c-0.2-0.8-0.5-1.5-0.9-1.9s-0.9-0.9-1.5-1.2c-0.6-0.3-1.3-0.4-2-0.4
			c-1.2,0-2.2,0.4-3,1.1c-0.6,0.5-1.1,1.4-1.4,2.4H164.3z"/>
	</g>
</g>
<polygon fill="#BE3126" points="256.5,58.2 183.3,58.2 169.1,76.6 256.5,76.6 "/>
<g>
	<path fill="#FFFFFF" d="M220.5,61.3h2.5v8.4c0,0.7,0.1,1.2,0.2,1.5s0.3,0.5,0.6,0.7c0.3,0.2,0.6,0.3,1,0.3c0.4,0,0.8-0.1,1.1-0.3
		c0.3-0.2,0.5-0.5,0.7-0.8c0.1-0.3,0.2-0.9,0.2-1.8v-8.1h2.5V69c0,1.3-0.1,2.2-0.2,2.7s-0.4,1-0.8,1.5c-0.4,0.5-0.9,0.8-1.4,1
		c-0.5,0.2-1.2,0.3-1.9,0.3c-0.9,0-1.8-0.2-2.4-0.6c-0.7-0.4-1.2-1-1.5-1.6s-0.4-1.7-0.4-3.3V61.3z"/>
	<path fill="#FFFFFF" d="M238.9,63.1l-1.8,1.6c-0.6-0.9-1.3-1.3-2-1.3c-0.3,0-0.6,0.1-0.8,0.3c-0.2,0.2-0.3,0.4-0.3,0.6
		s0.1,0.4,0.2,0.6c0.2,0.3,0.8,0.8,1.8,1.7c0.9,0.8,1.5,1.3,1.7,1.5c0.5,0.5,0.9,1,1.1,1.4c0.2,0.5,0.3,1,0.3,1.5
		c0,1.1-0.4,1.9-1.1,2.6s-1.7,1-2.9,1c-0.9,0-1.7-0.2-2.4-0.7c-0.7-0.5-1.3-1.2-1.8-2.1l2.1-1.2c0.6,1.1,1.3,1.7,2.1,1.7
		c0.4,0,0.8-0.1,1.1-0.4c0.3-0.2,0.4-0.5,0.4-0.9c0-0.3-0.1-0.6-0.3-0.9c-0.2-0.3-0.7-0.7-1.4-1.3c-1.4-1.1-2.3-2-2.7-2.7
		c-0.4-0.6-0.6-1.2-0.6-1.9c0-0.9,0.3-1.7,1-2.3c0.7-0.6,1.5-1,2.5-1c0.6,0,1.3,0.1,1.8,0.4S238.2,62.3,238.9,63.1z"/>
	<path fill="#FFFFFF" d="M245.4,61.3h2.5l5,12.9h-2.6l-1-2.7h-5.3l-1.1,2.7h-2.6L245.4,61.3z M246.7,64.8l-1.7,4.4h3.5L246.7,64.8z"
		/>
</g>
<polygon fill="#F05D24" points="0,47.5 8.4,47.5 8.4,63.5 21,47.5 45.4,47.5 45.4,2 0,2 "/>
<polygon fill="#F37422" points="18.9,2 15,12.1 45.4,12.1 45.4,2 "/>
<polygon fill="#F8AF96" points="23.4,25.8 27.9,35.6 45.4,28.2 45.4,16.3 30.4,25.6 "/>
<polygon fill="#F16443" points="15,12.1 30.4,25.6 45.4,16.3 45.4,12.1 "/>
<g>
	<g>
		<polygon fill="#F79631" points="32.8,47.5 45.4,47.5 45.4,28.2 27.9,35.6 		"/>
	</g>
</g>
<polygon fill="#F16443" points="15,33.6 0,32.1 0,47.5 23.8,37.4 19.3,27.6 "/>
<polygon fill="#ED3325" points="15,12.1 0,19.1 0,32.1 15,33.6 "/>
<polygon fill="#BE3126" points="18.9,2 0,2 0,19.1 15,12.1 "/>
<polygon fill-rule="evenodd" clip-rule="evenodd" fill="#FFFFFF" points="23.8,37.4 19.3,27.6 15,33.6 15,12.1 30.4,25.6 23.4,25.8 
	27.9,35.6 "/>
<rect x="38.9" y="5.3" fill="#FFFFFF" width="3.3" height="3.3"/>
<rect x="33.5" y="5.3" fill="#FFFFFF" width="3.3" height="3.3"/>
<rect x="28.1" y="5.3" fill="#FFFFFF" width="3.3" height="3.3"/>
</svg>
