<?xml version="1.0" encoding="UTF-8" standalone="no"?>
<!DOCTYPE svg PUBLIC "-//W3C//DTD SVG 1.1//EN" "http://www.w3.org/Graphics/SVG/1.1/DTD/svg11.dtd">
<svg width="100%" height="100%" viewBox="0 0 257 77" version="1.1" xmlns="http://www.w3.org/2000/svg" xmlns:xlink="http://www.w3.org/1999/xlink" xml:space="preserve" xmlns:serif="http://www.serif.com/" style="fill-rule:evenodd;clip-rule:evenodd;stroke-linejoin:round;stroke-miterlimit:2;">
    <g>
        <g>
            <path d="M45.4,47.5L45.4,2L52.5,2C56.6,2 59.7,2.3 61.6,2.8C64.3,3.5 66.5,4.9 68.1,6.8C69.7,8.8 70.5,11.1 70.5,13.7C70.5,15.4 70.1,17 69.4,18.4C68.7,19.8 67.5,21.1 65.8,22.4C68.6,23.7 70.6,25.3 71.9,27.3C73.2,29.2 73.8,31.5 73.8,34.2C73.8,36.8 73.1,39.1 71.8,41.2C70.5,43.3 68.8,44.9 66.7,45.9C64.6,46.9 61.7,47.5 58.1,47.5L45.4,47.5ZM54.1,10.3L54.1,19.9L56,19.9C58.1,19.9 59.7,19.5 60.7,18.6C61.7,17.7 62.2,16.5 62.2,15C62.2,13.6 61.7,12.5 60.7,11.6C59.7,10.8 58.2,10.3 56.3,10.3L54.1,10.3ZM54.1,27.6L54.1,39.3L56.3,39.3C59.9,39.3 62.3,38.8 63.6,37.9C64.9,37 65.5,35.7 65.5,33.9C65.5,31.9 64.8,30.4 63.3,29.3C61.8,28.2 59.4,27.6 56,27.6L54.1,27.6Z" style="fill:rgb(190,49,38);fill-rule:nonzero;"/>
            <path d="M76.4,13.8L85,13.8L85,30C85,33.2 85.2,35.3 85.7,36.6C86.1,37.8 86.8,38.8 87.8,39.5C88.8,40.2 89.9,40.5 91.3,40.5C92.7,40.5 93.9,40.2 94.9,39.5C95.9,38.8 96.6,37.8 97.1,36.5C97.5,35.5 97.6,33.5 97.6,30.3L97.6,13.8L106,13.8L106,28C106,33.9 105.5,37.9 104.6,40.1C103.5,42.7 101.8,44.8 99.6,46.2C97.4,47.6 94.6,48.3 91.2,48.3C87.5,48.3 84.5,47.5 82.3,45.8C80,44.2 78.4,41.9 77.5,38.9C76.8,36.9 76.5,33.2 76.5,27.8L76.5,13.8L76.4,13.8Z" style="fill:rgb(190,49,38);fill-rule:nonzero;"/>
            <path d="M130.3,18.5L125.1,23.7C123,21.6 121.1,20.5 119.3,20.5C118.4,20.5 117.6,20.7 117.1,21.1C116.6,21.5 116.3,22 116.3,22.6C116.3,23.1 116.5,23.5 116.8,23.9C117.1,24.3 118,24.8 119.3,25.5L122.4,27C125.7,28.6 127.9,30.2 129.1,31.9C130.3,33.6 130.9,35.5 130.9,37.8C130.9,40.8 129.8,43.3 127.6,45.3C125.4,47.3 122.5,48.3 118.8,48.3C113.9,48.3 110,46.4 107.1,42.6L112.3,36.9C113.3,38.1 114.4,39 115.8,39.7C117.2,40.4 118.3,40.8 119.3,40.8C120.4,40.8 121.3,40.5 122,40C122.7,39.5 123,38.8 123,38.1C123,36.8 121.8,35.5 119.3,34.3L116.5,32.9C111.1,30.2 108.3,26.7 108.3,22.6C108.3,19.9 109.3,17.7 111.4,15.8C113.4,13.9 116.1,13 119.3,13C121.5,13 123.5,13.5 125.5,14.4C127.3,15.4 128.9,16.8 130.3,18.5Z" style="fill:rgb(190,49,38);fill-rule:nonzero;"/>
            <path d="M136.1,0C137.6,0 138.8,0.5 139.9,1.6C141,2.7 141.5,4 141.5,5.5C141.5,7 141,8.3 139.9,9.3C138.9,10.4 137.6,10.9 136.1,10.9C134.6,10.9 133.3,10.4 132.3,9.3C131.2,8.2 130.7,6.9 130.7,5.4C130.7,3.9 131.2,2.6 132.3,1.6C133.4,0.5 134.6,0 136.1,0ZM131.9,13.8L140.3,13.8L140.3,47.4L131.9,47.4L131.9,13.8Z" style="fill:rgb(190,49,38);fill-rule:nonzero;"/>
            <path d="M143.2,13.8L151.6,13.8L151.6,17.2C153.5,15.6 155.2,14.5 156.8,13.8C158.4,13.2 159.9,12.9 161.6,12.9C164.9,12.9 167.8,14.1 170.1,16.4C172.1,18.4 173,21.3 173,25.2L173,47.4L164.7,47.4L164.7,32.7C164.7,28.7 164.5,26 164.2,24.7C163.8,23.4 163.2,22.4 162.3,21.7C161.4,21 160.3,20.7 159,20.7C157.3,20.7 155.8,21.3 154.6,22.4C153.4,23.5 152.5,25.1 152.1,27.1C151.9,28.1 151.7,30.4 151.7,33.9L151.7,47.4L143.3,47.4L143.3,13.8L143.2,13.8Z" style="fill:rgb(190,49,38);fill-rule:nonzero;"/>
            <path d="M210.2,33.1L183.1,33.1C183.5,35.5 184.5,37.4 186.2,38.8C187.9,40.2 190.1,40.9 192.7,40.9C195.9,40.9 198.6,39.8 200.8,37.6L207.9,40.9C206.1,43.4 204,45.3 201.5,46.5C199,47.7 196.1,48.3 192.7,48.3C187.4,48.3 183.1,46.6 179.8,43.3C176.5,40 174.8,35.8 174.8,30.8C174.8,25.7 176.5,21.4 179.8,18C183.1,14.6 187.3,12.9 192.2,12.9C197.5,12.9 201.8,14.6 205.1,18C208.4,21.4 210.1,25.9 210.1,31.4L210.2,33.1ZM201.7,26.5C201.1,24.6 200,23.1 198.4,21.9C196.8,20.7 194.9,20.1 192.7,20.1C190.3,20.1 188.3,20.8 186.5,22.1C185.4,22.9 184.4,24.4 183.4,26.5L201.7,26.5Z" style="fill:rgb(190,49,38);fill-rule:nonzero;"/>
            <path d="M232.8,18.5L227.6,23.7C225.5,21.6 223.6,20.5 221.8,20.5C220.9,20.5 220.1,20.7 219.6,21.1C219.1,21.5 218.8,22 218.8,22.6C218.8,23.1 219,23.5 219.3,23.9C219.6,24.3 220.5,24.8 221.8,25.5L224.9,27C228.2,28.6 230.4,30.2 231.6,31.9C232.8,33.6 233.4,35.5 233.4,37.8C233.4,40.8 232.3,43.3 230.1,45.3C227.9,47.3 225,48.3 221.3,48.3C216.4,48.3 212.5,46.4 209.6,42.6L214.8,36.9C215.8,38.1 216.9,39 218.3,39.7C219.7,40.4 220.8,40.8 221.8,40.8C222.9,40.8 223.8,40.5 224.5,40C225.2,39.5 225.5,38.8 225.5,38.1C225.5,36.8 224.3,35.5 221.8,34.3L219,32.9C213.6,30.2 210.8,26.7 210.8,22.6C210.8,19.9 211.8,17.7 213.9,15.8C215.9,13.9 218.6,13 221.8,13C224,13 226,13.5 228,14.4C229.9,15.4 231.5,16.8 232.8,18.5Z" style="fill:rgb(190,49,38);fill-rule:nonzero;"/>
            <path d="M255.9,18.5L250.7,23.7C248.6,21.6 246.7,20.5 244.9,20.5C244,20.5 243.2,20.7 242.7,21.1C242.2,21.5 241.9,22 241.9,22.6C241.9,23.1 242.1,23.5 242.4,23.9C242.7,24.3 243.6,24.8 244.9,25.5L248,27C251.3,28.6 253.5,30.2 254.7,31.9C255.9,33.6 256.5,35.5 256.5,37.8C256.5,40.8 255.4,43.3 253.2,45.3C251,47.3 248.1,48.3 244.4,48.3C239.5,48.3 235.6,46.4 232.7,42.6L237.9,36.9C238.9,38.1 240,39 241.4,39.7C242.8,40.4 243.9,40.8 244.9,40.8C246,40.8 246.9,40.5 247.6,40C248.3,39.5 248.6,38.8 248.6,38.1C248.6,36.8 247.4,35.5 244.9,34.3L242.1,32.9C236.7,30.2 233.9,26.7 233.9,22.6C233.9,19.9 234.9,17.7 237,15.8C239,13.9 241.7,13 244.9,13C247.1,13 249.1,13.5 251.1,14.4C253,15.4 254.6,16.8 255.9,18.5Z" style="fill:rgb(190,49,38);fill-rule:nonzero;"/>
        </g>
    </g>
    <g>
        <g>
            <path d="M51.6,61.8C53.4,61.8 54.9,62.5 56.1,63.8C57.2,65 57.7,66.4 57.7,68.1C57.7,69.8 57.1,71.2 56,72.4C54.8,73.6 53.4,74.3 51.6,74.3C49.8,74.3 48.3,73.7 47.2,72.4C46.1,71.2 45.5,69.7 45.5,68.1C45.5,66.5 46,65 47.1,63.8C48.3,62.5 49.8,61.8 51.6,61.8ZM51.6,63.3C50.3,63.3 49.2,63.8 48.3,64.7C47.4,65.6 47,66.8 47,68.1C47,69 47.2,69.8 47.6,70.5C48,71.2 48.6,71.8 49.3,72.2C50,72.6 50.8,72.8 51.6,72.8C52.4,72.8 53.2,72.6 53.9,72.2C54.6,71.8 55.2,71.2 55.6,70.5C56,69.8 56.2,69 56.2,68.1C56.2,66.8 55.7,65.6 54.8,64.7C54,63.8 52.9,63.3 51.6,63.3Z" style="fill:rgb(190,49,38);fill-rule:nonzero;"/>
            <path d="M65.5,57.6L65.5,59.1C64.9,58.9 64.5,58.7 64.1,58.7C63.8,58.7 63.6,58.8 63.4,58.9C63.2,59 63.1,59.2 63,59.3C62.9,59.5 62.9,59.9 62.9,60.5L62.9,62.1L65.4,62.1L65.4,63.4L62.9,63.4L62.9,73.9L61.4,73.9L61.4,63.4L59.8,63.4L59.8,62.1L61.4,62.1L61.4,60.3C61.4,59.5 61.5,58.8 61.6,58.5C61.8,58.1 62,57.8 62.4,57.6C62.8,57.4 63.2,57.3 63.8,57.3C64.2,57.3 64.8,57.4 65.5,57.6Z" style="fill:rgb(190,49,38);fill-rule:nonzero;"/>
            <path d="M72.4,71L73.8,70.2C74.8,72 75.9,72.8 77.1,72.8C77.6,72.8 78.1,72.7 78.6,72.4C79.1,72.1 79.4,71.8 79.7,71.4C80,71 80.1,70.5 80.1,70.1C80.1,69.6 79.9,69 79.6,68.5C79.1,67.8 78.2,66.9 76.9,65.9C75.6,64.9 74.7,64.2 74.4,63.7C73.8,62.9 73.6,62.1 73.6,61.3C73.6,60.6 73.8,60 74.1,59.4C74.4,58.8 74.9,58.4 75.5,58C76.1,57.7 76.8,57.5 77.5,57.5C78.3,57.5 79,57.7 79.6,58.1C80.2,58.5 80.9,59.2 81.7,60.2L80.4,61.2C79.8,60.4 79.3,59.9 78.9,59.6C78.5,59.3 78,59.2 77.5,59.2C76.9,59.2 76.3,59.4 75.9,59.8C75.5,60.2 75.3,60.7 75.3,61.2C75.3,61.5 75.4,61.9 75.5,62.2C75.6,62.5 75.9,62.9 76.3,63.3C76.5,63.5 77.2,64 78.4,64.9C79.8,65.9 80.7,66.8 81.2,67.6C81.7,68.4 82,69.2 82,70C82,71.2 81.6,72.2 80.7,73C79.8,73.8 78.7,74.3 77.5,74.3C76.5,74.3 75.6,74 74.9,73.5C73.7,73.1 73,72.2 72.4,71Z" style="fill:rgb(190,49,38);fill-rule:nonzero;"/>
            <path d="M90.4,61.8C92.2,61.8 93.7,62.5 94.9,63.8C96,65 96.5,66.4 96.5,68.1C96.5,69.8 95.9,71.2 94.8,72.4C93.6,73.6 92.2,74.3 90.4,74.3C88.6,74.3 87.1,73.7 86,72.4C84.9,71.2 84.3,69.7 84.3,68.1C84.3,66.5 84.8,65 85.9,63.8C87.1,62.5 88.6,61.8 90.4,61.8ZM90.4,63.3C89.1,63.3 88,63.8 87.1,64.7C86.2,65.6 85.7,66.8 85.7,68.1C85.7,69 85.9,69.8 86.3,70.5C86.7,71.2 87.3,71.8 88,72.2C88.7,72.6 89.5,72.8 90.3,72.8C91.1,72.8 91.9,72.6 92.6,72.2C93.3,71.8 93.9,71.2 94.3,70.5C94.7,69.8 94.9,69 94.9,68.1C94.9,66.8 94.4,65.6 93.5,64.7C92.8,63.8 91.7,63.3 90.4,63.3Z" style="fill:rgb(190,49,38);fill-rule:nonzero;"/>
            <path d="M104.3,57.6L104.3,59.1C103.7,58.9 103.3,58.7 102.9,58.7C102.6,58.7 102.4,58.8 102.2,58.9C102,59 101.9,59.2 101.8,59.3C101.7,59.5 101.7,59.9 101.7,60.5L101.7,62.1L104.2,62.1L104.2,63.4L101.7,63.4L101.7,73.9L100.2,73.9L100.2,63.4L98.6,63.4L98.6,62.1L100.2,62.1L100.2,60.3C100.2,59.5 100.3,58.8 100.4,58.5C100.6,58.1 100.8,57.8 101.2,57.6C101.6,57.4 102,57.3 102.6,57.3C103,57.3 103.6,57.4 104.3,57.6Z" style="fill:rgb(190,49,38);fill-rule:nonzero;"/>
            <path d="M107.7,57.7L109.2,57.7L109.2,62.1L111.6,62.1L111.6,63.4L109.2,63.4L109.2,74L107.7,74L107.7,63.4L105.6,63.4L105.6,62.1L107.7,62.1L107.7,57.7Z" style="fill:rgb(190,49,38);fill-rule:nonzero;"/>
            <path d="M112.3,62.1L113.9,62.1L117.5,70.7L121.3,62.1L121.6,62.1L125.4,70.7L129.1,62.1L130.7,62.1L125.5,74L125.2,74L121.4,65.5L117.6,74L117.3,74L112.3,62.1Z" style="fill:rgb(190,49,38);fill-rule:nonzero;"/>
            <path d="M144.2,62.1L144.2,74L142.7,74L142.7,72C142.1,72.8 141.3,73.4 140.6,73.7C139.8,74.1 138.9,74.3 138,74.3C136.3,74.3 134.9,73.7 133.7,72.5C132.5,71.3 131.9,69.8 131.9,68.1C131.9,66.4 132.5,64.9 133.7,63.7C134.9,62.5 136.3,61.9 138,61.9C139,61.9 139.8,62.1 140.6,62.5C141.4,62.9 142.1,63.5 142.7,64.4L142.7,62.2L144.2,62.2L144.2,62.1ZM138.1,63.3C137.3,63.3 136.5,63.5 135.8,63.9C135.1,64.3 134.5,64.9 134.1,65.7C133.7,66.5 133.5,67.2 133.5,68.1C133.5,68.9 133.7,69.7 134.1,70.5C134.5,71.3 135.1,71.9 135.8,72.3C136.5,72.7 137.3,72.9 138.1,72.9C138.9,72.9 139.7,72.7 140.5,72.3C141.3,71.9 141.8,71.3 142.2,70.6C142.6,69.9 142.8,69.1 142.8,68.2C142.8,66.8 142.3,65.7 141.4,64.8C140.5,63.8 139.4,63.3 138.1,63.3Z" style="fill:rgb(190,49,38);fill-rule:nonzero;"/>
            <path d="M147,62.1L148.6,62.1L148.6,63.8C149.1,63.1 149.6,62.6 150.1,62.3C150.6,62 151.1,61.8 151.7,61.8C152.1,61.8 152.6,61.9 153,62.2L152.2,63.5C151.9,63.4 151.6,63.3 151.4,63.3C150.9,63.3 150.4,63.5 149.9,63.9C149.4,64.3 149.1,65 148.8,65.8C148.6,66.5 148.5,67.8 148.5,69.9L148.5,73.9L147,73.9L147,62.1Z" style="fill:rgb(190,49,38);fill-rule:nonzero;"/>
            <path d="M164.3,70L165.6,70.7C165.2,71.5 164.7,72.2 164.1,72.7C163.5,73.2 162.9,73.6 162.2,73.9C161.5,74.2 160.7,74.3 159.9,74.3C158,74.3 156.5,73.7 155.4,72.4C154.3,71.1 153.8,69.7 153.8,68.1C153.8,66.6 154.3,65.3 155.2,64.1C156.4,62.6 157.9,61.9 159.9,61.9C161.9,61.9 163.5,62.7 164.7,64.2C165.6,65.3 166,66.6 166,68.2L155.4,68.2C155.4,69.6 155.9,70.7 156.7,71.6C157.5,72.5 158.6,72.9 159.8,72.9C160.4,72.9 161,72.8 161.6,72.6C162.2,72.4 162.7,72.1 163.1,71.8C163.4,71.4 163.8,70.8 164.3,70ZM164.3,66.8C164.1,66 163.8,65.3 163.4,64.9C163,64.5 162.5,64 161.9,63.7C161.3,63.4 160.6,63.3 159.9,63.3C158.7,63.3 157.7,63.7 156.9,64.4C156.3,64.9 155.8,65.8 155.5,66.8L164.3,66.8Z" style="fill:rgb(190,49,38);fill-rule:nonzero;"/>
        </g>
    </g>
    <path d="M0,47.5L8.4,47.5L8.4,63.5L21,47.5L45.4,47.5L45.4,2L0,2L0,47.5Z" style="fill:rgb(240,93,36);fill-rule:nonzero;"/>
    <path d="M18.9,2L15,12.1L45.4,12.1L45.4,2L18.9,2Z" style="fill:rgb(243,116,34);fill-rule:nonzero;"/>
    <path d="M23.4,25.8L27.9,35.6L45.4,28.2L45.4,16.3L30.4,25.6L23.4,25.8Z" style="fill:rgb(248,175,150);fill-rule:nonzero;"/>
    <path d="M15,12.1L30.4,25.6L45.4,16.3L45.4,12.1L15,12.1Z" style="fill:rgb(241,100,67);fill-rule:nonzero;"/>
    <g>
        <g>
            <path d="M32.8,47.5L45.4,47.5L45.4,28.2L27.9,35.6L32.8,47.5Z" style="fill:rgb(247,150,49);fill-rule:nonzero;"/>
        </g>
    </g>
    <path d="M15,33.6L0,32.1L0,47.5L23.8,37.4L19.3,27.6L15,33.6Z" style="fill:rgb(241,100,67);fill-rule:nonzero;"/>
    <path d="M15,12.1L0,19.1L0,32.1L15,33.6L15,12.1Z" style="fill:rgb(237,51,37);fill-rule:nonzero;"/>
    <path d="M18.9,2L0,2L0,19.1L15,12.1L18.9,2Z" style="fill:rgb(190,49,38);fill-rule:nonzero;"/>
    <path d="M23.8,37.4L19.3,27.6L15,33.6L15,12.1L30.4,25.6L23.4,25.8L27.9,35.6L23.8,37.4Z" style="fill:white;"/>
    <rect x="38.9" y="5.3" width="3.3" height="3.3" style="fill:white;"/>
    <rect x="33.5" y="5.3" width="3.3" height="3.3" style="fill:white;"/>
    <rect x="28.1" y="5.3" width="3.3" height="3.3" style="fill:white;"/>
</svg>
