<?xml version="1.0" encoding="utf-8"?>
<!-- Generator: Adobe Illustrator 18.1.1, SVG Export Plug-In . SVG Version: 6.00 Build 0)  -->
<svg version="1.1" id="Layer_1" xmlns="http://www.w3.org/2000/svg" xmlns:xlink="http://www.w3.org/1999/xlink" x="0px" y="0px"
	 viewBox="0 0 362.3 107.8" enable-background="new 0 0 362.3 107.8" xml:space="preserve">
<g>
	<g>
		<path fill="#BE3126" d="M64.9,67.5V3.8h10c5.8,0,10.1,0.4,12.8,1.1c3.8,1,6.9,2.9,9.1,5.6c2.3,2.7,3.4,6,3.4,9.7
			c0,2.4-0.5,4.6-1.5,6.6c-1,2-2.7,3.8-5,5.6c3.9,1.8,6.7,4.1,8.5,6.8c1.8,2.7,2.7,6,2.7,9.7c0,3.6-0.9,6.9-2.8,9.8
			c-1.9,2.9-4.2,5.2-7.2,6.6c-2.9,1.5-7,2.2-12.1,2.2H64.9z M77,15.3v13.4h2.7c3,0,5.2-0.6,6.6-1.9s2.2-2.9,2.2-5.1
			c0-2-0.7-3.6-2-4.7c-1.4-1.2-3.4-1.8-6.2-1.8H77z M77,39.6V56h3c5,0,8.4-0.6,10.2-1.9c1.8-1.3,2.6-3.1,2.6-5.6
			c0-2.7-1-4.9-3.1-6.5s-5.5-2.4-10.3-2.4H77z"/>
		<path fill="#BE3126" d="M108.4,20.4h12v22.7c0,4.4,0.3,7.5,0.9,9.2s1.6,3.1,2.9,4c1.3,1,3,1.4,5,1.4c2,0,3.6-0.5,5-1.4
			s2.4-2.3,3.1-4.1c0.5-1.4,0.7-4.3,0.7-8.7V20.4h11.8v20c0,8.2-0.7,13.9-2,16.9c-1.6,3.7-3.9,6.5-7,8.5c-3.1,2-7,3-11.8,3
			c-5.2,0-9.4-1.2-12.6-3.5c-3.2-2.3-5.4-5.5-6.7-9.7c-0.9-2.9-1.4-8.1-1.4-15.6V20.4z"/>
		<path fill="#BE3126" d="M184,27l-7.3,7.3c-3-2.9-5.7-4.4-8.1-4.4c-1.3,0-2.4,0.3-3.1,0.8s-1.1,1.3-1.1,2.1c0,0.6,0.2,1.2,0.7,1.8
			c0.5,0.5,1.7,1.3,3.5,2.2l4.3,2.2c4.6,2.3,7.7,4.6,9.4,6.9c1.7,2.3,2.6,5.1,2.6,8.2c0,4.2-1.5,7.7-4.6,10.5
			c-3.1,2.8-7.2,4.2-12.4,4.2c-6.9,0-12.4-2.7-16.5-8.1l7.3-7.9c1.4,1.6,3,2.9,4.9,3.9c1.9,1,3.5,1.5,5,1.5c1.6,0,2.8-0.4,3.8-1.1
			c1-0.8,1.4-1.6,1.4-2.6c0-1.8-1.7-3.6-5.2-5.3l-4-2c-7.6-3.8-11.4-8.7-11.4-14.4c0-3.7,1.4-6.9,4.3-9.6c2.9-2.6,6.6-4,11-4
			c3.1,0,5.9,0.7,8.7,2S182.1,24.4,184,27z"/>
		<path fill="#BE3126" d="M192.1,0.9c2.1,0,3.9,0.8,5.3,2.3c1.5,1.5,2.2,3.3,2.2,5.5c0,2.1-0.7,3.9-2.2,5.4
			c-1.5,1.5-3.2,2.2-5.3,2.2c-2.1,0-3.9-0.8-5.4-2.3s-2.2-3.4-2.2-5.5c0-2.1,0.7-3.9,2.2-5.3C188.3,1.7,190,0.9,192.1,0.9z
			 M186.2,20.4H198v47.2h-11.8V20.4z"/>
		<path fill="#BE3126" d="M202.1,20.4H214v4.8c2.7-2.3,5.1-3.8,7.3-4.7c2.2-0.9,4.4-1.3,6.7-1.3c4.7,0,8.6,1.6,11.9,4.9
			c2.7,2.8,4.1,6.9,4.1,12.3v31.2h-11.7V46.9c0-5.6-0.3-9.4-0.8-11.2s-1.4-3.3-2.6-4.2c-1.3-1-2.8-1.5-4.6-1.5
			c-2.4,0-4.4,0.8-6.2,2.4c-1.7,1.6-2.9,3.8-3.6,6.6c-0.3,1.5-0.5,4.7-0.5,9.6v18.9h-11.8V20.4z"/>
		<path fill="#BE3126" d="M296,47.4h-38c0.5,3.4,2,6,4.4,8c2.4,2,5.4,3,9.1,3c4.4,0,8.2-1.5,11.4-4.6l10,4.7
			c-2.5,3.5-5.5,6.1-8.9,7.8c-3.5,1.7-7.6,2.5-12.4,2.5c-7.4,0-13.4-2.3-18.1-7c-4.7-4.7-7-10.5-7-17.5c0-7.2,2.3-13.2,7-17.9
			c4.6-4.8,10.5-7.1,17.5-7.1c7.4,0,13.5,2.4,18.1,7.1c4.7,4.8,7,11,7,18.8L296,47.4z M284.2,38.1c-0.8-2.6-2.3-4.8-4.6-6.4
			c-2.3-1.6-5-2.5-8-2.5c-3.3,0-6.2,0.9-8.7,2.8c-1.6,1.2-3,3.2-4.3,6.1H284.2z"/>
		<path fill="#BE3126" d="M327.8,27l-7.3,7.3c-3-2.9-5.7-4.4-8.1-4.4c-1.3,0-2.4,0.3-3.1,0.8s-1.1,1.3-1.1,2.1
			c0,0.6,0.2,1.2,0.7,1.8c0.5,0.5,1.7,1.3,3.5,2.2l4.3,2.2c4.6,2.3,7.7,4.6,9.4,6.9c1.7,2.3,2.6,5.1,2.6,8.2c0,4.2-1.5,7.7-4.6,10.5
			c-3.1,2.8-7.2,4.2-12.4,4.2c-6.9,0-12.4-2.7-16.5-8.1l7.3-7.9c1.4,1.6,3,2.9,4.9,3.9c1.9,1,3.5,1.5,5,1.5c1.6,0,2.8-0.4,3.8-1.1
			c1-0.8,1.4-1.6,1.4-2.6c0-1.8-1.7-3.6-5.2-5.3l-4-2c-7.6-3.8-11.4-8.7-11.4-14.4c0-3.7,1.4-6.9,4.3-9.6c2.9-2.6,6.6-4,11-4
			c3.1,0,5.9,0.7,8.7,2S326,24.4,327.8,27z"/>
		<path fill="#BE3126" d="M360.2,27l-7.3,7.3c-3-2.9-5.7-4.4-8.1-4.4c-1.3,0-2.4,0.3-3.1,0.8s-1.1,1.3-1.1,2.1
			c0,0.6,0.2,1.2,0.7,1.8c0.5,0.5,1.7,1.3,3.5,2.2l4.3,2.2c4.6,2.3,7.7,4.6,9.4,6.9c1.7,2.3,2.6,5.1,2.6,8.2c0,4.2-1.5,7.7-4.6,10.5
			c-3.1,2.8-7.2,4.2-12.4,4.2c-6.9,0-12.4-2.7-16.5-8.1l7.3-7.9c1.4,1.6,3,2.9,4.9,3.9c1.9,1,3.5,1.5,5,1.5c1.6,0,2.8-0.4,3.8-1.1
			c1-0.8,1.4-1.6,1.4-2.6c0-1.8-1.7-3.6-5.2-5.3l-4-2c-7.6-3.8-11.4-8.7-11.4-14.4c0-3.7,1.4-6.9,4.3-9.6c2.9-2.6,6.6-4,11-4
			c3.1,0,5.9,0.7,8.7,2S358.4,24.4,360.2,27z"/>
	</g>
</g>
<polygon fill="#F05D24" points="1.2,67.5 13,67.5 13,90 30.6,67.5 64.9,67.5 64.9,3.8 1.2,3.8 "/>
<g>
	<g>
		<path fill="#BE3126" d="M73.6,87.7c2.6,0,4.7,0.9,6.4,2.8c1.5,1.7,2.3,3.7,2.3,6c0,2.3-0.8,4.3-2.4,6.1s-3.7,2.6-6.2,2.6
			c-2.5,0-4.6-0.9-6.2-2.6c-1.6-1.7-2.4-3.8-2.4-6.1c0-2.3,0.8-4.3,2.3-6C68.9,88.6,71.1,87.7,73.6,87.7z M73.6,89.8
			c-1.8,0-3.3,0.7-4.6,2c-1.3,1.3-1.9,2.9-1.9,4.8c0,1.2,0.3,2.3,0.9,3.4c0.6,1,1.4,1.8,2.4,2.4c1,0.6,2.1,0.8,3.3,0.8
			c1.2,0,2.3-0.3,3.3-0.8c1-0.6,1.8-1.4,2.4-2.4c0.6-1,0.9-2.2,0.9-3.4c0-1.9-0.6-3.4-1.9-4.8C76.9,90.4,75.4,89.8,73.6,89.8z"/>
		<path fill="#BE3126" d="M93,81.7v2.1c-0.8-0.3-1.5-0.5-2-0.5c-0.4,0-0.8,0.1-1,0.3c-0.3,0.2-0.4,0.4-0.5,0.6
			c-0.1,0.2-0.1,0.8-0.1,1.7l0,2.2h3.5V90h-3.5l0,14.7h-2.1V90H85v-1.8h2.2v-2.6c0-1.2,0.1-2,0.3-2.5c0.2-0.5,0.6-0.9,1.1-1.2
			c0.5-0.3,1.2-0.5,1.9-0.5C91.2,81.3,92.1,81.4,93,81.7z"/>
		<path fill="#BE3126" d="M102.7,100.5l1.9-1.1c1.3,2.5,2.9,3.7,4.6,3.7c0.8,0,1.5-0.2,2.1-0.5s1.2-0.8,1.5-1.4
			c0.3-0.6,0.5-1.2,0.5-1.9c0-0.8-0.3-1.5-0.8-2.2c-0.7-1-2-2.2-3.8-3.6c-1.9-1.4-3-2.4-3.5-3.1c-0.8-1.1-1.2-2.2-1.2-3.4
			c0-1,0.2-1.9,0.7-2.7c0.5-0.8,1.1-1.4,2-1.9c0.8-0.5,1.8-0.7,2.8-0.7c1.1,0,2,0.3,3,0.8c0.9,0.5,1.9,1.5,2.9,2.9l-1.8,1.4
			c-0.8-1.1-1.6-1.9-2.2-2.2c-0.6-0.4-1.2-0.5-1.9-0.5c-0.9,0-1.6,0.3-2.2,0.8c-0.6,0.5-0.9,1.2-0.9,2c0,0.5,0.1,1,0.3,1.4
			s0.6,1,1.1,1.5c0.3,0.3,1.3,1,2.9,2.2c1.9,1.4,3.3,2.7,4,3.8c0.7,1.1,1.1,2.2,1.1,3.4c0,1.6-0.6,3-1.9,4.2
			c-1.2,1.2-2.7,1.8-4.5,1.8c-1.4,0-2.6-0.4-3.7-1.1S103.6,102.2,102.7,100.5z"/>
		<path fill="#BE3126" d="M128,87.7c2.6,0,4.7,0.9,6.4,2.8c1.5,1.7,2.3,3.7,2.3,6c0,2.3-0.8,4.3-2.4,6.1s-3.7,2.6-6.2,2.6
			c-2.5,0-4.6-0.9-6.2-2.6c-1.6-1.7-2.4-3.8-2.4-6.1c0-2.3,0.8-4.3,2.3-6C123.4,88.6,125.5,87.7,128,87.7z M128,89.8
			c-1.8,0-3.3,0.7-4.6,2c-1.3,1.3-1.9,2.9-1.9,4.8c0,1.2,0.3,2.3,0.9,3.4c0.6,1,1.4,1.8,2.4,2.4c1,0.6,2.1,0.8,3.3,0.8
			c1.2,0,2.3-0.3,3.3-0.8c1-0.6,1.8-1.4,2.4-2.4c0.6-1,0.9-2.2,0.9-3.4c0-1.9-0.6-3.4-1.9-4.8C131.3,90.4,129.8,89.8,128,89.8z"/>
		<path fill="#BE3126" d="M147.5,81.7v2.1c-0.8-0.3-1.5-0.5-2-0.5c-0.4,0-0.8,0.1-1,0.3c-0.3,0.2-0.4,0.4-0.5,0.6
			c-0.1,0.2-0.1,0.8-0.1,1.7l0,2.2h3.5V90h-3.5l0,14.7h-2.1V90h-2.2v-1.8h2.2v-2.6c0-1.2,0.1-2,0.3-2.5c0.2-0.5,0.6-0.9,1.1-1.2
			c0.5-0.3,1.2-0.5,1.9-0.5C145.7,81.3,146.5,81.4,147.5,81.7z"/>
		<path fill="#BE3126" d="M152.3,82h2.1v6.2h3.4V90h-3.4v14.7h-2.1V90h-2.9v-1.8h2.9V82z"/>
		<path fill="#BE3126" d="M158.8,88.1h2.2l5.1,12l5.3-12h0.4l5.3,12l5.2-12h2.2l-7.2,16.6h-0.4l-5.3-11.9l-5.3,11.9h-0.4L158.8,88.1
			z"/>
		<path fill="#BE3126" d="M203.5,88.1v16.6h-2.1v-2.8c-0.9,1.1-1.9,1.9-3,2.5c-1.1,0.5-2.3,0.8-3.7,0.8c-2.3,0-4.4-0.9-6-2.6
			s-2.5-3.8-2.5-6.2c0-2.4,0.8-4.4,2.5-6.1c1.7-1.7,3.7-2.5,6.1-2.5c1.4,0,2.6,0.3,3.7,0.9s2.1,1.4,2.9,2.6v-3H203.5z M195,89.7
			c-1.2,0-2.3,0.3-3.3,0.9c-1,0.6-1.8,1.4-2.4,2.5s-0.9,2.2-0.9,3.3c0,1.2,0.3,2.3,0.9,3.3s1.4,1.9,2.4,2.5s2.1,0.9,3.3,0.9
			c1.2,0,2.3-0.3,3.3-0.9c1-0.6,1.8-1.4,2.4-2.4s0.8-2.1,0.8-3.4c0-1.9-0.6-3.5-1.9-4.8S196.8,89.7,195,89.7z"/>
		<path fill="#BE3126" d="M207.5,88.1h2.2v2.4c0.6-1,1.3-1.7,2.1-2.1c0.7-0.5,1.5-0.7,2.3-0.7c0.6,0,1.2,0.2,1.9,0.6l-1.1,1.8
			c-0.4-0.2-0.8-0.3-1.1-0.3c-0.7,0-1.4,0.3-2.1,0.9c-0.7,0.6-1.2,1.5-1.5,2.7c-0.3,0.9-0.4,2.9-0.4,5.7v5.6h-2.2V88.1z"/>
		<path fill="#BE3126" d="M231.6,99.2l1.8,0.9c-0.6,1.2-1.3,2.1-2,2.8c-0.8,0.7-1.6,1.3-2.6,1.6c-1,0.4-2.1,0.6-3.3,0.6
			c-2.7,0-4.8-0.9-6.3-2.7s-2.3-3.8-2.3-6c0-2.1,0.6-4,1.9-5.6c1.6-2.1,3.8-3.1,6.6-3.1c2.8,0,5.1,1.1,6.8,3.2
			c1.2,1.5,1.8,3.4,1.8,5.7h-14.9c0,1.9,0.7,3.5,1.8,4.7c1.2,1.2,2.7,1.8,4.4,1.8c0.8,0,1.7-0.1,2.5-0.4s1.5-0.7,2-1.2
			C230.4,101.1,231,100.3,231.6,99.2z M231.6,94.7c-0.3-1.1-0.7-2-1.2-2.7c-0.5-0.7-1.3-1.2-2.2-1.6s-1.8-0.6-2.8-0.6
			c-1.6,0-3,0.5-4.2,1.6c-0.9,0.8-1.5,1.9-1.9,3.4H231.6z"/>
	</g>
</g>
<polygon fill="#F37422" points="27.6,3.8 22.3,18 64.9,18 64.9,3.8 "/>
<polygon fill="#F8AF96" points="34,37.2 40.3,50.8 64.9,40.5 64.9,23.8 43.8,36.9 "/>
<polygon fill="#F16443" points="22.3,18 43.8,36.9 64.9,23.8 64.9,18 "/>
<g>
	<g>
		<polygon fill="#F79631" points="47.2,67.5 64.9,67.5 64.9,40.5 40.3,50.8 		"/>
	</g>
</g>
<polygon fill="#F16443" points="22.3,48.1 1.2,45.9 1.2,67.5 34.5,53.3 28.2,39.6 "/>
<polygon fill="#ED3325" points="22.3,18 1.2,27.8 1.2,45.9 22.3,48.1 "/>
<polygon fill="#BE3126" points="27.6,3.8 1.2,3.8 1.2,27.8 22.3,18 "/>
<polygon fill-rule="evenodd" clip-rule="evenodd" fill="#FFFFFF" points="34.5,53.3 28.2,39.6 22.3,48.1 22.3,18 43.8,36.9 34,37.2 
	40.3,50.8 "/>
<rect x="55.8" y="8.3" fill="#FFFFFF" width="4.6" height="4.6"/>
<rect x="48.1" y="8.3" fill="#FFFFFF" width="4.6" height="4.6"/>
<rect x="40.7" y="8.3" fill="#FFFFFF" width="4.6" height="4.6"/>
<g>
	<path fill="#BE3126" d="M342.1,91.5c-0.4-0.2-1-0.3-2-0.3h-0.9v3.4h1c0.8,0,1.3-0.1,1.6-0.2s0.5-0.3,0.7-0.6s0.3-0.6,0.3-0.9
		C342.9,92.3,342.6,91.8,342.1,91.5z"/>
	<path fill="#BE3126" d="M310.1,91.9c-0.2-0.3-0.4-0.5-0.8-0.6c-0.3-0.1-0.9-0.2-1.7-0.2h-0.9v3.4h1c1,0,1.7-0.1,2.1-0.4
		c0.4-0.3,0.6-0.7,0.6-1.3C310.3,92.5,310.2,92.2,310.1,91.9z"/>
	<path fill="#BE3126" d="M324.5,90.8c-1.5,0-2.8,0.5-3.9,1.6c-1,1.1-1.6,2.4-1.6,4.1c0,1.8,0.7,3.3,2,4.3c1,0.8,2.2,1.3,3.5,1.3
		c1.5,0,2.8-0.5,3.8-1.6c1.1-1.1,1.6-2.4,1.6-4c0-1.6-0.5-2.9-1.6-4C327.3,91.3,326,90.8,324.5,90.8z"/>
	<path fill="#BE3126" d="M255.4,85.6l-16.7,21.3h122.4V85.6H255.4z M285.6,91.2h-5.9v3h5.9v3h-5.9v4.4h5.9v3.1h-9V88.1h9V91.2z
		 M299.7,98c0,1.7-0.1,2.8-0.3,3.5c-0.2,0.6-0.5,1.3-1.1,1.9s-1.1,1-1.8,1.3s-1.5,0.4-2.4,0.4c-1.2,0-2.2-0.3-3.1-0.8
		c-0.9-0.6-1.5-1.2-1.9-2.1c-0.4-0.8-0.6-2.2-0.6-4.2v-9.9h3.2v10.7c0,0.9,0.1,1.6,0.2,2c0.2,0.4,0.4,0.7,0.8,0.9
		c0.4,0.2,0.8,0.3,1.3,0.3c0.6,0,1-0.1,1.4-0.4c0.4-0.3,0.7-0.6,0.8-1c0.2-0.4,0.2-1.1,0.2-2.3V88.1h3.2V98z M310.7,104.7l-3.7-7
		h-0.3v7h-3.2V88.1h3.3c1.8,0,3.1,0.2,3.9,0.5s1.4,0.9,1.9,1.6c0.5,0.8,0.7,1.7,0.7,2.7c0,1.1-0.3,2-0.8,2.7
		c-0.5,0.7-1.3,1.3-2.4,1.7l3.9,7.4H310.7z M330.6,102.6c-1.7,1.7-3.7,2.5-6.1,2.5c-2.5,0-4.6-0.9-6.2-2.6c-1.6-1.7-2.5-3.8-2.5-6.1
		c0-1.6,0.4-3,1.1-4.4s1.8-2.4,3.2-3.2c1.3-0.8,2.8-1.2,4.3-1.2c2.3,0,4.4,0.8,6,2.5c1.7,1.7,2.5,3.8,2.5,6.2
		C333.1,98.9,332.3,100.9,330.6,102.6z M345,95.8c-0.6,0.8-1.4,1.3-2.5,1.6c-0.6,0.2-1.7,0.3-3.3,0.3v7h-3.2V88.1h3.3
		c1.8,0,3.1,0.2,3.9,0.5c0.8,0.3,1.4,0.9,1.9,1.6c0.5,0.7,0.7,1.6,0.7,2.7C345.9,94.1,345.6,95,345,95.8z M358.1,91.2h-5.9v3h5.9v3
		h-5.9v4.4h5.9v3.1h-9V88.1h9V91.2z"/>
</g>
</svg>
