<?xml version="1.0" encoding="utf-8"?>
<!-- Generator: Adobe Illustrator 18.1.1, SVG Export Plug-In . SVG Version: 6.00 Build 0)  -->
<svg version="1.1" id="Layer_1" xmlns="http://www.w3.org/2000/svg" xmlns:xlink="http://www.w3.org/1999/xlink" x="0px" y="0px"
	 viewBox="0 0 366 107.8" enable-background="new 0 0 366 107.8" xml:space="preserve">
<g>
	<g>
		<path fill="#FFFFFF" d="M77.2,87.5c2.6,0,4.7,0.9,6.4,2.8c1.5,1.7,2.3,3.7,2.3,6c0,2.3-0.8,4.3-2.4,6.1c-1.6,1.7-3.7,2.6-6.2,2.6
			c-2.5,0-4.6-0.9-6.2-2.6s-2.4-3.8-2.4-6.1c0-2.3,0.8-4.3,2.3-6C72.5,88.4,74.7,87.5,77.2,87.5z M77.2,89.6c-1.8,0-3.3,0.7-4.6,2
			c-1.3,1.3-1.9,2.9-1.9,4.8c0,1.2,0.3,2.3,0.9,3.4c0.6,1,1.4,1.8,2.4,2.4c1,0.6,2.1,0.8,3.3,0.8s2.3-0.3,3.3-0.8
			c1-0.6,1.8-1.4,2.4-2.4c0.6-1,0.9-2.2,0.9-3.4c0-1.9-0.6-3.4-1.9-4.8C80.5,90.2,79,89.6,77.2,89.6z"/>
		<path fill="#FFFFFF" d="M96.6,81.5v2.1c-0.8-0.3-1.5-0.5-2-0.5c-0.4,0-0.8,0.1-1,0.3s-0.4,0.4-0.5,0.6S93,84.7,93,85.7l0,2.2h3.5
			v1.8H93l0,14.7h-2.1V89.8h-2.2v-1.8h2.2v-2.6c0-1.2,0.1-2,0.3-2.5c0.2-0.5,0.6-0.9,1.1-1.2c0.5-0.3,1.2-0.5,1.9-0.5
			C94.9,81.1,95.7,81.2,96.6,81.5z"/>
		<path fill="#FFFFFF" d="M106.3,100.3l1.9-1.1c1.3,2.5,2.9,3.7,4.6,3.7c0.8,0,1.5-0.2,2.1-0.5c0.7-0.4,1.2-0.8,1.5-1.4
			c0.3-0.6,0.5-1.2,0.5-1.9c0-0.8-0.3-1.5-0.8-2.2c-0.7-1-2-2.2-3.8-3.6c-1.9-1.4-3-2.4-3.5-3.1c-0.8-1.1-1.2-2.2-1.2-3.4
			c0-1,0.2-1.9,0.7-2.7c0.5-0.8,1.1-1.4,2-1.9c0.8-0.5,1.8-0.7,2.8-0.7c1.1,0,2,0.3,3,0.8s1.9,1.5,2.9,2.9l-1.8,1.4
			c-0.8-1.1-1.6-1.9-2.2-2.2c-0.6-0.4-1.2-0.5-1.9-0.5c-0.9,0-1.6,0.3-2.2,0.8s-0.9,1.2-0.9,2c0,0.5,0.1,1,0.3,1.4
			c0.2,0.5,0.6,1,1.1,1.5c0.3,0.3,1.3,1,2.9,2.2c1.9,1.4,3.3,2.7,4,3.8c0.7,1.1,1.1,2.2,1.1,3.4c0,1.6-0.6,3-1.9,4.2
			c-1.2,1.2-2.7,1.8-4.5,1.8c-1.4,0-2.6-0.4-3.7-1.1C108.3,103.2,107.2,102,106.3,100.3z"/>
		<path fill="#FFFFFF" d="M131.7,87.5c2.6,0,4.7,0.9,6.4,2.8c1.5,1.7,2.3,3.7,2.3,6c0,2.3-0.8,4.3-2.4,6.1c-1.6,1.7-3.7,2.6-6.2,2.6
			c-2.5,0-4.6-0.9-6.2-2.6s-2.4-3.8-2.4-6.1c0-2.3,0.8-4.3,2.3-6C127,88.4,129.1,87.5,131.7,87.5z M131.7,89.6c-1.8,0-3.3,0.7-4.6,2
			c-1.3,1.3-1.9,2.9-1.9,4.8c0,1.2,0.3,2.3,0.9,3.4c0.6,1,1.4,1.8,2.4,2.4c1,0.6,2.1,0.8,3.3,0.8s2.3-0.3,3.3-0.8
			c1-0.6,1.8-1.4,2.4-2.4c0.6-1,0.9-2.2,0.9-3.4c0-1.9-0.6-3.4-1.9-4.8C134.9,90.2,133.4,89.6,131.7,89.6z"/>
		<path fill="#FFFFFF" d="M151.1,81.5v2.1c-0.8-0.3-1.5-0.5-2-0.5c-0.4,0-0.8,0.1-1,0.3s-0.4,0.4-0.5,0.6s-0.1,0.8-0.1,1.7l0,2.2
			h3.5v1.8h-3.5l0,14.7h-2.1V89.8h-2.2v-1.8h2.2v-2.6c0-1.2,0.1-2,0.3-2.5c0.2-0.5,0.6-0.9,1.1-1.2c0.5-0.3,1.2-0.5,1.9-0.5
			C149.3,81.1,150.1,81.2,151.1,81.5z"/>
		<path fill="#FFFFFF" d="M155.9,81.8h2.1v6.2h3.4v1.8H158v14.7h-2.1V89.8H153v-1.8h2.9V81.8z"/>
		<path fill="#FFFFFF" d="M162.4,87.9h2.2l5.1,12l5.3-12h0.4l5.3,12l5.2-12h2.2l-7.2,16.6h-0.4l-5.3-11.9l-5.3,11.9h-0.4L162.4,87.9
			z"/>
		<path fill="#FFFFFF" d="M207.1,87.9v16.6H205v-2.8c-0.9,1.1-1.9,1.9-3,2.5c-1.1,0.5-2.3,0.8-3.7,0.8c-2.3,0-4.4-0.9-6-2.6
			s-2.5-3.8-2.5-6.2c0-2.4,0.8-4.4,2.5-6.1c1.7-1.7,3.7-2.5,6.1-2.5c1.4,0,2.6,0.3,3.7,0.9s2.1,1.4,2.9,2.6v-3H207.1z M198.6,89.5
			c-1.2,0-2.3,0.3-3.3,0.9c-1,0.6-1.8,1.4-2.4,2.5S192,95,192,96.2c0,1.2,0.3,2.3,0.9,3.3s1.4,1.9,2.4,2.5s2.1,0.9,3.3,0.9
			c1.2,0,2.3-0.3,3.3-0.9c1-0.6,1.8-1.4,2.4-2.4s0.8-2.1,0.8-3.4c0-1.9-0.6-3.5-1.9-4.8S200.4,89.5,198.6,89.5z"/>
		<path fill="#FFFFFF" d="M211.1,87.9h2.2v2.4c0.6-1,1.3-1.7,2.1-2.1c0.7-0.5,1.5-0.7,2.3-0.7c0.6,0,1.2,0.2,1.9,0.6l-1.1,1.8
			c-0.4-0.2-0.8-0.3-1.1-0.3c-0.7,0-1.4,0.3-2.1,0.9c-0.7,0.6-1.2,1.5-1.5,2.7c-0.3,0.9-0.4,2.9-0.4,5.7v5.6h-2.2V87.9z"/>
		<path fill="#FFFFFF" d="M235.2,99l1.8,0.9c-0.6,1.2-1.3,2.1-2,2.8c-0.8,0.7-1.6,1.3-2.6,1.6c-1,0.4-2.1,0.6-3.3,0.6
			c-2.7,0-4.8-0.9-6.3-2.7s-2.3-3.8-2.3-6c0-2.1,0.6-4,1.9-5.6c1.6-2.1,3.8-3.1,6.6-3.1c2.8,0,5.1,1.1,6.8,3.2
			c1.2,1.5,1.8,3.4,1.8,5.7h-14.9c0,1.9,0.7,3.5,1.8,4.7c1.2,1.2,2.7,1.8,4.4,1.8c0.8,0,1.7-0.1,2.5-0.4s1.5-0.7,2-1.2
			C234,100.9,234.6,100.1,235.2,99z M235.2,94.5c-0.3-1.1-0.7-2-1.2-2.7c-0.5-0.7-1.3-1.2-2.2-1.6s-1.8-0.6-2.8-0.6
			c-1.6,0-3,0.5-4.2,1.6c-0.9,0.8-1.5,1.9-1.9,3.4H235.2z"/>
	</g>
</g>
<g>
	<g>
		<path fill="#FFFFFF" d="M68.5,67.3V3.6h10c5.8,0,10.1,0.4,12.8,1.1c3.8,1,6.9,2.9,9.1,5.6c2.3,2.7,3.4,6,3.4,9.7
			c0,2.4-0.5,4.6-1.5,6.6c-1,2-2.7,3.8-5,5.6c3.9,1.8,6.7,4.1,8.5,6.8c1.8,2.7,2.7,6,2.7,9.7c0,3.6-0.9,6.9-2.8,9.8
			s-4.2,5.2-7.2,6.6s-7,2.2-12.1,2.2H68.5z M80.7,15.1v13.4h2.7c3,0,5.2-0.6,6.6-1.9s2.2-2.9,2.2-5.1c0-2-0.7-3.6-2-4.7
			c-1.4-1.2-3.4-1.8-6.2-1.8H80.7z M80.7,39.4v16.3h3c5,0,8.4-0.6,10.2-1.9c1.8-1.3,2.6-3.1,2.6-5.6c0-2.7-1-4.9-3.1-6.5
			s-5.5-2.4-10.3-2.4H80.7z"/>
		<path fill="#FFFFFF" d="M112,20.2h12v22.7c0,4.4,0.3,7.5,0.9,9.2s1.6,3.1,2.9,4c1.3,1,3,1.4,5,1.4c2,0,3.6-0.5,5-1.4
			s2.4-2.3,3.1-4.1c0.5-1.4,0.7-4.3,0.7-8.7V20.2h11.8v20c0,8.2-0.7,13.9-2,16.9c-1.6,3.7-3.9,6.5-7,8.5c-3.1,2-7,3-11.8,3
			c-5.2,0-9.4-1.2-12.6-3.5s-5.4-5.5-6.7-9.7c-0.9-2.9-1.4-8.1-1.4-15.6V20.2z"/>
		<path fill="#FFFFFF" d="M187.6,26.8l-7.3,7.3c-3-2.9-5.7-4.4-8.1-4.4c-1.3,0-2.4,0.3-3.1,0.8s-1.1,1.3-1.1,2.1
			c0,0.6,0.2,1.2,0.7,1.8c0.5,0.5,1.7,1.3,3.5,2.2l4.3,2.2c4.6,2.3,7.7,4.6,9.4,6.9c1.7,2.3,2.6,5.1,2.6,8.2c0,4.2-1.5,7.7-4.6,10.5
			c-3.1,2.8-7.2,4.2-12.4,4.2c-6.9,0-12.4-2.7-16.5-8.1l7.3-7.9c1.4,1.6,3,2.9,4.9,3.9c1.9,1,3.5,1.5,5,1.5c1.6,0,2.8-0.4,3.8-1.1
			c1-0.8,1.4-1.6,1.4-2.6c0-1.8-1.7-3.6-5.2-5.3l-4-2c-7.6-3.8-11.4-8.7-11.4-14.4c0-3.7,1.4-6.9,4.3-9.6c2.9-2.6,6.6-4,11-4
			c3.1,0,5.9,0.7,8.7,2S185.7,24.2,187.6,26.8z"/>
		<path fill="#FFFFFF" d="M195.7,0.7c2.1,0,3.9,0.8,5.3,2.3c1.5,1.5,2.2,3.3,2.2,5.5c0,2.1-0.7,3.9-2.2,5.4
			c-1.5,1.5-3.2,2.2-5.3,2.2c-2.1,0-3.9-0.8-5.4-2.3s-2.2-3.4-2.2-5.5c0-2.1,0.7-3.9,2.2-5.3C191.9,1.5,193.7,0.7,195.7,0.7z
			 M189.8,20.2h11.8v47.2h-11.8V20.2z"/>
		<path fill="#FFFFFF" d="M205.7,20.2h11.8V25c2.7-2.3,5.1-3.8,7.3-4.7c2.2-0.9,4.4-1.3,6.7-1.3c4.7,0,8.6,1.6,11.9,4.9
			c2.7,2.8,4.1,6.9,4.1,12.3v31.2h-11.7V46.7c0-5.6-0.3-9.4-0.8-11.2s-1.4-3.3-2.6-4.2c-1.3-1-2.8-1.5-4.6-1.5
			c-2.4,0-4.4,0.8-6.2,2.4c-1.7,1.6-2.9,3.8-3.6,6.6c-0.3,1.5-0.5,4.7-0.5,9.6v18.9h-11.8V20.2z"/>
		<path fill="#FFFFFF" d="M299.6,47.2h-38c0.5,3.4,2,6,4.4,8c2.4,2,5.4,3,9.1,3c4.4,0,8.2-1.5,11.4-4.6l10,4.7
			c-2.5,3.5-5.5,6.1-8.9,7.8c-3.5,1.7-7.6,2.5-12.4,2.5c-7.4,0-13.4-2.3-18.1-7c-4.7-4.7-7-10.5-7-17.5c0-7.2,2.3-13.2,7-17.9
			c4.6-4.8,10.5-7.1,17.5-7.1c7.4,0,13.5,2.4,18.1,7.1c4.7,4.8,7,11,7,18.8L299.6,47.2z M287.8,37.9c-0.8-2.6-2.3-4.8-4.6-6.4
			c-2.3-1.6-5-2.5-8-2.5c-3.3,0-6.2,0.9-8.7,2.8c-1.6,1.2-3,3.2-4.3,6.1H287.8z"/>
		<path fill="#FFFFFF" d="M331.4,26.8l-7.3,7.3c-3-2.9-5.7-4.4-8.1-4.4c-1.3,0-2.4,0.3-3.1,0.8s-1.1,1.3-1.1,2.1
			c0,0.6,0.2,1.2,0.7,1.8c0.5,0.5,1.7,1.3,3.5,2.2l4.3,2.2c4.6,2.3,7.7,4.6,9.4,6.9c1.7,2.3,2.6,5.1,2.6,8.2c0,4.2-1.5,7.7-4.6,10.5
			c-3.1,2.8-7.2,4.2-12.4,4.2c-6.9,0-12.4-2.7-16.5-8.1l7.3-7.9c1.4,1.6,3,2.9,4.9,3.9c1.9,1,3.5,1.5,5,1.5c1.6,0,2.8-0.4,3.8-1.1
			c1-0.8,1.4-1.6,1.4-2.6c0-1.8-1.7-3.6-5.2-5.3l-4-2c-7.6-3.8-11.4-8.7-11.4-14.4c0-3.7,1.4-6.9,4.3-9.6c2.9-2.6,6.6-4,11-4
			c3.1,0,5.9,0.7,8.7,2S329.6,24.2,331.4,26.8z"/>
		<path fill="#FFFFFF" d="M363.9,26.8l-7.3,7.3c-3-2.9-5.7-4.4-8.1-4.4c-1.3,0-2.4,0.3-3.1,0.8s-1.1,1.3-1.1,2.1
			c0,0.6,0.2,1.2,0.7,1.8c0.5,0.5,1.7,1.3,3.5,2.2l4.3,2.2c4.6,2.3,7.7,4.6,9.4,6.9c1.7,2.3,2.6,5.1,2.6,8.2c0,4.2-1.5,7.7-4.6,10.5
			c-3.1,2.8-7.2,4.2-12.4,4.2c-6.9,0-12.4-2.7-16.5-8.1l7.3-7.9c1.4,1.6,3,2.9,4.9,3.9c1.9,1,3.5,1.5,5,1.5c1.6,0,2.8-0.4,3.8-1.1
			c1-0.8,1.4-1.6,1.4-2.6c0-1.8-1.7-3.6-5.2-5.3l-4-2c-7.6-3.8-11.4-8.7-11.4-14.4c0-3.7,1.4-6.9,4.3-9.6c2.9-2.6,6.6-4,11-4
			c3.1,0,5.9,0.7,8.7,2S362,24.2,363.9,26.8z"/>
	</g>
</g>
<path fill="#FFFFFF" d="M1.2,3.6v63.8h11.8v22.5l17.6-22.5l34.3,0V3.6H1.2z M40.4,50.6l-5.8,2.5l-6.3-13.7l-5.9,8.5V17.8l21.6,18.9
	L34,37L40.4,50.6z M45.3,12.7h-4.6V8.1h4.6V12.7z M52.8,12.7h-4.6V8.1h4.6V12.7z M60.4,12.7h-4.6V8.1h4.6V12.7z"/>
<g>
	<path fill="#FFFFFF" d="M345.8,91.5c-0.4-0.2-1-0.3-2-0.3h-0.9v3.4h1c0.8,0,1.3-0.1,1.6-0.2s0.5-0.3,0.7-0.6s0.3-0.6,0.3-0.9
		C346.6,92.3,346.3,91.8,345.8,91.5z"/>
	<path fill="#FFFFFF" d="M313.8,91.9c-0.2-0.3-0.4-0.5-0.8-0.6c-0.3-0.1-0.9-0.2-1.7-0.2h-0.9v3.4h1c1,0,1.7-0.1,2.1-0.4
		c0.4-0.3,0.6-0.7,0.6-1.3C314,92.5,314,92.2,313.8,91.9z"/>
	<path fill="#FFFFFF" d="M328.2,90.8c-1.5,0-2.8,0.5-3.9,1.6c-1,1.1-1.6,2.4-1.6,4.1c0,1.8,0.7,3.3,2,4.3c1,0.8,2.2,1.3,3.5,1.3
		c1.5,0,2.8-0.5,3.8-1.6c1.1-1.1,1.6-2.4,1.6-4c0-1.6-0.5-2.9-1.6-4C331,91.3,329.7,90.8,328.2,90.8z"/>
	<path fill="#FFFFFF" d="M259.1,85.6l-16.7,21.3h122.4V85.6H259.1z M289.3,91.2h-5.9v3h5.9v3h-5.9v4.4h5.9v3.1h-9V88.1h9V91.2z
		 M303.4,98c0,1.7-0.1,2.8-0.3,3.5c-0.2,0.6-0.5,1.3-1.1,1.9s-1.1,1-1.8,1.3s-1.5,0.4-2.4,0.4c-1.2,0-2.2-0.3-3.1-0.8
		c-0.9-0.6-1.5-1.2-1.9-2.1c-0.4-0.8-0.6-2.2-0.6-4.2v-9.9h3.2v10.7c0,0.9,0.1,1.6,0.2,2c0.2,0.4,0.4,0.7,0.8,0.9
		c0.4,0.2,0.8,0.3,1.3,0.3c0.6,0,1-0.1,1.4-0.4c0.4-0.3,0.7-0.6,0.8-1c0.2-0.4,0.2-1.1,0.2-2.3V88.1h3.2V98z M314.4,104.7l-3.7-7
		h-0.3v7h-3.2V88.1h3.3c1.8,0,3.1,0.2,3.9,0.5s1.4,0.9,1.9,1.6c0.5,0.8,0.7,1.7,0.7,2.7c0,1.1-0.3,2-0.8,2.7
		c-0.5,0.7-1.3,1.3-2.4,1.7l3.9,7.4H314.4z M334.3,102.6c-1.7,1.7-3.7,2.5-6.1,2.5c-2.5,0-4.6-0.9-6.2-2.6c-1.6-1.7-2.5-3.8-2.5-6.1
		c0-1.6,0.4-3,1.1-4.4s1.8-2.4,3.2-3.2c1.3-0.8,2.8-1.2,4.3-1.2c2.3,0,4.4,0.8,6,2.5c1.7,1.7,2.5,3.8,2.5,6.2
		C336.8,98.9,336,100.9,334.3,102.6z M348.7,95.8c-0.6,0.8-1.4,1.3-2.5,1.6c-0.6,0.2-1.7,0.3-3.3,0.3v7h-3.2V88.1h3.3
		c1.8,0,3.1,0.2,3.9,0.5c0.8,0.3,1.4,0.9,1.9,1.6c0.5,0.7,0.7,1.6,0.7,2.7C349.6,94.1,349.3,95,348.7,95.8z M361.8,91.2h-5.9v3h5.9
		v3h-5.9v4.4h5.9v3.1h-9V88.1h9V91.2z"/>
</g>
</svg>
