<?xml version="1.0" encoding="utf-8"?>
<!-- Generator: Adobe Illustrator 17.0.1, SVG Export Plug-In . SVG Version: 6.00 Build 0)  -->
<!DOCTYPE svg PUBLIC "-//W3C//DTD SVG 1.1//EN" "http://www.w3.org/Graphics/SVG/1.1/DTD/svg11.dtd">
<svg version="1.1" id="Layer_1" xmlns="http://www.w3.org/2000/svg" xmlns:xlink="http://www.w3.org/1999/xlink" x="0px" y="0px"
	 width="228.07px" height="101.578px" viewBox="0 0 228.07 101.578" enable-background="new 0 0 228.07 101.578"
	 xml:space="preserve">
<g>
	<path fill="#FFFFFF" d="M67.47,80.877v-2.2h12.314v2.2h-5.012v20.273h-2.291V80.877H67.47z"/>
	<path fill="#FFFFFF" d="M99.233,84.529v16.622h-2.108v-2.856c-0.896,1.09-1.902,1.909-3.018,2.459s-2.335,0.825-3.659,0.825
		c-2.353,0-4.361-0.853-6.026-2.559s-2.498-3.781-2.498-6.226c0-2.394,0.84-4.44,2.521-6.142s3.702-2.552,6.065-2.552
		c1.364,0,2.6,0.29,3.705,0.871c1.104,0.58,2.075,1.451,2.91,2.612v-3.056H99.233z M90.685,86.163c-1.19,0-2.289,0.293-3.296,0.878
		c-1.008,0.585-1.809,1.406-2.404,2.464c-0.595,1.059-0.893,2.178-0.893,3.357c0,1.17,0.301,2.289,0.9,3.357
		c0.601,1.068,1.406,1.899,2.419,2.495c1.012,0.595,2.099,0.893,3.258,0.893c1.17,0,2.279-0.295,3.327-0.885
		c1.048-0.591,1.854-1.389,2.418-2.396c0.565-1.007,0.848-2.142,0.848-3.402c0-1.923-0.634-3.53-1.9-4.822
		S92.536,86.163,90.685,86.163z"/>
	<path fill="#FFFFFF" d="M103.724,78.112h2.139v23.039h-2.139V78.112z"/>
	<path fill="#FFFFFF" d="M124.303,95.635l1.803,0.947c-0.592,1.161-1.274,2.099-2.05,2.812c-0.774,0.713-1.646,1.255-2.614,1.627
		c-0.969,0.372-2.064,0.558-3.288,0.558c-2.712,0-4.832-0.889-6.361-2.666s-2.294-3.786-2.294-6.027
		c0-2.107,0.647-3.987,1.942-5.637c1.641-2.099,3.838-3.147,6.591-3.147c2.834,0,5.097,1.075,6.789,3.224
		c1.203,1.518,1.814,3.412,1.835,5.684h-14.957c0.041,1.931,0.658,3.513,1.851,4.748c1.193,1.234,2.667,1.852,4.421,1.852
		c0.847,0,1.67-0.147,2.471-0.441c0.8-0.294,1.48-0.685,2.042-1.172C123.043,97.507,123.65,96.721,124.303,95.635z M124.303,91.159
		c-0.286-1.141-0.701-2.053-1.247-2.735c-0.546-0.682-1.268-1.231-2.164-1.649c-0.898-0.418-1.841-0.627-2.83-0.627
		c-1.632,0-3.034,0.525-4.207,1.574c-0.856,0.764-1.504,1.909-1.942,3.438H124.303z"/>
	<path fill="#FFFFFF" d="M138.999,86.347l-1.375,1.421c-1.144-1.11-2.262-1.666-3.354-1.666c-0.694,0-1.289,0.229-1.784,0.688
		c-0.496,0.459-0.743,0.993-0.743,1.604c0,0.54,0.204,1.055,0.612,1.543c0.408,0.499,1.266,1.085,2.572,1.757
		c1.592,0.825,2.674,1.62,3.245,2.384c0.562,0.773,0.843,1.645,0.843,2.612c0,1.365-0.48,2.521-1.438,3.468
		c-0.959,0.947-2.158,1.421-3.596,1.421c-0.959,0-1.875-0.209-2.747-0.626c-0.872-0.418-1.594-0.993-2.165-1.727l1.345-1.528
		c1.092,1.232,2.251,1.849,3.476,1.849c0.857,0,1.588-0.274,2.19-0.824c0.602-0.551,0.903-1.197,0.903-1.94
		c0-0.611-0.199-1.156-0.597-1.635c-0.398-0.469-1.297-1.06-2.695-1.772c-1.5-0.773-2.521-1.538-3.062-2.292
		c-0.541-0.753-0.812-1.613-0.812-2.581c0-1.264,0.431-2.313,1.293-3.147s1.951-1.253,3.268-1.253
		C135.907,84.101,137.448,84.85,138.999,86.347z"/>
</g>
<g>
	<path fill="#FFFFFF" d="M126.338,12.248l-8.103,7.725c-5.512-5.826-11.713-8.739-18.603-8.739c-5.815,0-10.714,1.988-14.695,5.964
		c-3.982,3.977-5.974,8.877-5.974,14.703c0,4.059,0.882,7.662,2.646,10.81s4.258,5.619,7.482,7.413
		c3.225,1.795,6.807,2.692,10.748,2.692c3.361,0,6.435-0.628,9.218-1.885c2.783-1.256,5.843-3.541,9.178-6.854l7.854,8.195
		c-4.496,4.388-8.744,7.431-12.743,9.127c-4,1.696-8.564,2.546-13.694,2.546c-9.462,0-17.206-3-23.232-8.999
		c-6.027-6-9.04-13.688-9.04-23.066c0-6.068,1.372-11.461,4.116-16.178c2.745-4.717,6.676-8.509,11.792-11.378
		c5.116-2.868,10.626-4.303,16.529-4.303c5.02,0,9.854,1.061,14.502,3.181C118.966,5.322,122.972,8.338,126.338,12.248z"/>
	<path fill="#FFFFFF" d="M130.16,1.552h33.224v11.337h-21.722v11.006h21.722v11.13h-21.722v16.012h21.722v11.378H130.16V1.552z"/>
	<path fill="#FFFFFF" d="M196.563,0.022c8.611,0,16.015,3.117,22.212,9.351c6.196,6.234,9.295,13.833,9.295,22.797
		c0,8.882-3.058,16.398-9.171,22.55c-6.114,6.151-13.531,9.227-22.253,9.227c-9.137,0-16.727-3.158-22.771-9.476
		c-6.044-6.315-9.066-13.818-9.066-22.507c0-5.82,1.407-11.172,4.223-16.054s6.687-8.751,11.613-11.605
		C185.57,1.449,190.876,0.022,196.563,0.022z M196.439,11.359c-5.634,0-10.369,1.958-14.206,5.875
		c-3.839,3.917-5.757,8.896-5.757,14.936c0,6.73,2.415,12.055,7.248,15.971c3.755,3.062,8.062,4.593,12.922,4.593
		c5.494,0,10.174-1.986,14.04-5.958c3.865-3.972,5.799-8.867,5.799-14.688c0-5.793-1.947-10.695-5.841-14.709
		C206.751,13.364,202.016,11.359,196.439,11.359z"/>
</g>
<path fill="#FFFFFF" d="M63.912,31.53C63.912,6.305,85.006,0,85.006,0H0v63.912h11.863v22.513l17.651-22.512l55.492-0.001
	C85.006,63.912,63.912,58.6,63.912,31.53z M51.845,52.443c0,0.881-0.72,1.6-1.61,1.6H42.09c-0.89,0-1.61-0.72-1.61-1.6v-8.154
	c0-0.881,0.72-1.601,1.61-1.601h2.548V32.412H33.225v10.275h2.803c0.891,0,1.61,0.72,1.61,1.601v8.154c0,0.881-0.72,1.6-1.61,1.6
	h-8.145c-0.89,0-1.61-0.72-1.61-1.6v-8.154c0-0.881,0.72-1.601,1.61-1.601h2.5V32.412H19.303v10.275h2.519
	c0.891,0,1.61,0.72,1.61,1.601v8.154c0,0.881-0.72,1.6-1.61,1.6h-8.145c-0.89,0-1.61-0.72-1.61-1.6v-8.154
	c0-0.881,0.72-1.601,1.61-1.601h2.784V30.991l1.421-1.421h12.501v-8.116h-2.5c-0.89,0-1.61-0.72-1.61-1.6V11.7
	c0-0.881,0.72-1.601,1.61-1.601h8.145c0.891,0,1.61,0.72,1.61,1.601v8.154c0,0.881-0.72,1.6-1.61,1.6h-2.803v8.116h12.834
	l1.421,1.421v11.696h2.756c0.891,0,1.61,0.72,1.61,1.601V52.443z"/>
</svg>
