<?xml version="1.0" encoding="utf-8"?>
<!-- Generator: Adobe Illustrator 17.0.1, SVG Export Plug-In . SVG Version: 6.00 Build 0)  -->
<!DOCTYPE svg PUBLIC "-//W3C//DTD SVG 1.1//EN" "http://www.w3.org/Graphics/SVG/1.1/DTD/svg11.dtd">
<svg version="1.1" id="Layer_1" xmlns="http://www.w3.org/2000/svg" xmlns:xlink="http://www.w3.org/1999/xlink" x="0px" y="0px"
	 width="224.511px" height="101.578px" viewBox="0 0 224.511 101.578" enable-background="new 0 0 224.511 101.578"
	 xml:space="preserve">
<polygon fill="#4CBEA7" points="0,63.912 11.863,63.912 11.863,86.425 29.514,63.913 96.256,63.912 65.631,32.412 96.256,0 0,0 "/>
<polygon fill="#AFCEC7" points="69.528,45.768 33.225,32.412 31.956,54.043 63.896,63.912 96.256,63.912 "/>
<g>
	<path fill="#018973" d="M63.911,80.877v-2.2h12.313v2.2h-5.011v20.273h-2.292V80.877H63.911z"/>
	<path fill="#018973" d="M95.673,84.529v16.622h-2.108v-2.856c-0.896,1.09-1.902,1.909-3.018,2.459s-2.335,0.825-3.659,0.825
		c-2.353,0-4.362-0.853-6.027-2.559c-1.666-1.706-2.498-3.781-2.498-6.226c0-2.394,0.84-4.44,2.521-6.142
		c1.681-1.701,3.703-2.552,6.065-2.552c1.365,0,2.6,0.29,3.705,0.871c1.105,0.58,2.075,1.451,2.911,2.612v-3.056H95.673z
		 M87.125,86.163c-1.19,0-2.289,0.293-3.296,0.878s-1.808,1.406-2.403,2.464c-0.595,1.059-0.893,2.178-0.893,3.357
		c0,1.17,0.3,2.289,0.9,3.357s1.407,1.899,2.419,2.495c1.012,0.595,2.098,0.893,3.258,0.893c1.17,0,2.278-0.295,3.327-0.885
		c1.047-0.591,1.854-1.389,2.418-2.396c0.564-1.007,0.847-2.142,0.847-3.402c0-1.923-0.633-3.53-1.9-4.822
		S88.977,86.163,87.125,86.163z"/>
	<path fill="#018973" d="M100.164,78.112h2.139v23.039h-2.139V78.112z"/>
	<path fill="#018973" d="M120.743,95.635l1.803,0.947c-0.591,1.161-1.274,2.099-2.049,2.812s-1.646,1.255-2.615,1.627
		c-0.968,0.372-2.064,0.558-3.288,0.558c-2.712,0-4.832-0.889-6.361-2.666c-1.529-1.777-2.293-3.786-2.293-6.027
		c0-2.107,0.647-3.987,1.942-5.637c1.641-2.099,3.838-3.147,6.59-3.147c2.834,0,5.097,1.075,6.79,3.224
		c1.203,1.518,1.814,3.412,1.835,5.684h-14.957c0.041,1.931,0.658,3.513,1.851,4.748c1.193,1.234,2.667,1.852,4.42,1.852
		c0.846,0,1.669-0.147,2.47-0.441c0.8-0.294,1.481-0.685,2.042-1.172S120.09,96.721,120.743,95.635z M120.743,91.159
		c-0.285-1.141-0.701-2.053-1.247-2.735c-0.546-0.682-1.267-1.231-2.165-1.649s-1.841-0.627-2.83-0.627
		c-1.632,0-3.034,0.525-4.207,1.574c-0.857,0.764-1.504,1.909-1.943,3.438H120.743z"/>
	<path fill="#018973" d="M135.441,86.347l-1.375,1.421c-1.145-1.11-2.263-1.666-3.354-1.666c-0.695,0-1.29,0.229-1.785,0.688
		c-0.495,0.459-0.743,0.993-0.743,1.604c0,0.54,0.204,1.055,0.612,1.543c0.408,0.499,1.266,1.085,2.572,1.757
		c1.593,0.825,2.675,1.62,3.246,2.384c0.562,0.773,0.842,1.645,0.842,2.612c0,1.365-0.479,2.521-1.438,3.468
		s-2.157,1.421-3.595,1.421c-0.96,0-1.875-0.209-2.748-0.626c-0.872-0.418-1.594-0.993-2.165-1.727l1.345-1.528
		c1.092,1.232,2.251,1.849,3.476,1.849c0.857,0,1.587-0.274,2.189-0.824c0.603-0.551,0.904-1.197,0.904-1.94
		c0-0.611-0.199-1.156-0.598-1.635c-0.397-0.469-1.296-1.06-2.694-1.772c-1.501-0.773-2.521-1.538-3.063-2.292
		c-0.541-0.753-0.812-1.613-0.812-2.581c0-1.264,0.431-2.313,1.293-3.147c0.862-0.835,1.951-1.253,3.267-1.253
		C132.349,84.101,133.89,84.85,135.441,86.347z"/>
</g>
<polygon fill="#99D4C6" points="0,44.899 30.384,29.571 31.956,54.043 "/>
<polygon fill="#018973" points="0,0 17.292,0 31.956,16.325 0,21.624 "/>
<polygon fill="#8BBCB1" points="31.956,16.325 31.956,48.162 69.528,45.768 69.537,25.036 "/>
<polygon fill="#A4C2B9" points="31.956,16.325 63.912,0 96.256,0 69.537,25.036 "/>
<polygon fill="#539A87" points="0,44.899 30.384,29.571 31.956,16.325 0,21.624 "/>
<polygon fill="#BBE1D7" points="17.292,0 63.912,0 31.956,16.325 "/>
<path fill-rule="evenodd" clip-rule="evenodd" fill="#FFFFFF" d="M12.067,52.443v-8.154c0-0.881,0.72-1.601,1.61-1.601h2.784V30.991
	l1.421-1.421h12.501v-8.116h-2.5c-0.89,0-1.61-0.72-1.61-1.6V11.7c0-0.881,0.72-1.601,1.61-1.601h8.145
	c0.891,0,1.61,0.72,1.61,1.601v8.154c0,0.881-0.72,1.6-1.61,1.6h-2.803v8.116h12.834l1.421,1.421v11.696h2.756
	c0.891,0,1.61,0.72,1.61,1.601v8.154c0,0.881-0.72,1.6-1.61,1.6H42.09c-0.89,0-1.61-0.72-1.61-1.6v-8.154
	c0-0.881,0.72-1.601,1.61-1.601h2.548V32.412H33.225v10.275h2.803c0.891,0,1.61,0.72,1.61,1.601v8.154c0,0.881-0.72,1.6-1.61,1.6
	h-8.145c-0.89,0-1.61-0.72-1.61-1.6v-8.154c0-0.881,0.72-1.601,1.61-1.601h2.5V32.412H19.303v10.275h2.519
	c0.891,0,1.61,0.72,1.61,1.601v8.154c0,0.881-0.72,1.6-1.61,1.6h-8.145C12.787,54.043,12.067,53.324,12.067,52.443z"/>
<g>
	<path fill="#018973" d="M122.778,12.248l-8.102,7.725c-5.512-5.826-11.713-8.739-18.603-8.739c-5.815,0-10.713,1.988-14.696,5.964
		c-3.982,3.977-5.973,8.877-5.973,14.703c0,4.059,0.881,7.662,2.645,10.81s4.258,5.619,7.482,7.413
		c3.225,1.795,6.808,2.693,10.749,2.693c3.361,0,6.434-0.628,9.218-1.885c2.783-1.256,5.842-3.541,9.178-6.854l7.854,8.196
		c-4.497,4.388-8.745,7.431-12.744,9.127c-4,1.696-8.564,2.546-13.695,2.546c-9.461,0-17.205-3-23.232-8.999
		c-6.027-6-9.04-13.689-9.04-23.067c0-6.068,1.372-11.461,4.117-16.178c2.744-4.717,6.675-8.509,11.792-11.378
		c5.116-2.868,10.626-4.303,16.529-4.303c5.02,0,9.854,1.061,14.502,3.181C115.407,5.322,119.413,8.338,122.778,12.248z"/>
	<path fill="#018973" d="M126.601,1.551h33.224v11.337h-21.722v11.006h21.722v11.13h-21.722v16.012h21.722v11.378h-33.224V1.551z"/>
	<path fill="#018973" d="M193.003,0.021c8.611,0,16.016,3.117,22.213,9.351c6.195,6.234,9.295,13.833,9.295,22.797
		c0,8.882-3.059,16.398-9.172,22.55c-6.113,6.151-13.531,9.227-22.252,9.227c-9.137,0-16.727-3.158-22.771-9.476
		c-6.045-6.316-9.066-13.819-9.066-22.507c0-5.82,1.406-11.172,4.223-16.054c2.814-4.882,6.686-8.751,11.613-11.605
		C182.011,1.449,187.317,0.021,193.003,0.021z M192.88,11.358c-5.635,0-10.369,1.958-14.207,5.875s-5.756,8.896-5.756,14.936
		c0,6.73,2.414,12.055,7.248,15.971c3.754,3.062,8.061,4.593,12.922,4.593c5.494,0,10.174-1.987,14.039-5.958
		s5.799-8.867,5.799-14.688c0-5.793-1.947-10.695-5.84-14.709S198.456,11.358,192.88,11.358z"/>
</g>
</svg>
