<?xml version="1.0" encoding="utf-8"?>
<!-- Generator: Adobe Illustrator 17.0.1, SVG Export Plug-In . SVG Version: 6.00 Build 0)  -->
<!DOCTYPE svg PUBLIC "-//W3C//DTD SVG 1.1//EN" "http://www.w3.org/Graphics/SVG/1.1/DTD/svg11.dtd">
<svg version="1.1" id="Layer_1" xmlns="http://www.w3.org/2000/svg" xmlns:xlink="http://www.w3.org/1999/xlink" x="0px" y="0px"
	 width="437.862px" height="104.442px" viewBox="0 0 437.862 104.442" enable-background="new 0 0 437.862 104.442"
	 xml:space="preserve">
<g>
	<path fill="#FFFFFF" d="M67.444,104.015V81.541h4.66c3.361,0,5.8,0.271,7.317,0.81c2.18,0.765,3.883,2.089,5.11,3.973
		c1.228,1.885,1.842,4.13,1.842,6.737c0,2.251-0.487,4.232-1.459,5.943c-0.974,1.711-2.236,2.974-3.789,3.788
		c-1.554,0.815-3.73,1.223-6.531,1.223H67.444z M69.599,101.891h2.598c3.106,0,5.26-0.193,6.462-0.58
		c1.69-0.549,3.02-1.538,3.987-2.969c0.968-1.43,1.452-3.178,1.452-5.243c0-2.168-0.525-4.02-1.574-5.557
		c-1.049-1.536-2.511-2.59-4.385-3.159c-1.405-0.428-3.723-0.642-6.951-0.642h-1.589V101.891z"/>
	<path fill="#FFFFFF" d="M91.117,80.548c0.487,0,0.902,0.174,1.247,0.52c0.345,0.347,0.518,0.765,0.518,1.253
		c0,0.479-0.173,0.892-0.518,1.237c-0.345,0.347-0.76,0.52-1.247,0.52c-0.477,0-0.888-0.173-1.232-0.52
		c-0.345-0.346-0.517-0.758-0.517-1.237c0-0.488,0.172-0.906,0.517-1.253C90.229,80.722,90.641,80.548,91.117,80.548z
		 M90.056,87.393h2.139v16.622h-2.139V87.393z"/>
	<path fill="#FFFFFF" d="M96.641,87.393h2.139v2.979c0.855-1.141,1.803-1.994,2.842-2.56c1.038-0.565,2.169-0.848,3.392-0.848
		c1.242,0,2.345,0.315,3.308,0.947c0.962,0.632,1.673,1.481,2.131,2.552c0.458,1.069,0.688,2.734,0.688,4.995v8.556H109v-7.929
		c0-1.915-0.08-3.193-0.238-3.835c-0.248-1.1-0.724-1.928-1.426-2.482c-0.703-0.556-1.62-0.833-2.751-0.833
		c-1.293,0-2.452,0.428-3.476,1.283c-1.024,0.855-1.699,1.915-2.024,3.178c-0.204,0.825-0.306,2.333-0.306,4.522v6.096h-2.139
		V87.393z"/>
	<path fill="#FFFFFF" d="M115.723,87.393h2.139v2.979c0.855-1.141,1.803-1.994,2.842-2.56c1.038-0.565,2.169-0.848,3.392-0.848
		c1.242,0,2.345,0.315,3.308,0.947c0.962,0.632,1.673,1.481,2.131,2.552c0.458,1.069,0.688,2.734,0.688,4.995v8.556h-2.139v-7.929
		c0-1.915-0.08-3.193-0.238-3.835c-0.248-1.1-0.724-1.928-1.426-2.482c-0.703-0.556-1.62-0.833-2.751-0.833
		c-1.293,0-2.452,0.428-3.476,1.283c-1.024,0.855-1.699,1.915-2.024,3.178c-0.204,0.825-0.306,2.333-0.306,4.522v6.096h-2.139
		V87.393z"/>
	<path fill="#FFFFFF" d="M148.799,98.499l1.803,0.947c-0.592,1.161-1.274,2.099-2.05,2.812c-0.774,0.713-1.646,1.255-2.614,1.627
		c-0.969,0.372-2.064,0.558-3.288,0.558c-2.712,0-4.832-0.889-6.361-2.666s-2.294-3.786-2.294-6.027
		c0-2.107,0.647-3.987,1.942-5.637c1.641-2.099,3.838-3.147,6.591-3.147c2.834,0,5.097,1.075,6.789,3.224
		c1.203,1.518,1.814,3.412,1.835,5.684h-14.957c0.041,1.931,0.658,3.513,1.851,4.748c1.193,1.234,2.667,1.852,4.421,1.852
		c0.847,0,1.67-0.147,2.471-0.441c0.8-0.294,1.48-0.685,2.042-1.172C147.539,100.371,148.146,99.585,148.799,98.499z
		 M148.799,94.023c-0.286-1.141-0.701-2.053-1.247-2.735c-0.546-0.682-1.268-1.231-2.164-1.649c-0.898-0.418-1.841-0.627-2.83-0.627
		c-1.632,0-3.034,0.525-4.207,1.574c-0.856,0.764-1.504,1.909-1.942,3.438H148.799z"/>
	<path fill="#FFFFFF" d="M154.328,87.393h2.185v2.43c0.652-0.958,1.34-1.674,2.063-2.147c0.724-0.473,1.478-0.71,2.262-0.71
		c0.591,0,1.222,0.188,1.895,0.565l-1.115,1.803c-0.448-0.193-0.825-0.29-1.131-0.29c-0.713,0-1.4,0.293-2.063,0.878
		c-0.662,0.586-1.166,1.495-1.513,2.728c-0.265,0.947-0.397,2.862-0.397,5.744v5.622h-2.185V87.393z"/>
</g>
<g>
	<path fill="#FFFFFF" d="M67.478,2.825h14.418c9.293,0,16.197,1.152,20.714,3.456s8.236,6.049,11.161,11.235
		c2.924,5.188,4.387,11.243,4.387,18.168c0,4.927-0.818,9.453-2.454,13.583c-1.636,4.129-3.895,7.556-6.775,10.279
		s-6,4.607-9.358,5.65s-9.177,1.564-17.457,1.564H67.478V2.825z M79.561,14.561v40.335h5.65c5.563,0,9.598-0.638,12.104-1.914
		c2.506-1.276,4.557-3.423,6.15-6.439s2.391-6.729,2.391-11.14c0-6.787-1.898-12.052-5.694-15.794
		c-3.419-3.364-8.91-5.048-16.473-5.048H79.561z"/>
	<path fill="#FFFFFF" d="M126.411,0c2.08,0,3.864,0.754,5.353,2.261c1.487,1.507,2.232,3.332,2.232,5.477
		c0,2.115-0.737,3.919-2.211,5.411s-3.236,2.238-5.287,2.238c-2.109,0-3.908-0.761-5.396-2.282
		c-1.487-1.521-2.231-3.368-2.231-5.541c0-2.087,0.736-3.868,2.21-5.347C122.554,0.739,124.33,0,126.411,0z M120.479,19.473h11.865
		v47.289h-11.865V19.473z"/>
	<path fill="#FFFFFF" d="M165.394,26.079l-7.346,7.346c-2.984-2.956-5.693-4.434-8.128-4.434c-1.333,0-2.376,0.282-3.129,0.848
		c-0.754,0.564-1.13,1.268-1.13,2.107c0,0.638,0.238,1.225,0.717,1.761s1.658,1.268,3.542,2.195l4.347,2.173
		c4.578,2.26,7.722,4.563,9.432,6.911c1.71,2.347,2.564,5.1,2.564,8.258c0,4.202-1.543,7.708-4.629,10.519
		s-7.223,4.216-12.409,4.216c-6.896,0-12.402-2.694-16.517-8.084l7.303-7.954c1.391,1.623,3.021,2.934,4.89,3.934
		s3.527,1.499,4.977,1.499c1.564,0,2.825-0.376,3.781-1.13c0.956-0.753,1.435-1.622,1.435-2.607c0-1.826-1.725-3.607-5.173-5.347
		l-3.998-1.999c-7.65-3.854-11.475-8.678-11.475-14.474c0-3.738,1.44-6.933,4.324-9.584c2.883-2.651,6.57-3.977,11.062-3.977
		c3.071,0,5.962,0.673,8.672,2.021C161.214,21.624,163.51,23.558,165.394,26.079z"/>
	<path fill="#FFFFFF" d="M215.222,29.034l-9.878,5.434c-1.857-1.941-3.692-3.288-5.506-4.042c-1.813-0.754-3.938-1.131-6.375-1.131
		c-4.438,0-8.029,1.324-10.77,3.972c-2.742,2.646-4.112,6.039-4.112,10.176c0,4.021,1.319,7.306,3.96,9.852
		c2.64,2.546,6.106,3.818,10.4,3.818c5.309,0,9.443-1.811,12.402-5.433l9.356,6.406c-5.071,6.596-12.229,9.893-21.472,9.893
		c-8.316,0-14.829-2.462-19.537-7.389c-4.709-4.926-7.063-10.692-7.063-17.299c0-4.578,1.145-8.794,3.434-12.648
		c2.289-3.854,5.483-6.882,9.584-9.084c4.1-2.201,8.686-3.303,13.757-3.303c4.694,0,8.91,0.934,12.648,2.803
		C209.788,22.928,212.845,25.587,215.222,29.034z"/>
	<path fill="#FFFFFF" d="M219.194,19.473h11.996v22.775c0,4.434,0.305,7.513,0.914,9.236c0.61,1.724,1.591,3.063,2.941,4.021
		c1.351,0.956,3.014,1.434,4.989,1.434c1.975,0,3.652-0.471,5.032-1.412s2.403-2.325,3.071-4.151
		c0.494-1.361,0.741-4.273,0.741-8.736V19.473h11.866V39.51c0,8.258-0.652,13.908-1.956,16.951c-1.594,3.709-3.941,6.556-7.041,8.54
		c-3.102,1.984-7.042,2.978-11.822,2.978c-5.188,0-9.382-1.159-12.583-3.477c-3.202-2.318-5.455-5.549-6.759-9.693
		c-0.928-2.868-1.391-8.084-1.391-15.646V19.473z"/>
	<path fill="#FFFFFF" d="M294.926,26.079l-7.346,7.346c-2.984-2.956-5.693-4.434-8.128-4.434c-1.333,0-2.376,0.282-3.129,0.848
		c-0.754,0.564-1.13,1.268-1.13,2.107c0,0.638,0.238,1.225,0.717,1.761s1.658,1.268,3.542,2.195l4.347,2.173
		c4.578,2.26,7.722,4.563,9.432,6.911c1.71,2.347,2.564,5.1,2.564,8.258c0,4.202-1.543,7.708-4.629,10.519
		s-7.223,4.216-12.409,4.216c-6.896,0-12.402-2.694-16.517-8.084l7.303-7.954c1.391,1.623,3.021,2.934,4.89,3.934
		s3.527,1.499,4.977,1.499c1.564,0,2.825-0.376,3.781-1.13c0.956-0.753,1.435-1.622,1.435-2.607c0-1.826-1.725-3.607-5.173-5.347
		l-3.998-1.999c-7.65-3.854-11.475-8.678-11.475-14.474c0-3.738,1.44-6.933,4.324-9.584c2.883-2.651,6.57-3.977,11.062-3.977
		c3.071,0,5.962,0.673,8.672,2.021C290.746,21.624,293.042,23.558,294.926,26.079z"/>
	<path fill="#FFFFFF" d="M327.411,26.079l-7.346,7.346c-2.984-2.956-5.693-4.434-8.128-4.434c-1.333,0-2.376,0.282-3.129,0.848
		c-0.754,0.564-1.13,1.268-1.13,2.107c0,0.638,0.238,1.225,0.717,1.761s1.658,1.268,3.542,2.195l4.347,2.173
		c4.578,2.26,7.722,4.563,9.432,6.911c1.71,2.347,2.564,5.1,2.564,8.258c0,4.202-1.543,7.708-4.629,10.519
		s-7.223,4.216-12.409,4.216c-6.896,0-12.402-2.694-16.517-8.084l7.303-7.954c1.391,1.623,3.021,2.934,4.89,3.934
		s3.527,1.499,4.977,1.499c1.564,0,2.825-0.376,3.781-1.13c0.956-0.753,1.435-1.622,1.435-2.607c0-1.826-1.725-3.607-5.173-5.347
		l-3.998-1.999c-7.65-3.854-11.475-8.678-11.475-14.474c0-3.738,1.44-6.933,4.324-9.584c2.883-2.651,6.57-3.977,11.062-3.977
		c3.071,0,5.962,0.673,8.672,2.021C323.231,21.624,325.527,23.558,327.411,26.079z"/>
	<path fill="#FFFFFF" d="M335.577,0c2.08,0,3.864,0.754,5.353,2.261c1.487,1.507,2.232,3.332,2.232,5.477
		c0,2.115-0.737,3.919-2.211,5.411s-3.236,2.238-5.287,2.238c-2.109,0-3.908-0.761-5.396-2.282
		c-1.487-1.521-2.231-3.368-2.231-5.541c0-2.087,0.736-3.868,2.21-5.347C331.72,0.739,333.496,0,335.577,0z M329.645,19.473h11.865
		v47.289h-11.865V19.473z"/>
	<path fill="#FFFFFF" d="M367.823,18.256c4.462,0,8.656,1.115,12.583,3.347s6.99,5.259,9.193,9.084
		c2.201,3.824,3.303,7.954,3.303,12.387c0,4.463-1.108,8.636-3.325,12.519c-2.216,3.883-5.237,6.918-9.062,9.105
		c-3.825,2.188-8.041,3.281-12.648,3.281c-6.78,0-12.568-2.412-17.364-7.236c-4.796-4.825-7.193-10.686-7.193-17.582
		c0-7.389,2.709-13.546,8.128-18.472C356.189,20.4,361.651,18.256,367.823,18.256z M368.02,29.426c-3.687,0-6.756,1.282-9.209,3.847
		s-3.679,5.846-3.679,9.845c0,4.114,1.212,7.447,3.636,9.997c2.423,2.55,5.492,3.824,9.208,3.824c3.715,0,6.807-1.289,9.273-3.868
		c2.467-2.578,3.701-5.896,3.701-9.953s-1.213-7.353-3.636-9.889C374.891,30.693,371.793,29.426,368.02,29.426z"/>
	<path fill="#FFFFFF" d="M395.919,19.473h11.866v4.846c2.69-2.268,5.128-3.846,7.313-4.732s4.42-1.33,6.706-1.33
		c4.688,0,8.665,1.637,11.936,4.911c2.748,2.781,4.123,6.896,4.123,12.344v31.251h-11.735V46.053c0-5.644-0.254-9.391-0.76-11.243
		s-1.387-3.264-2.645-4.233s-2.812-1.455-4.661-1.455c-2.399,0-4.459,0.804-6.179,2.41c-1.721,1.606-2.913,3.828-3.578,6.664
		c-0.347,1.477-0.52,4.675-0.52,9.594v18.973h-11.866V19.473z"/>
</g>
<path fill="#FFFFFF" d="M0,2.866v63.912h11.863v22.513L29.514,66.78l34.398-0.001V2.866H0z M24.945,30.556l0.042,29.776h-3.918
	l0.028-29.776l-4.899-1.801l0.721-19.138h1.553l1.081,16.396l1.557,0.36l1.081-16.743h1.553l1.081,16.743l1.475-0.36l1.081-16.396
	h1.553l0.721,19.138L24.945,30.556z M44.14,30.915c0,17.789,0,29.417,0,29.417h-4.213l0.045-26.681
	c-6.207-14.607-3.895-21.243,4.168-23.924V30.915z"/>
</svg>
