<?xml version="1.0" encoding="utf-8"?>
<!-- Generator: Adobe Illustrator 17.0.1, SVG Export Plug-In . SVG Version: 6.00 Build 0)  -->
<!DOCTYPE svg PUBLIC "-//W3C//DTD SVG 1.1//EN" "http://www.w3.org/Graphics/SVG/1.1/DTD/svg11.dtd">
<svg version="1.1" id="Layer_1" xmlns="http://www.w3.org/2000/svg" xmlns:xlink="http://www.w3.org/1999/xlink" x="0px" y="0px"
	 width="434.303px" height="104.443px" viewBox="0 0 434.303 104.443" enable-background="new 0 0 434.303 104.443"
	 xml:space="preserve">
<polygon fill="#A891C4" points="0,66.779 11.863,66.779 11.863,89.292 29.514,66.78 63.912,66.779 63.912,2.867 0,2.867 "/>
<polygon fill="#E3DAEC" points="63.912,27.903 44.14,57.101 63.896,61.28 "/>
<g>
	<path fill="#9B3793" d="M63.885,104.015V81.542h4.66c3.361,0,5.8,0.271,7.318,0.81c2.179,0.765,3.883,2.089,5.11,3.973
		c1.227,1.885,1.841,4.13,1.841,6.737c0,2.251-0.486,4.232-1.459,5.943s-2.236,2.974-3.789,3.788
		c-1.553,0.815-3.73,1.223-6.531,1.223H63.885z M66.039,101.891h2.597c3.106,0,5.261-0.193,6.462-0.58
		c1.691-0.549,3.02-1.538,3.988-2.969c0.967-1.43,1.451-3.178,1.451-5.243c0-2.168-0.524-4.02-1.574-5.557
		c-1.049-1.536-2.511-2.59-4.384-3.159c-1.406-0.428-3.723-0.642-6.952-0.642h-1.589V101.891z"/>
	<path fill="#9B3793" d="M87.558,80.548c0.487,0,0.903,0.174,1.248,0.52c0.345,0.347,0.517,0.765,0.517,1.253
		c0,0.479-0.172,0.892-0.517,1.237c-0.345,0.347-0.761,0.52-1.248,0.52c-0.477,0-0.887-0.173-1.232-0.52
		c-0.345-0.346-0.517-0.758-0.517-1.237c0-0.488,0.172-0.906,0.517-1.253C86.671,80.722,87.081,80.548,87.558,80.548z
		 M86.496,87.393h2.139v16.622h-2.139V87.393z"/>
	<path fill="#9B3793" d="M93.081,87.393h2.139v2.979c0.856-1.141,1.803-1.994,2.842-2.56s2.169-0.848,3.392-0.848
		c1.243,0,2.345,0.315,3.308,0.947s1.673,1.481,2.131,2.552c0.458,1.069,0.688,2.734,0.688,4.995v8.556h-2.139v-7.929
		c0-1.915-0.079-3.193-0.238-3.835c-0.248-1.1-0.723-1.928-1.426-2.482c-0.703-0.556-1.62-0.833-2.75-0.833
		c-1.294,0-2.453,0.428-3.477,1.283c-1.023,0.855-1.699,1.915-2.024,3.178c-0.204,0.825-0.306,2.333-0.306,4.522v6.096h-2.139
		V87.393z"/>
	<path fill="#9B3793" d="M112.162,87.393h2.139v2.979c0.856-1.141,1.803-1.994,2.842-2.56s2.169-0.848,3.392-0.848
		c1.243,0,2.345,0.315,3.308,0.947s1.673,1.481,2.131,2.552c0.458,1.069,0.688,2.734,0.688,4.995v8.556h-2.139v-7.929
		c0-1.915-0.079-3.193-0.238-3.835c-0.248-1.1-0.723-1.928-1.426-2.482c-0.703-0.556-1.62-0.833-2.75-0.833
		c-1.294,0-2.453,0.428-3.477,1.283c-1.023,0.855-1.699,1.915-2.024,3.178c-0.204,0.825-0.306,2.333-0.306,4.522v6.096h-2.139
		V87.393z"/>
	<path fill="#9B3793" d="M145.238,98.5l1.803,0.947c-0.591,1.161-1.274,2.099-2.049,2.812s-1.646,1.255-2.615,1.627
		c-0.968,0.372-2.064,0.558-3.288,0.558c-2.712,0-4.832-0.889-6.361-2.666c-1.529-1.777-2.293-3.786-2.293-6.027
		c0-2.107,0.647-3.987,1.942-5.637c1.641-2.099,3.838-3.147,6.59-3.147c2.834,0,5.097,1.075,6.79,3.224
		c1.203,1.518,1.814,3.412,1.835,5.684h-14.957c0.041,1.931,0.658,3.513,1.851,4.748c1.193,1.234,2.667,1.852,4.42,1.852
		c0.846,0,1.669-0.147,2.47-0.441c0.8-0.294,1.481-0.685,2.042-1.172S144.586,99.585,145.238,98.5z M145.238,94.024
		c-0.285-1.141-0.701-2.053-1.247-2.735c-0.546-0.682-1.267-1.231-2.165-1.649s-1.841-0.627-2.83-0.627
		c-1.632,0-3.034,0.525-4.207,1.574c-0.857,0.764-1.504,1.909-1.943,3.438H145.238z"/>
	<path fill="#9B3793" d="M150.769,87.393h2.185v2.43c0.652-0.958,1.339-1.674,2.063-2.147c0.723-0.473,1.477-0.71,2.261-0.71
		c0.59,0,1.222,0.188,1.894,0.565l-1.115,1.803c-0.448-0.193-0.825-0.29-1.13-0.29c-0.713,0-1.4,0.293-2.063,0.878
		c-0.662,0.586-1.167,1.495-1.513,2.728c-0.265,0.947-0.397,2.862-0.397,5.744v5.622h-2.185V87.393z"/>
</g>
<polygon fill="#CCA6CD" points="0,47.766 21.097,30.556 21.069,52.228 "/>
<polygon fill="#9B3793" points="0,2.867 36.628,2.867 44.14,9.728 39.972,33.652 24.945,30.556 16.198,28.755 0,24.491 "/>
<polygon fill="#C87FB4" points="44.14,9.728 44.14,57.101 63.912,27.903 "/>
<polygon fill="#D39AC5" points="36.628,2.867 63.912,2.867 63.912,27.903 "/>
<polygon fill="#ECD9EA" points="24.945,30.556 24.987,53.042 39.927,56.22 39.972,33.652 "/>
<g>
	<path fill="#9B3793" d="M63.917,2.825h14.418c9.293,0,16.198,1.152,20.714,3.456s8.237,6.049,11.161,11.235
		c2.924,5.188,4.386,11.243,4.386,18.168c0,4.927-0.818,9.453-2.454,13.583c-1.636,4.129-3.894,7.556-6.775,10.28
		s-6,4.607-9.358,5.65s-9.177,1.564-17.457,1.564H63.917V2.825z M76,14.561v40.335h5.65c5.563,0,9.598-0.638,12.104-1.915
		c2.506-1.276,4.557-3.423,6.15-6.439c1.593-3.017,2.391-6.729,2.391-11.14c0-6.787-1.898-12.052-5.694-15.794
		c-3.419-3.364-8.91-5.048-16.473-5.048H76z"/>
	<path fill="#9B3793" d="M122.85,0c2.08,0,3.864,0.754,5.353,2.261c1.488,1.507,2.232,3.332,2.232,5.477
		c0,2.115-0.737,3.919-2.21,5.411s-3.236,2.238-5.287,2.238c-2.109,0-3.908-0.761-5.396-2.282c-1.488-1.521-2.231-3.368-2.231-5.541
		c0-2.087,0.736-3.868,2.21-5.347C118.992,0.739,120.769,0,122.85,0z M116.917,19.473h11.866v47.29h-11.866V19.473z"/>
	<path fill="#9B3793" d="M161.833,26.079l-7.345,7.346c-2.985-2.956-5.694-4.434-8.128-4.434c-1.333,0-2.376,0.282-3.129,0.848
		c-0.754,0.564-1.13,1.268-1.13,2.107c0,0.638,0.239,1.225,0.717,1.761s1.659,1.268,3.542,2.195l4.346,2.173
		c4.578,2.26,7.722,4.563,9.432,6.911c1.709,2.347,2.564,5.1,2.564,8.258c0,4.203-1.543,7.708-4.629,10.519
		s-7.222,4.216-12.409,4.216c-6.897,0-12.402-2.694-16.517-8.084l7.302-7.955c1.391,1.624,3.021,2.934,4.89,3.934
		c1.869,1,3.527,1.499,4.977,1.499c1.564,0,2.825-0.376,3.781-1.13c0.956-0.753,1.435-1.622,1.435-2.607
		c0-1.827-1.725-3.608-5.172-5.347l-3.999-1.999c-7.649-3.854-11.475-8.678-11.475-14.474c0-3.738,1.441-6.933,4.325-9.584
		s6.57-3.977,11.062-3.977c3.071,0,5.961,0.673,8.671,2.021C157.653,21.624,159.949,23.558,161.833,26.079z"/>
	<path fill="#9B3793" d="M211.661,29.034l-9.878,5.434c-1.857-1.941-3.692-3.288-5.506-4.042c-1.813-0.754-3.938-1.131-6.375-1.131
		c-4.438,0-8.029,1.324-10.77,3.972c-2.742,2.646-4.112,6.039-4.112,10.176c0,4.021,1.319,7.306,3.96,9.852
		c2.64,2.546,6.106,3.819,10.4,3.819c5.309,0,9.443-1.811,12.402-5.433l9.356,6.407c-5.071,6.596-12.229,9.893-21.472,9.893
		c-8.316,0-14.829-2.462-19.537-7.389c-4.709-4.926-7.063-10.693-7.063-17.299c0-4.578,1.145-8.794,3.434-12.648
		c2.289-3.854,5.483-6.882,9.584-9.084c4.1-2.201,8.686-3.303,13.757-3.303c4.694,0,8.91,0.934,12.648,2.803
		C206.228,22.928,209.284,25.587,211.661,29.034z"/>
	<path fill="#9B3793" d="M215.634,19.473h11.996v22.775c0,4.434,0.305,7.513,0.914,9.236c0.61,1.724,1.591,3.064,2.941,4.021
		c1.351,0.956,3.014,1.434,4.989,1.434c1.975,0,3.652-0.471,5.032-1.412s2.403-2.326,3.071-4.152
		c0.494-1.361,0.741-4.273,0.741-8.736V19.473h11.866V39.51c0,8.258-0.652,13.908-1.956,16.952c-1.594,3.709-3.941,6.556-7.041,8.54
		c-3.102,1.984-7.042,2.978-11.822,2.978c-5.188,0-9.382-1.159-12.583-3.477c-3.202-2.318-5.455-5.549-6.759-9.693
		c-0.928-2.869-1.391-8.084-1.391-15.647V19.473z"/>
	<path fill="#9B3793" d="M291.365,26.079l-7.346,7.346c-2.984-2.956-5.693-4.434-8.128-4.434c-1.333,0-2.376,0.282-3.129,0.848
		c-0.754,0.564-1.13,1.268-1.13,2.107c0,0.638,0.238,1.225,0.717,1.761s1.658,1.268,3.542,2.195l4.347,2.173
		c4.578,2.26,7.722,4.563,9.432,6.911c1.71,2.347,2.564,5.1,2.564,8.258c0,4.203-1.543,7.708-4.629,10.519
		s-7.223,4.216-12.409,4.216c-6.896,0-12.402-2.694-16.517-8.084l7.303-7.955c1.391,1.624,3.021,2.934,4.89,3.934
		s3.527,1.499,4.977,1.499c1.564,0,2.825-0.376,3.781-1.13c0.956-0.753,1.435-1.622,1.435-2.607c0-1.827-1.725-3.608-5.173-5.347
		l-3.998-1.999c-7.65-3.854-11.475-8.678-11.475-14.474c0-3.738,1.44-6.933,4.324-9.584c2.883-2.651,6.57-3.977,11.062-3.977
		c3.071,0,5.962,0.673,8.672,2.021C287.186,21.624,289.482,23.558,291.365,26.079z"/>
	<path fill="#9B3793" d="M323.851,26.079l-7.346,7.346c-2.984-2.956-5.693-4.434-8.128-4.434c-1.333,0-2.376,0.282-3.129,0.848
		c-0.754,0.564-1.13,1.268-1.13,2.107c0,0.638,0.238,1.225,0.717,1.761s1.658,1.268,3.542,2.195l4.347,2.173
		c4.578,2.26,7.722,4.563,9.432,6.911c1.71,2.347,2.564,5.1,2.564,8.258c0,4.203-1.543,7.708-4.629,10.519
		s-7.223,4.216-12.409,4.216c-6.896,0-12.402-2.694-16.517-8.084l7.303-7.955c1.391,1.624,3.021,2.934,4.89,3.934
		s3.527,1.499,4.977,1.499c1.564,0,2.825-0.376,3.781-1.13c0.956-0.753,1.435-1.622,1.435-2.607c0-1.827-1.725-3.608-5.173-5.347
		l-3.998-1.999c-7.65-3.854-11.475-8.678-11.475-14.474c0-3.738,1.44-6.933,4.324-9.584c2.883-2.651,6.57-3.977,11.062-3.977
		c3.071,0,5.962,0.673,8.672,2.021C319.671,21.624,321.967,23.558,323.851,26.079z"/>
	<path fill="#9B3793" d="M332.018,0c2.08,0,3.864,0.754,5.353,2.261c1.487,1.507,2.232,3.332,2.232,5.477
		c0,2.115-0.737,3.919-2.211,5.411s-3.236,2.238-5.287,2.238c-2.109,0-3.908-0.761-5.396-2.282
		c-1.487-1.521-2.231-3.368-2.231-5.541c0-2.087,0.736-3.868,2.21-5.347C328.16,0.739,329.937,0,332.018,0z M326.085,19.473h11.865
		v47.29h-11.865V19.473z"/>
	<path fill="#9B3793" d="M364.264,18.256c4.462,0,8.656,1.115,12.583,3.347s6.99,5.259,9.193,9.084
		c2.201,3.824,3.303,7.954,3.303,12.387c0,4.463-1.108,8.636-3.325,12.519c-2.216,3.883-5.237,6.918-9.062,9.105
		c-3.825,2.188-8.041,3.281-12.648,3.281c-6.78,0-12.568-2.412-17.364-7.236c-4.796-4.825-7.193-10.686-7.193-17.583
		c0-7.389,2.709-13.546,8.128-18.472C352.63,20.4,358.092,18.256,364.264,18.256z M364.46,29.426c-3.687,0-6.756,1.282-9.209,3.847
		s-3.679,5.846-3.679,9.845c0,4.114,1.212,7.447,3.636,9.997c2.423,2.55,5.492,3.825,9.208,3.825c3.715,0,6.807-1.289,9.273-3.869
		c2.467-2.578,3.701-5.896,3.701-9.953s-1.213-7.353-3.636-9.889C371.331,30.693,368.233,29.426,364.46,29.426z"/>
	<path fill="#9B3793" d="M392.359,19.473h11.866v4.846c2.69-2.268,5.128-3.846,7.313-4.732s4.42-1.33,6.706-1.33
		c4.688,0,8.665,1.637,11.936,4.911c2.748,2.781,4.123,6.896,4.123,12.344v31.251h-11.735V46.053c0-5.644-0.254-9.391-0.76-11.243
		s-1.387-3.264-2.645-4.233s-2.812-1.455-4.661-1.455c-2.399,0-4.459,0.804-6.179,2.41c-1.721,1.606-2.913,3.828-3.578,6.664
		c-0.347,1.477-0.52,4.675-0.52,9.594v18.973h-11.866V19.473z"/>
</g>
<polygon fill="#8A5187" points="0,47.766 21.097,30.556 16.198,28.755 0,24.491 "/>
<path fill-rule="evenodd" clip-rule="evenodd" fill="#FFFFFF" d="M21.097,30.556l-4.899-1.801l0.721-19.138h1.553l1.081,16.396
	l1.557,0.36L22.191,9.63h1.553l1.081,16.743l1.475-0.36l1.081-16.396h1.553l0.721,19.138l-4.709,1.801l0.042,29.776h-3.918
	L21.097,30.556z M39.972,33.652c-6.207-14.607-3.895-21.243,4.168-23.924v21.187c0,17.789,0,29.417,0,29.417h-4.213L39.972,33.652z"
	/>
</svg>
