<?xml version="1.0" encoding="utf-8"?>
<!-- Generator: Adobe Illustrator 17.1.0, SVG Export Plug-In . SVG Version: 6.00 Build 0)  -->
<!DOCTYPE svg PUBLIC "-//W3C//DTD SVG 1.1//EN" "http://www.w3.org/Graphics/SVG/1.1/DTD/svg11.dtd">
<svg version="1.1" id="Layer_1" xmlns="http://www.w3.org/2000/svg" xmlns:xlink="http://www.w3.org/1999/xlink" x="0px" y="0px"
	 viewBox="0 0 341.5 108.5" enable-background="new 0 0 341.5 108.5" xml:space="preserve">
<g>
	<path fill="#FFFFFF" d="M76.2,84.9c2.6,0,4.7,0.9,6.4,2.8c1.5,1.7,2.3,3.7,2.3,6c0,2.3-0.8,4.4-2.4,6.1c-1.6,1.7-3.7,2.6-6.2,2.6
		c-2.6,0-4.6-0.9-6.3-2.6s-2.4-3.8-2.4-6.1c0-2.3,0.8-4.3,2.3-6C71.5,85.9,73.6,84.9,76.2,84.9z M76.2,87c-1.8,0-3.3,0.7-4.6,2
		s-1.9,2.9-1.9,4.8c0,1.2,0.3,2.3,0.9,3.4c0.6,1,1.4,1.8,2.4,2.4c1,0.6,2.1,0.8,3.3,0.8s2.3-0.3,3.3-0.8c1-0.6,1.8-1.4,2.4-2.4
		c0.6-1,0.9-2.2,0.9-3.4c0-1.9-0.6-3.5-1.9-4.8C79.5,87.7,77.9,87,76.2,87z"/>
	<path fill="#FFFFFF" d="M95.6,78.9V81c-0.8-0.3-1.5-0.5-2-0.5c-0.4,0-0.8,0.1-1,0.3c-0.3,0.2-0.4,0.4-0.5,0.6
		c-0.1,0.2-0.1,0.8-0.1,1.7l0,2.2h3.5v1.8h-3.5l0,14.8h-2.1V87.2h-2.2v-1.8h2.2v-2.6c0-1.2,0.1-2,0.3-2.6c0.2-0.5,0.6-0.9,1.1-1.2
		s1.2-0.5,1.9-0.5C93.8,78.5,94.7,78.6,95.6,78.9z"/>
	<path fill="#FFFFFF" d="M105.4,81.7v-2.2h12.3v2.2h-5V102h-2.3V81.7H105.4z"/>
	<path fill="#FFFFFF" d="M120.6,78.9h2.1v9.4c0.9-1.1,1.8-2,2.9-2.6s2.2-0.8,3.4-0.8c1.2,0,2.3,0.3,3.3,0.9c1,0.6,1.7,1.5,2.1,2.5
		s0.7,2.7,0.7,5v8.6H133V94c0-1.9-0.1-3.2-0.2-3.8c-0.3-1.1-0.7-1.9-1.4-2.5c-0.7-0.6-1.6-0.8-2.7-0.8c-1.3,0-2.5,0.4-3.5,1.3
		c-1,0.9-1.7,1.9-2,3.2c-0.2,0.8-0.3,2.3-0.3,4.5v6.1h-2.1L120.6,78.9L120.6,78.9z"/>
	<path fill="#FFFFFF" d="M140.4,78.5c0.5,0,0.9,0.2,1.2,0.5c0.3,0.3,0.5,0.8,0.5,1.3c0,0.5-0.2,0.9-0.5,1.2
		c-0.3,0.3-0.8,0.5-1.2,0.5c-0.5,0-0.9-0.2-1.2-0.5c-0.3-0.3-0.5-0.8-0.5-1.2c0-0.5,0.2-0.9,0.5-1.3
		C139.5,78.7,139.9,78.5,140.4,78.5z M139.4,85.3h2.1V102h-2.1L139.4,85.3L139.4,85.3z"/>
	<path fill="#FFFFFF" d="M145.9,85.3h2.1v3c0.9-1.1,1.8-2,2.8-2.6c1-0.6,2.2-0.8,3.4-0.8c1.2,0,2.3,0.3,3.3,0.9
		c1,0.6,1.7,1.5,2.1,2.6c0.5,1.1,0.7,2.7,0.7,5v8.6h-2.1V94c0-1.9-0.1-3.2-0.2-3.8c-0.2-1.1-0.7-1.9-1.4-2.5
		c-0.7-0.6-1.6-0.8-2.8-0.8c-1.3,0-2.5,0.4-3.5,1.3c-1,0.9-1.7,1.9-2,3.2c-0.2,0.8-0.3,2.3-0.3,4.5v6.1h-2.1V85.3z"/>
	<path fill="#FFFFFF" d="M179.4,85.3h2.1v13.2c0,2.3-0.2,4-0.6,5.1c-0.6,1.5-1.5,2.7-2.9,3.5s-3.1,1.2-5,1.2c-1.4,0-2.7-0.2-3.8-0.6
		c-1.1-0.4-2.1-0.9-2.8-1.6c-0.7-0.7-1.4-1.7-2-3h2.3c0.6,1.1,1.4,1.9,2.4,2.4c1,0.5,2.2,0.8,3.7,0.8c1.5,0,2.7-0.3,3.7-0.8
		c1-0.5,1.7-1.2,2.1-2s0.6-2.1,0.6-4v-0.9c-0.8,1-1.8,1.8-3,2.3s-2.4,0.8-3.7,0.8c-1.5,0-3-0.4-4.3-1.1c-1.3-0.8-2.4-1.8-3.1-3.1
		c-0.7-1.3-1.1-2.7-1.1-4.2c0-1.5,0.4-3,1.1-4.3c0.8-1.3,1.8-2.4,3.2-3.2c1.4-0.8,2.8-1.2,4.3-1.2c1.2,0,2.4,0.3,3.5,0.8
		c1.1,0.5,2.1,1.4,3.1,2.5L179.4,85.3L179.4,85.3z M173,87c-1.2,0-2.3,0.3-3.4,0.9c-1,0.6-1.9,1.4-2.4,2.4c-0.6,1-0.9,2.2-0.9,3.4
		c0,1.8,0.6,3.3,1.8,4.5c1.2,1.2,2.8,1.8,4.8,1.8c2,0,3.5-0.6,4.7-1.8c1.2-1.2,1.8-2.7,1.8-4.7c0-1.3-0.3-2.4-0.8-3.4
		c-0.6-1-1.3-1.8-2.3-2.3C175.3,87.3,174.2,87,173,87z"/>
	<path fill="#FFFFFF" d="M194.4,87.2l-1.4,1.4c-1.1-1.1-2.3-1.7-3.4-1.7c-0.7,0-1.3,0.2-1.8,0.7c-0.5,0.5-0.7,1-0.7,1.6
		c0,0.5,0.2,1.1,0.6,1.5c0.4,0.5,1.3,1.1,2.6,1.8c1.6,0.8,2.7,1.6,3.2,2.4c0.6,0.8,0.8,1.6,0.8,2.6c0,1.4-0.5,2.5-1.4,3.5
		c-1,0.9-2.2,1.4-3.6,1.4c-1,0-1.9-0.2-2.7-0.6c-0.9-0.4-1.6-1-2.2-1.7l1.3-1.5c1.1,1.2,2.3,1.8,3.5,1.8c0.9,0,1.6-0.3,2.2-0.8
		c0.6-0.6,0.9-1.2,0.9-1.9c0-0.6-0.2-1.2-0.6-1.6c-0.4-0.5-1.3-1.1-2.7-1.8c-1.5-0.8-2.5-1.5-3.1-2.3c-0.5-0.8-0.8-1.6-0.8-2.6
		c0-1.3,0.4-2.3,1.3-3.1s2-1.3,3.3-1.3C191.3,84.9,192.9,85.7,194.4,87.2z"/>
</g>
<g>
	<path fill="#FFFFFF" d="M67.4,0.8h12.1v63.9H67.4V0.8z"/>
	<path fill="#FFFFFF" d="M85.2,17.4h11.9v4.8c2.7-2.3,5.1-3.8,7.3-4.7s4.4-1.3,6.7-1.3c4.7,0,8.7,1.6,11.9,4.9
		c2.7,2.8,4.1,6.9,4.1,12.3v31.3h-11.7V44c0-5.6-0.3-9.4-0.8-11.2s-1.4-3.3-2.6-4.2s-2.8-1.5-4.7-1.5c-2.4,0-4.5,0.8-6.2,2.4
		c-1.7,1.6-2.9,3.8-3.6,6.7c-0.3,1.5-0.5,4.7-0.5,9.6v19H85.2V17.4z"/>
	<path fill="#FFFFFF" d="M133.4,0h11.9v17.4h7v10.2h-7v37.1h-11.9V27.6h-6.1V17.4h6.1L133.4,0L133.4,0z"/>
	<path fill="#FFFFFF" d="M199.4,44.5h-38.1c0.6,3.4,2,6,4.4,8s5.4,3,9.1,3c4.4,0,8.2-1.5,11.4-4.7l10,4.7c-2.5,3.5-5.5,6.2-9,7.8
		c-3.5,1.7-7.6,2.5-12.4,2.5c-7.4,0-13.5-2.3-18.1-7c-4.7-4.7-7-10.5-7-17.6c0-7.2,2.3-13.2,7-18c4.6-4.8,10.5-7.1,17.5-7.1
		c7.4,0,13.5,2.4,18.2,7.1c4.7,4.8,7,11.1,7,18.9L199.4,44.5z M187.5,35.2c-0.8-2.6-2.3-4.8-4.6-6.4s-5-2.5-8-2.5
		c-3.3,0-6.2,0.9-8.7,2.8c-1.6,1.2-3,3.2-4.4,6.1L187.5,35.2L187.5,35.2z"/>
	<path fill="#FFFFFF" d="M199.5,17.4h10.2v6c1.1-2.3,2.6-4.1,4.4-5.3c1.8-1.2,3.8-1.8,6-1.8c1.5,0,3.1,0.4,4.8,1.2l-3.7,10.2
		c-1.4-0.7-2.5-1-3.4-1c-1.8,0-3.4,1.1-4.6,3.4c-1.3,2.3-1.9,6.7-1.9,13.3l0,2.3v19.1h-11.8V17.4z"/>
	<path fill="#FFFFFF" d="M224.1,17.4H236v4.8c2.7-2.3,5.1-3.8,7.3-4.7s4.4-1.3,6.7-1.3c4.7,0,8.7,1.6,11.9,4.9
		c2.7,2.8,4.1,6.9,4.1,12.3v31.3h-11.7V44c0-5.6-0.3-9.4-0.8-11.2s-1.4-3.3-2.6-4.2s-2.8-1.5-4.7-1.5c-2.4,0-4.5,0.8-6.2,2.4
		c-1.7,1.6-2.9,3.8-3.6,6.7c-0.3,1.5-0.5,4.7-0.5,9.6v19h-11.9L224.1,17.4L224.1,17.4z"/>
	<path fill="#FFFFFF" d="M318.2,44.5h-38.1c0.5,3.4,2,6,4.4,8s5.4,3,9.1,3c4.4,0,8.2-1.5,11.4-4.7l10,4.7c-2.5,3.5-5.5,6.2-9,7.8
		c-3.5,1.7-7.6,2.5-12.4,2.5c-7.4,0-13.5-2.3-18.1-7c-4.7-4.7-7-10.5-7-17.6c0-7.2,2.3-13.2,7-18c4.6-4.8,10.5-7.1,17.5-7.1
		c7.4,0,13.5,2.4,18.2,7.1c4.7,4.8,7,11.1,7,18.9L318.2,44.5z M306.3,35.2c-0.8-2.6-2.3-4.8-4.6-6.4s-5-2.5-8-2.5
		c-3.3,0-6.2,0.9-8.7,2.8c-1.6,1.2-3,3.2-4.4,6.1L306.3,35.2L306.3,35.2z"/>
	<path fill="#FFFFFF" d="M322.6,0h11.9v17.4h7v10.2h-7v37.1h-11.9V27.6h-6.1V17.4h6.1V0z"/>
</g>
<path fill="#FFFFFF" d="M0,0.8v63.9h11.9v22.5l17.7-22.5l34.4,0V0.8H0z M17.6,46.6c-3.5,0-6.3-2.8-6.3-6.3s2.8-6.3,6.3-6.3
	s6.3,2.8,6.3,6.3S21.1,46.6,17.6,46.6z M23.4,20c0-5.7,4.6-10.3,10.3-10.3S44,14.3,44,20s-4.6,10.3-10.3,10.3S23.4,25.6,23.4,20z
	 M42.7,54.6c-5,0-9-4-9-9s4-9,9-9s9,4,9,9C51.7,50.5,47.7,54.6,42.7,54.6z"/>
</svg>
