<?xml version="1.0" encoding="utf-8"?>
<!-- Generator: Adobe Illustrator 17.0.1, SVG Export Plug-In . SVG Version: 6.00 Build 0)  -->
<!DOCTYPE svg PUBLIC "-//W3C//DTD SVG 1.1//EN" "http://www.w3.org/Graphics/SVG/1.1/DTD/svg11.dtd">
<svg version="1.1" id="Layer_1" xmlns="http://www.w3.org/2000/svg" xmlns:xlink="http://www.w3.org/1999/xlink" x="0px" y="0px"
	 width="337.919px" height="108.478px" viewBox="0 0 337.919 108.478" enable-background="new 0 0 337.919 108.478"
	 xml:space="preserve">
<polygon fill="#99CA3C" points="0,64.733 11.863,64.733 11.863,87.246 29.514,64.734 63.912,64.733 63.912,0.821 0,0.821 "/>
<polygon fill="#ADD261" points="63.912,25.857 42.692,45.534 46.713,64.733 63.912,64.733 "/>
<g>
	<path fill="#3B4B21" d="M72.61,84.92c2.561,0,4.683,0.927,6.367,2.78c1.53,1.691,2.295,3.692,2.295,6.004
		c0,2.322-0.809,4.353-2.426,6.089s-3.696,2.604-6.236,2.604c-2.551,0-4.635-0.868-6.252-2.604
		c-1.617-1.736-2.426-3.767-2.426-6.089c0-2.301,0.765-4.298,2.295-5.988C67.911,85.852,70.039,84.92,72.61,84.92z M72.602,87.013
		c-1.778,0-3.307,0.657-4.584,1.971c-1.277,1.314-1.916,2.903-1.916,4.767c0,1.202,0.291,2.322,0.874,3.361s1.37,1.841,2.361,2.406
		c0.991,0.565,2.08,0.848,3.266,0.848s2.274-0.282,3.266-0.848c0.991-0.565,1.778-1.367,2.361-2.406s0.874-2.159,0.874-3.361
		c0-1.863-0.641-3.452-1.924-4.767C75.896,87.67,74.37,87.013,72.602,87.013z"/>
	<path fill="#3B4B21" d="M92.073,78.931v2.094c-0.784-0.336-1.457-0.505-2.017-0.505c-0.417,0-0.764,0.085-1.039,0.253
		c-0.275,0.168-0.449,0.361-0.52,0.58c-0.071,0.219-0.107,0.802-0.107,1.749l-0.002,2.246h3.47v1.849h-3.471l-0.012,14.773h-2.139
		V87.197h-2.185v-1.849h2.185v-2.597c0-1.192,0.109-2.042,0.329-2.552c0.219-0.509,0.59-0.919,1.115-1.229
		c0.524-0.311,1.158-0.467,1.902-0.467C90.275,78.503,91.106,78.647,92.073,78.931z"/>
	<path fill="#3B4B21" d="M101.836,81.697v-2.2h12.313v2.2h-5.011v20.273h-2.292V81.697H101.836z"/>
	<path fill="#3B4B21" d="M117.037,78.931h2.139v9.396c0.866-1.141,1.818-1.994,2.857-2.56c1.039-0.565,2.165-0.848,3.376-0.848
		c1.243,0,2.345,0.315,3.308,0.947s1.673,1.479,2.131,2.544c0.458,1.064,0.688,2.732,0.688,5.003v8.556h-2.139v-7.929
		c0-1.915-0.076-3.193-0.229-3.835c-0.265-1.1-0.746-1.928-1.444-2.482c-0.698-0.556-1.612-0.833-2.742-0.833
		c-1.293,0-2.452,0.428-3.476,1.283s-1.699,1.915-2.024,3.178c-0.204,0.815-0.306,2.322-0.306,4.522v6.096h-2.139V78.931z"/>
	<path fill="#3B4B21" d="M136.859,78.503c0.487,0,0.903,0.174,1.248,0.52c0.345,0.347,0.517,0.765,0.517,1.253
		c0,0.479-0.172,0.892-0.517,1.237c-0.345,0.347-0.761,0.52-1.248,0.52c-0.477,0-0.887-0.173-1.232-0.52
		c-0.345-0.346-0.517-0.758-0.517-1.237c0-0.488,0.172-0.906,0.517-1.253C135.972,78.677,136.383,78.503,136.859,78.503z
		 M135.798,85.348h2.139v16.622h-2.139V85.348z"/>
	<path fill="#3B4B21" d="M142.382,85.348h2.139v2.979c0.856-1.141,1.803-1.994,2.842-2.56s2.169-0.848,3.392-0.848
		c1.243,0,2.345,0.315,3.308,0.947s1.673,1.481,2.131,2.552c0.458,1.069,0.688,2.734,0.688,4.995v8.556h-2.139v-7.929
		c0-1.915-0.079-3.193-0.238-3.835c-0.248-1.1-0.723-1.928-1.426-2.482c-0.703-0.556-1.62-0.833-2.75-0.833
		c-1.294,0-2.453,0.428-3.477,1.283c-1.023,0.855-1.699,1.915-2.024,3.178c-0.204,0.825-0.306,2.333-0.306,4.522v6.096h-2.139
		V85.348z"/>
	<path fill="#3B4B21" d="M175.794,85.348h2.139v13.246c0,2.332-0.203,4.038-0.611,5.117c-0.559,1.528-1.533,2.704-2.918,3.529
		s-3.051,1.237-4.994,1.237c-1.428,0-2.707-0.201-3.844-0.604c-1.135-0.404-2.061-0.945-2.771-1.624
		c-0.714-0.68-1.371-1.673-1.972-2.98h2.321c0.633,1.1,1.449,1.914,2.447,2.444c1,0.529,2.24,0.794,3.719,0.794
		c1.457,0,2.689-0.271,3.693-0.814s1.721-1.226,2.148-2.048c0.43-0.822,0.643-2.149,0.643-3.981v-0.855
		c-0.805,1.019-1.789,1.8-2.951,2.345s-2.396,0.817-3.701,0.817c-1.529,0-2.967-0.379-4.313-1.138s-2.387-1.78-3.12-3.063
		c-0.734-1.283-1.101-2.694-1.101-4.232c0-1.537,0.382-2.971,1.147-4.3c0.765-1.33,1.822-2.381,3.173-3.155
		c1.352-0.773,2.775-1.161,4.273-1.161c1.244,0,2.404,0.258,3.48,0.771c1.074,0.515,2.113,1.362,3.111,2.544V85.348z
		 M169.485,86.983c-1.213,0-2.338,0.293-3.377,0.879c-1.039,0.585-1.854,1.396-2.445,2.429c-0.59,1.034-0.885,2.151-0.885,3.354
		c0,1.823,0.611,3.33,1.832,4.522c1.223,1.191,2.807,1.787,4.752,1.787c1.965,0,3.547-0.591,4.744-1.772
		c1.195-1.182,1.795-2.734,1.795-4.659c0-1.253-0.275-2.371-0.824-3.354c-0.551-0.983-1.33-1.76-2.338-2.33
		C171.73,87.268,170.646,86.983,169.485,86.983z"/>
	<path fill="#3B4B21" d="M190.873,87.167l-1.375,1.421c-1.144-1.11-2.262-1.666-3.354-1.666c-0.694,0-1.289,0.229-1.784,0.688
		c-0.496,0.459-0.743,0.993-0.743,1.604c0,0.54,0.204,1.055,0.612,1.543c0.408,0.499,1.266,1.085,2.572,1.757
		c1.592,0.825,2.674,1.62,3.245,2.384c0.562,0.773,0.843,1.645,0.843,2.612c0,1.365-0.48,2.521-1.438,3.468
		c-0.959,0.947-2.158,1.421-3.596,1.421c-0.959,0-1.875-0.209-2.747-0.626c-0.872-0.418-1.594-0.993-2.165-1.727l1.345-1.528
		c1.092,1.232,2.251,1.849,3.476,1.849c0.857,0,1.588-0.274,2.19-0.824c0.602-0.551,0.903-1.197,0.903-1.94
		c0-0.611-0.199-1.156-0.597-1.635c-0.398-0.469-1.297-1.06-2.695-1.772c-1.5-0.773-2.521-1.538-3.062-2.292
		c-0.541-0.753-0.812-1.613-0.812-2.581c0-1.264,0.431-2.313,1.293-3.147s1.951-1.253,3.268-1.253
		C187.781,84.92,189.322,85.669,190.873,87.167z"/>
	<path fill="#3B4B21" d="M204.563,86.525h-2.154c0.061-2.216,0.802-4.035,2.223-5.459c1.421-1.423,3.175-2.135,5.264-2.135
		c2.067,0,3.74,0.668,5.019,2.003c1.277,1.335,1.917,2.909,1.917,4.723c0,1.273-0.305,2.469-0.914,3.584
		c-0.609,1.116-1.793,2.627-3.55,4.532l-5.599,6.028h10.368v2.169h-15.263l8.586-9.279c1.742-1.865,2.875-3.249,3.399-4.151
		c0.524-0.901,0.787-1.853,0.787-2.852c0-1.264-0.472-2.352-1.413-3.265c-0.942-0.912-2.096-1.368-3.461-1.368
		c-1.436,0-2.63,0.479-3.582,1.437C205.236,83.449,204.694,84.793,204.563,86.525z"/>
	<path fill="#3B4B21" d="M219.275,90.741c0-2.963,0.318-5.255,0.955-6.874c0.636-1.62,1.535-2.847,2.696-3.683
		c1.161-0.835,2.46-1.253,3.896-1.253c1.456,0,2.775,0.421,3.957,1.261c1.182,0.841,2.116,2.101,2.804,3.781
		s1.031,3.937,1.031,6.768c0,2.822-0.339,5.067-1.017,6.738c-0.677,1.67-1.611,2.931-2.803,3.781
		c-1.192,0.85-2.517,1.275-3.973,1.275c-1.436,0-2.729-0.413-3.881-1.237c-1.15-0.825-2.05-2.055-2.696-3.689
		S219.275,93.685,219.275,90.741z M221.398,90.78c0,2.538,0.227,4.457,0.681,5.756c0.453,1.3,1.122,2.286,2.009,2.959
		c0.886,0.673,1.823,1.009,2.811,1.009c0.998,0,1.931-0.328,2.796-0.986c0.866-0.657,1.522-1.644,1.971-2.958
		c0.561-1.601,0.841-3.527,0.841-5.779c0-2.263-0.25-4.116-0.749-5.558c-0.499-1.442-1.189-2.498-2.07-3.165
		c-0.881-0.668-1.81-1.002-2.788-1.002c-0.998,0-1.935,0.334-2.811,1.002c-0.876,0.667-1.543,1.651-2.002,2.95
		C221.627,86.307,221.398,88.231,221.398,90.78z"/>
	<path fill="#3B4B21" d="M241.411,79.497h4.415v22.474h-2.23V81.697h-3.529L241.411,79.497z"/>
	<path fill="#3B4B21" d="M266.286,78.931h0.455v15.675h2.72v2.14h-2.72v5.225h-2.23v-5.225h-10.755L266.286,78.931z M264.511,94.606
		v-9.438l-6.658,9.438H264.511z"/>
</g>
<polygon fill="#59623B" points="0,45.72 17.647,40.322 33.67,19.952 0,12.422 "/>
<polygon fill="#ABD269" points="0,45.72 17.647,40.322 42.692,45.534 0,64.733 "/>
<polygon fill="#3B4B21" points="0,0.821 17.199,0.821 33.67,19.952 0,12.422 "/>
<polygon fill="#849C57" points="33.67,19.952 42.692,45.534 63.912,25.857 "/>
<polygon fill="#8BA854" points="17.199,0.821 63.912,0.821 63.912,25.857 33.67,19.952 "/>
<polygon fill="#C0DC94" points="33.67,19.952 17.647,40.322 42.692,45.534 "/>
<g>
	<path fill="#3B4B21" d="M63.884,0.782h12.083v63.937H63.884V0.782z"/>
	<path fill="#3B4B21" d="M81.678,17.43h11.866v4.846c2.691-2.268,5.128-3.846,7.313-4.732c2.184-0.887,4.42-1.33,6.706-1.33
		c4.688,0,8.666,1.637,11.936,4.911c2.749,2.781,4.123,6.896,4.123,12.344v31.251h-11.735V44.01c0-5.644-0.253-9.391-0.759-11.243
		c-0.506-1.853-1.388-3.264-2.646-4.233s-2.811-1.455-4.661-1.455c-2.399,0-4.459,0.804-6.179,2.41
		c-1.72,1.606-2.913,3.828-3.578,6.664c-0.347,1.477-0.521,4.675-0.521,9.594v18.973H81.678V17.43z"/>
	<path fill="#3B4B21" d="M129.855,0h11.866v17.43h7.041v10.214h-7.041v37.076h-11.866V27.644h-6.085V17.43h6.085V0z"/>
	<path fill="#3B4B21" d="M195.807,44.508h-38.118c0.55,3.361,2.021,6.035,4.412,8.02c2.391,1.984,5.439,2.977,9.149,2.977
		c4.433,0,8.243-1.55,11.431-4.651l9.997,4.695c-2.492,3.535-5.477,6.15-8.954,7.846c-3.477,1.694-7.606,2.542-12.387,2.542
		c-7.419,0-13.46-2.34-18.125-7.02c-4.666-4.679-6.998-10.541-6.998-17.582c0-7.215,2.326-13.206,6.976-17.973
		c4.651-4.766,10.482-7.149,17.495-7.149c7.446,0,13.502,2.384,18.168,7.149c4.665,4.767,6.998,11.062,6.998,18.886L195.807,44.508z
		 M183.941,35.163c-0.784-2.637-2.33-4.781-4.638-6.433c-2.308-1.652-4.984-2.478-8.032-2.478c-3.309,0-6.212,0.928-8.707,2.781
		c-1.568,1.159-3.019,3.202-4.354,6.129H183.941z"/>
	<path fill="#3B4B21" d="M195.955,17.43h10.17v5.954c1.102-2.347,2.564-4.129,4.391-5.346c1.825-1.217,3.824-1.825,5.998-1.825
		c1.535,0,3.144,0.405,4.824,1.217l-3.694,10.214c-1.391-0.695-2.536-1.043-3.434-1.043c-1.826,0-3.369,1.13-4.629,3.39
		c-1.261,2.261-1.891,6.694-1.891,13.301l0.043,2.304v19.125h-11.778V17.43z"/>
	<path fill="#3B4B21" d="M220.529,17.43h11.866v4.846c2.69-2.268,5.128-3.846,7.313-4.732s4.42-1.33,6.706-1.33
		c4.688,0,8.665,1.637,11.936,4.911c2.748,2.781,4.123,6.896,4.123,12.344v31.251h-11.735V44.01c0-5.644-0.254-9.391-0.76-11.243
		s-1.387-3.264-2.645-4.233s-2.812-1.455-4.661-1.455c-2.399,0-4.459,0.804-6.179,2.41c-1.721,1.606-2.913,3.828-3.578,6.664
		c-0.347,1.477-0.52,4.675-0.52,9.594v18.973h-11.866V17.43z"/>
	<path fill="#3B4B21" d="M314.648,44.508h-38.118c0.55,3.361,2.021,6.035,4.412,8.02c2.391,1.984,5.439,2.977,9.149,2.977
		c4.433,0,8.243-1.55,11.431-4.651l9.997,4.695c-2.492,3.535-5.477,6.15-8.954,7.846c-3.477,1.694-7.606,2.542-12.387,2.542
		c-7.419,0-13.46-2.34-18.125-7.02c-4.666-4.679-6.998-10.541-6.998-17.582c0-7.215,2.325-13.206,6.977-17.973
		c4.65-4.766,10.481-7.149,17.494-7.149c7.446,0,13.502,2.384,18.168,7.149c4.665,4.767,6.998,11.062,6.998,18.886L314.648,44.508z
		 M302.782,35.163c-0.784-2.637-2.33-4.781-4.638-6.433c-2.308-1.652-4.984-2.478-8.032-2.478c-3.309,0-6.212,0.928-8.707,2.781
		c-1.567,1.159-3.02,3.202-4.354,6.129H302.782z"/>
	<path fill="#3B4B21" d="M319.012,0h11.865v17.43h7.042v10.214h-7.042v37.076h-11.865V27.644h-6.085V17.43h6.085V0z"/>
</g>
<g>
	<circle fill="#FFFFFF" cx="33.67" cy="19.952" r="10.297"/>
	<circle fill="#FFFFFF" cx="17.647" cy="40.322" r="6.268"/>
	<circle fill="#FFFFFF" cx="42.692" cy="45.534" r="9.022"/>
</g>
</svg>
