<?xml version="1.0" encoding="utf-8"?>
<!-- Generator: Adobe Illustrator 17.1.0, SVG Export Plug-In . SVG Version: 6.00 Build 0)  -->
<!DOCTYPE svg PUBLIC "-//W3C//DTD SVG 1.1//EN" "http://www.w3.org/Graphics/SVG/1.1/DTD/svg11.dtd">
<svg version="1.1" id="Layer_1" xmlns="http://www.w3.org/2000/svg" xmlns:xlink="http://www.w3.org/1999/xlink" x="0px" y="0px"
	 viewBox="0 0 240.3 77.1" enable-background="new 0 0 240.3 77.1" xml:space="preserve">
<polygon fill="#99CA3C" points="0,46 8.4,46 8.4,62 21,46 45.4,46 45.4,0.6 0,0.6 "/>
<polygon fill="#ADD261" points="45.4,18.4 30.4,32.4 33.2,46 45.4,46 "/>
<g>
	<path fill="#3B4B21" d="M51.6,60.4c1.8,0,3.3,0.7,4.5,2c1.1,1.2,1.6,2.6,1.6,4.3c0,1.7-0.6,3.1-1.7,4.3c-1.2,1.2-2.6,1.9-4.4,1.9
		c-1.8,0-3.3-0.6-4.4-1.9c-1.1-1.2-1.7-2.7-1.7-4.3c0-1.6,0.5-3.1,1.6-4.3C48.3,61.1,49.8,60.4,51.6,60.4z M51.6,61.9
		c-1.3,0-2.4,0.5-3.3,1.4S47,65.3,47,66.7c0,0.9,0.2,1.7,0.6,2.4c0.4,0.7,1,1.3,1.7,1.7c0.7,0.4,1.5,0.6,2.3,0.6s1.6-0.2,2.3-0.6
		c0.7-0.4,1.3-1,1.7-1.7c0.4-0.7,0.6-1.5,0.6-2.4c0-1.3-0.5-2.5-1.4-3.4C54,62.3,52.9,61.9,51.6,61.9z"/>
	<path fill="#3B4B21" d="M65.5,56.1v1.5c-0.6-0.2-1-0.4-1.4-0.4c-0.3,0-0.5,0.1-0.7,0.2c-0.2,0.1-0.3,0.3-0.4,0.4
		c-0.1,0.2-0.1,0.6-0.1,1.2l0,1.6h2.5V62h-2.5l0,10.5h-1.5V62h-1.6v-1.3h1.6v-1.8c0-0.8,0.1-1.5,0.2-1.8c0.2-0.4,0.4-0.7,0.8-0.9
		s0.8-0.3,1.4-0.3C64.2,55.8,64.8,55.9,65.5,56.1z"/>
	<path fill="#3B4B21" d="M72.4,58.1v-1.6h8.8v1.6h-3.6v14.4H76V58.1H72.4z"/>
	<path fill="#3B4B21" d="M83.2,56.1h1.5v6.7c0.6-0.8,1.3-1.4,2-1.8c0.7-0.4,1.5-0.6,2.4-0.6c0.9,0,1.7,0.2,2.4,0.7
		c0.7,0.4,1.2,1.1,1.5,1.8c0.3,0.8,0.5,1.9,0.5,3.6v6.1H92v-5.6c0-1.4-0.1-2.3-0.2-2.7c-0.2-0.8-0.5-1.4-1-1.8
		c-0.5-0.4-1.1-0.6-2-0.6c-0.9,0-1.7,0.3-2.5,0.9c-0.7,0.6-1.2,1.4-1.4,2.3c-0.1,0.6-0.2,1.7-0.2,3.2v4.3h-1.5V56.1z"/>
	<path fill="#3B4B21" d="M97.3,55.8c0.3,0,0.6,0.1,0.9,0.4s0.4,0.5,0.4,0.9c0,0.3-0.1,0.6-0.4,0.9s-0.5,0.4-0.9,0.4
		c-0.3,0-0.6-0.1-0.9-0.4s-0.4-0.5-0.4-0.9c0-0.3,0.1-0.6,0.4-0.9S97,55.8,97.3,55.8z M96.6,60.7h1.5v11.8h-1.5V60.7z"/>
	<path fill="#3B4B21" d="M101.3,60.7h1.5v2.1c0.6-0.8,1.3-1.4,2-1.8c0.7-0.4,1.5-0.6,2.4-0.6c0.9,0,1.7,0.2,2.4,0.7
		c0.7,0.4,1.2,1.1,1.5,1.8c0.3,0.8,0.5,1.9,0.5,3.6v6.1H110v-5.6c0-1.4-0.1-2.3-0.2-2.7c-0.2-0.8-0.5-1.4-1-1.8
		c-0.5-0.4-1.2-0.6-2-0.6c-0.9,0-1.7,0.3-2.5,0.9c-0.7,0.6-1.2,1.4-1.4,2.3c-0.1,0.6-0.2,1.7-0.2,3.2v4.3h-1.5V60.7z"/>
	<path fill="#3B4B21" d="M125,60.7h1.5v9.4c0,1.7-0.1,2.9-0.4,3.6c-0.4,1.1-1.1,1.9-2.1,2.5c-1,0.6-2.2,0.9-3.6,0.9
		c-1,0-1.9-0.1-2.7-0.4c-0.8-0.3-1.5-0.7-2-1.2s-1-1.2-1.4-2.1h1.7c0.5,0.8,1,1.4,1.7,1.7c0.7,0.4,1.6,0.6,2.6,0.6
		c1,0,1.9-0.2,2.6-0.6c0.7-0.4,1.2-0.9,1.5-1.5c0.3-0.6,0.5-1.5,0.5-2.8v-0.6c-0.6,0.7-1.3,1.3-2.1,1.7c-0.8,0.4-1.7,0.6-2.6,0.6
		c-1.1,0-2.1-0.3-3.1-0.8c-1-0.5-1.7-1.3-2.2-2.2c-0.5-0.9-0.8-1.9-0.8-3c0-1.1,0.3-2.1,0.8-3.1c0.5-0.9,1.3-1.7,2.3-2.2
		c1-0.5,2-0.8,3-0.8c0.9,0,1.7,0.2,2.5,0.5c0.8,0.4,1.5,1,2.2,1.8V60.7z M120.5,61.9c-0.9,0-1.7,0.2-2.4,0.6c-0.7,0.4-1.3,1-1.7,1.7
		c-0.4,0.7-0.6,1.5-0.6,2.4c0,1.3,0.4,2.4,1.3,3.2s2,1.3,3.4,1.3c1.4,0,2.5-0.4,3.4-1.3c0.9-0.8,1.3-1.9,1.3-3.3
		c0-0.9-0.2-1.7-0.6-2.4c-0.4-0.7-0.9-1.3-1.7-1.7C122.1,62.1,121.3,61.9,120.5,61.9z"/>
	<path fill="#3B4B21" d="M135.7,62l-1,1c-0.8-0.8-1.6-1.2-2.4-1.2c-0.5,0-0.9,0.2-1.3,0.5c-0.4,0.3-0.5,0.7-0.5,1.1
		c0,0.4,0.1,0.8,0.4,1.1c0.3,0.4,0.9,0.8,1.8,1.2c1.1,0.6,1.9,1.2,2.3,1.7c0.4,0.6,0.6,1.2,0.6,1.9c0,1-0.3,1.8-1,2.5
		c-0.7,0.7-1.5,1-2.6,1c-0.7,0-1.3-0.1-2-0.4s-1.1-0.7-1.5-1.2l1-1.1c0.8,0.9,1.6,1.3,2.5,1.3c0.6,0,1.1-0.2,1.6-0.6
		c0.4-0.4,0.6-0.9,0.6-1.4c0-0.4-0.1-0.8-0.4-1.2c-0.3-0.3-0.9-0.8-1.9-1.3c-1.1-0.6-1.8-1.1-2.2-1.6c-0.4-0.5-0.6-1.1-0.6-1.8
		c0-0.9,0.3-1.6,0.9-2.2s1.4-0.9,2.3-0.9C133.5,60.4,134.6,60.9,135.7,62z"/>
</g>
<polygon fill="#59623B" points="0,32.5 12.5,28.7 23.9,14.2 0,8.8 "/>
<polygon fill="#ABD269" points="0,32.5 12.5,28.7 30.4,32.4 0,46 "/>
<polygon fill="#3B4B21" points="0,0.6 12.2,0.6 23.9,14.2 0,8.8 "/>
<polygon fill="#849C57" points="23.9,14.2 30.4,32.4 45.4,18.4 "/>
<polygon fill="#8BA854" points="12.2,0.6 45.4,0.6 45.4,18.4 23.9,14.2 "/>
<polygon fill="#C0DC94" points="23.9,14.2 12.5,28.7 30.4,32.4 "/>
<g>
	<path fill="#3B4B21" d="M45.4,0.6H54V46h-8.6V0.6z"/>
	<path fill="#3B4B21" d="M58.1,12.4h8.4v3.4c1.9-1.6,3.6-2.7,5.2-3.4c1.6-0.6,3.1-0.9,4.8-0.9c3.3,0,6.2,1.2,8.5,3.5
		c2,2,2.9,4.9,2.9,8.8V46h-8.3V31.3c0-4-0.2-6.7-0.5-8c-0.4-1.3-1-2.3-1.9-3c-0.9-0.7-2-1-3.3-1c-1.7,0-3.2,0.6-4.4,1.7
		c-1.2,1.1-2.1,2.7-2.5,4.7c-0.2,1-0.4,3.3-0.4,6.8V46h-8.4V12.4z"/>
	<path fill="#3B4B21" d="M92.3,0h8.4v12.4h5v7.3h-5V46h-8.4V19.7H88v-7.3h4.3V0z"/>
	<path fill="#3B4B21" d="M139.2,31.7h-27.1c0.4,2.4,1.4,4.3,3.1,5.7c1.7,1.4,3.9,2.1,6.5,2.1c3.2,0,5.9-1.1,8.1-3.3l7.1,3.3
		c-1.8,2.5-3.9,4.4-6.4,5.6s-5.4,1.8-8.8,1.8c-5.3,0-9.6-1.7-12.9-5c-3.3-3.3-5-7.5-5-12.5c0-5.1,1.7-9.4,5-12.8
		c3.3-3.4,7.5-5.1,12.4-5.1c5.3,0,9.6,1.7,12.9,5.1c3.3,3.4,5,7.9,5,13.4L139.2,31.7z M130.8,25c-0.6-1.9-1.7-3.4-3.3-4.6
		c-1.6-1.2-3.5-1.8-5.7-1.8c-2.4,0-4.4,0.7-6.2,2c-1.1,0.8-2.1,2.3-3.1,4.4H130.8z"/>
	<path fill="#3B4B21" d="M139.3,12.4h7.2v4.2c0.8-1.7,1.8-2.9,3.1-3.8c1.3-0.9,2.7-1.3,4.3-1.3c1.1,0,2.2,0.3,3.4,0.9l-2.6,7.3
		c-1-0.5-1.8-0.7-2.4-0.7c-1.3,0-2.4,0.8-3.3,2.4c-0.9,1.6-1.3,4.8-1.3,9.5l0,1.6V46h-8.4V12.4z"/>
	<path fill="#3B4B21" d="M156.8,12.4h8.4v3.4c1.9-1.6,3.6-2.7,5.2-3.4c1.6-0.6,3.1-0.9,4.8-0.9c3.3,0,6.2,1.2,8.5,3.5
		c2,2,2.9,4.9,2.9,8.8V46h-8.3V31.3c0-4-0.2-6.7-0.5-8c-0.4-1.3-1-2.3-1.9-3c-0.9-0.7-2-1-3.3-1c-1.7,0-3.2,0.6-4.4,1.7
		c-1.2,1.1-2.1,2.7-2.5,4.7c-0.2,1-0.4,3.3-0.4,6.8V46h-8.4V12.4z"/>
	<path fill="#3B4B21" d="M223.8,31.7h-27.1c0.4,2.4,1.4,4.3,3.1,5.7c1.7,1.4,3.9,2.1,6.5,2.1c3.2,0,5.9-1.1,8.1-3.3l7.1,3.3
		c-1.8,2.5-3.9,4.4-6.4,5.6s-5.4,1.8-8.8,1.8c-5.3,0-9.6-1.7-12.9-5c-3.3-3.3-5-7.5-5-12.5c0-5.1,1.7-9.4,5-12.8
		c3.3-3.4,7.5-5.1,12.4-5.1c5.3,0,9.6,1.7,12.9,5.1c3.3,3.4,5,7.9,5,13.4L223.8,31.7z M215.3,25c-0.6-1.9-1.7-3.4-3.3-4.6
		c-1.6-1.2-3.5-1.8-5.7-1.8c-2.4,0-4.4,0.7-6.2,2c-1.1,0.8-2.1,2.3-3.1,4.4H215.3z"/>
	<path fill="#3B4B21" d="M226.9,0h8.4v12.4h5v7.3h-5V46h-8.4V19.7h-4.3v-7.3h4.3V0z"/>
</g>
<g>
	<circle fill="#FFFFFF" cx="23.9" cy="14.2" r="7.3"/>
	<circle fill="#FFFFFF" cx="12.5" cy="28.7" r="4.5"/>
	<circle fill="#FFFFFF" cx="30.4" cy="32.4" r="6.4"/>
</g>
</svg>
