<?xml version="1.0" encoding="utf-8"?>
<!-- Generator: Adobe Illustrator 17.0.1, SVG Export Plug-In . SVG Version: 6.00 Build 0)  -->
<!DOCTYPE svg PUBLIC "-//W3C//DTD SVG 1.1//EN" "http://www.w3.org/Graphics/SVG/1.1/DTD/svg11.dtd">
<svg version="1.1" id="Layer_1" xmlns="http://www.w3.org/2000/svg" xmlns:xlink="http://www.w3.org/1999/xlink" x="0px" y="0px"
	 width="341.219px" height="104.581px" viewBox="0 0 341.219 104.581" enable-background="new 0 0 341.219 104.581"
	 xml:space="preserve">
<polygon fill="#F8A04A" points="0,66.777 11.863,66.777 11.863,89.29 29.514,66.778 63.912,66.777 76.569,2.864 0,2.864 "/>
<polygon fill="#FCE1BC" points="68.131,27.9 42.098,47.279 63.912,66.777 "/>
<g>
	<path fill="#F89C1E" d="M65.014,80.548c0.487,0,0.903,0.174,1.248,0.52c0.345,0.347,0.517,0.765,0.517,1.253
		c0,0.479-0.172,0.892-0.517,1.237c-0.345,0.347-0.761,0.52-1.248,0.52c-0.477,0-0.887-0.173-1.232-0.52
		c-0.345-0.346-0.517-0.758-0.517-1.237c0-0.488,0.172-0.906,0.517-1.253C64.127,80.722,64.538,80.548,65.014,80.548z
		 M63.953,87.393h2.139v16.622h-2.139V87.393z"/>
	<path fill="#F89C1E" d="M72.401,81.221h2.139v6.172h3.392v1.849H74.54v14.773h-2.139V89.242h-2.918v-1.849h2.918V81.221z"/>
	<path fill="#F89C1E" d="M89.13,104.015l3.218-22.474h0.365l9.136,18.44l9.048-18.44h0.36l3.234,22.474h-2.202l-2.221-16.072
		l-7.946,16.072h-0.574l-8.041-16.194l-2.208,16.194H89.13z"/>
	<path fill="#F89C1E" d="M126.423,86.965c2.561,0,4.683,0.927,6.367,2.78c1.53,1.691,2.295,3.692,2.295,6.004
		c0,2.322-0.809,4.353-2.426,6.089s-3.696,2.604-6.236,2.604c-2.551,0-4.635-0.868-6.252-2.604
		c-1.617-1.736-2.426-3.767-2.426-6.089c0-2.301,0.765-4.298,2.295-5.988C121.724,87.897,123.852,86.965,126.423,86.965z
		 M126.415,89.058c-1.778,0-3.307,0.657-4.584,1.971c-1.277,1.314-1.916,2.903-1.916,4.767c0,1.202,0.291,2.322,0.874,3.361
		s1.37,1.841,2.361,2.406c0.991,0.565,2.08,0.848,3.266,0.848s2.274-0.282,3.266-0.848c0.991-0.565,1.778-1.367,2.361-2.406
		s0.874-2.159,0.874-3.361c0-1.863-0.641-3.452-1.924-4.767C129.709,89.715,128.183,89.058,126.415,89.058z"/>
	<path fill="#F89C1E" d="M139.18,104.015V80.976h2.139v9.274c0.895-1.101,1.897-1.923,3.006-2.468
		c1.109-0.545,2.325-0.817,3.648-0.817c2.351,0,4.357,0.854,6.021,2.559c1.664,1.706,2.495,3.776,2.495,6.211
		c0,2.403-0.839,4.456-2.518,6.156c-1.679,1.701-3.699,2.552-6.059,2.552c-1.354,0-2.579-0.29-3.678-0.871
		c-1.099-0.58-2.07-1.451-2.915-2.612v3.056H139.18z M147.735,102.38c1.189,0,2.287-0.293,3.292-0.878
		c1.006-0.586,1.806-1.408,2.4-2.468s0.892-2.18,0.892-3.361c0-1.181-0.3-2.307-0.899-3.376c-0.6-1.069-1.405-1.902-2.416-2.498
		s-2.091-0.894-3.239-0.894c-1.169,0-2.279,0.298-3.331,0.894s-1.86,1.397-2.423,2.406c-0.564,1.009-0.846,2.145-0.846,3.407
		c0,1.925,0.632,3.534,1.897,4.827C144.328,101.734,145.885,102.38,147.735,102.38z"/>
	<path fill="#F89C1E" d="M161.126,80.548c0.487,0,0.903,0.174,1.247,0.52c0.346,0.347,0.518,0.765,0.518,1.253
		c0,0.479-0.172,0.892-0.518,1.237c-0.344,0.347-0.76,0.52-1.247,0.52c-0.477,0-0.887-0.173-1.232-0.52
		c-0.345-0.346-0.517-0.758-0.517-1.237c0-0.488,0.172-0.906,0.517-1.253C160.238,80.722,160.649,80.548,161.126,80.548z
		 M160.064,87.393h2.138v16.622h-2.138V87.393z"/>
	<path fill="#F89C1E" d="M166.327,80.976h2.139v23.039h-2.139V80.976z"/>
	<path fill="#F89C1E" d="M186.907,98.5l1.803,0.947c-0.592,1.161-1.274,2.099-2.05,2.812c-0.774,0.713-1.646,1.255-2.614,1.627
		c-0.969,0.372-2.064,0.558-3.288,0.558c-2.712,0-4.832-0.889-6.361-2.666s-2.294-3.786-2.294-6.027
		c0-2.107,0.647-3.987,1.942-5.637c1.641-2.099,3.838-3.147,6.591-3.147c2.834,0,5.097,1.075,6.789,3.224
		c1.203,1.518,1.814,3.412,1.835,5.684h-14.957c0.041,1.931,0.658,3.513,1.851,4.748c1.193,1.234,2.667,1.852,4.421,1.852
		c0.847,0,1.67-0.147,2.471-0.441c0.8-0.294,1.48-0.685,2.042-1.172C185.648,100.372,186.254,99.585,186.907,98.5z M186.907,94.024
		c-0.286-1.141-0.701-2.053-1.247-2.735c-0.546-0.682-1.268-1.231-2.164-1.649c-0.898-0.418-1.841-0.627-2.83-0.627
		c-1.632,0-3.034,0.525-4.207,1.574c-0.856,0.764-1.504,1.909-1.942,3.438H186.907z"/>
	<path fill="#F89C1E" d="M203.147,88.57h-2.154c0.061-2.216,0.802-4.035,2.223-5.459c1.421-1.423,3.175-2.135,5.264-2.135
		c2.067,0,3.74,0.668,5.019,2.003c1.277,1.335,1.917,2.909,1.917,4.723c0,1.273-0.305,2.469-0.914,3.584
		c-0.609,1.116-1.793,2.627-3.55,4.532l-5.599,6.028h10.368v2.169h-15.263l8.586-9.279c1.742-1.865,2.875-3.249,3.399-4.151
		c0.524-0.901,0.787-1.853,0.787-2.852c0-1.264-0.472-2.352-1.413-3.265c-0.942-0.912-2.096-1.368-3.461-1.368
		c-1.436,0-2.63,0.479-3.582,1.437C203.82,85.494,203.278,86.838,203.147,88.57z"/>
	<path fill="#F89C1E" d="M217.859,92.786c0-2.963,0.318-5.255,0.955-6.874c0.636-1.62,1.535-2.847,2.696-3.683
		c1.161-0.835,2.46-1.253,3.896-1.253c1.456,0,2.775,0.421,3.957,1.261c1.182,0.841,2.116,2.101,2.804,3.781
		s1.031,3.937,1.031,6.768c0,2.822-0.339,5.067-1.017,6.738c-0.677,1.67-1.611,2.931-2.803,3.781
		c-1.192,0.85-2.517,1.275-3.973,1.275c-1.436,0-2.729-0.413-3.881-1.237c-1.15-0.825-2.05-2.055-2.696-3.689
		S217.859,95.73,217.859,92.786z M219.983,92.825c0,2.538,0.227,4.457,0.681,5.756c0.453,1.3,1.122,2.286,2.009,2.959
		c0.886,0.673,1.823,1.009,2.811,1.009c0.998,0,1.931-0.328,2.796-0.986c0.866-0.657,1.522-1.644,1.971-2.958
		c0.561-1.601,0.841-3.527,0.841-5.779c0-2.263-0.25-4.116-0.749-5.558c-0.499-1.442-1.189-2.498-2.07-3.165
		c-0.881-0.668-1.81-1.002-2.788-1.002c-0.998,0-1.935,0.334-2.811,1.002c-0.876,0.667-1.543,1.651-2.002,2.95
		C220.212,88.352,219.983,90.276,219.983,92.825z"/>
	<path fill="#F89C1E" d="M239.996,81.542h4.415v22.474h-2.23V83.742h-3.529L239.996,81.542z"/>
	<path fill="#F89C1E" d="M264.871,80.976h0.455v15.675h2.72v2.14h-2.72v5.225h-2.23v-5.225h-10.755L264.871,80.976z M263.096,96.651
		v-9.438l-6.658,9.438H263.096z"/>
</g>
<polygon fill="#FAAD4C" points="0,33.471 19.637,39.912 21.115,56.997 0,66.777 "/>
<polygon fill="#F89C1E" points="0,2.864 36.628,2.864 22.819,17.397 0,24.489 "/>
<polygon fill="#FDD39F" points="42.098,17.397 42.098,47.279 68.131,27.9 68.122,21.195 "/>
<polygon fill="#FCC078" points="36.628,2.864 76.569,2.864 68.122,21.195 42.098,17.397 22.819,17.397 "/>
<g>
	<path fill="#F89C1E" d="M70.075,2.825h11.857L96.754,47.42L111.71,2.825h11.85l10.726,63.937h-11.769l-6.856-40.379l-13.583,40.379
		H91.353L77.89,26.383l-7.02,40.379H59.005L70.075,2.825z"/>
	<path fill="#F89C1E" d="M170.9,19.473h11.865v47.29H170.9v-4.998c-2.316,2.202-4.639,3.788-6.967,4.759
		c-2.331,0.971-4.856,1.456-7.577,1.456c-6.107,0-11.389-2.368-15.846-7.106c-4.457-4.737-6.686-10.627-6.686-17.668
		c0-7.302,2.156-13.285,6.469-17.951c4.313-4.665,9.551-6.997,15.716-6.997c2.836,0,5.499,0.536,7.988,1.607
		c2.488,1.072,4.789,2.681,6.902,4.825V19.473z M158.426,29.208c-3.668,0-6.714,1.298-9.14,3.891
		c-2.426,2.594-3.639,5.919-3.639,9.975c0,4.086,1.234,7.447,3.704,10.084c2.469,2.637,5.508,3.956,9.119,3.956
		c3.726,0,6.815-1.296,9.271-3.89c2.453-2.593,3.682-5.991,3.682-10.192c0-4.114-1.229-7.447-3.682-9.997
		C165.284,30.483,162.181,29.208,158.426,29.208z"/>
	<path fill="#F89C1E" d="M188.172,1.218h11.866v37.751l17.473-19.496h14.901l-20.371,22.664l22.807,24.625h-14.729l-20.08-21.795
		v21.795h-11.866V1.218z"/>
	<path fill="#F89C1E" d="M237.674,0c2.08,0,3.864,0.754,5.353,2.261c1.487,1.507,2.232,3.332,2.232,5.477
		c0,2.115-0.737,3.919-2.211,5.411s-3.236,2.238-5.287,2.238c-2.109,0-3.908-0.761-5.396-2.282
		c-1.487-1.521-2.231-3.368-2.231-5.541c0-2.087,0.736-3.868,2.21-5.347C233.816,0.739,235.593,0,237.674,0z M231.741,19.473h11.865
		v47.29h-11.865V19.473z"/>
	<path fill="#F89C1E" d="M247.71,19.473h11.866v4.846c2.69-2.268,5.128-3.846,7.313-4.732s4.42-1.33,6.706-1.33
		c4.688,0,8.665,1.637,11.936,4.911c2.748,2.781,4.123,6.896,4.123,12.344v31.251h-11.735V46.053c0-5.644-0.254-9.391-0.76-11.243
		s-1.387-3.264-2.645-4.233s-2.812-1.455-4.661-1.455c-2.399,0-4.459,0.804-6.179,2.41c-1.721,1.606-2.913,3.828-3.578,6.664
		c-0.347,1.477-0.52,4.675-0.52,9.594v18.973H247.71V19.473z"/>
	<path fill="#F89C1E" d="M329.397,19.473h11.822v40.509c0,7.997-1.608,13.879-4.824,17.646c-4.318,5.1-10.823,7.649-19.516,7.649
		c-4.637,0-8.534-0.58-11.692-1.738c-3.158-1.159-5.824-2.862-7.997-5.107c-2.173-2.246-3.781-4.977-4.824-8.192h13.082
		c1.159,1.332,2.651,2.339,4.478,3.021c1.825,0.681,3.983,1.021,6.476,1.021c3.188,0,5.752-0.493,7.693-1.478
		c1.941-0.986,3.311-2.261,4.107-3.825s1.195-4.26,1.195-8.085c-2.086,2.087-4.274,3.586-6.563,4.499s-4.883,1.369-7.779,1.369
		c-6.346,0-11.707-2.289-16.082-6.867c-4.376-4.578-6.563-10.374-6.563-17.386c0-7.505,2.318-13.532,6.954-18.081
		c4.201-4.114,9.215-6.172,15.039-6.172c2.724,0,5.295,0.499,7.715,1.499c2.419,1,4.847,2.645,7.28,4.934V19.473z M317.096,29.339
		c-3.737,0-6.823,1.254-9.258,3.76c-2.434,2.507-3.65,5.658-3.65,9.453c0,3.941,1.245,7.172,3.737,9.692
		c2.492,2.522,5.621,3.783,9.389,3.783c3.68,0,6.715-1.231,9.105-3.696c2.391-2.462,3.586-5.693,3.586-9.692
		c0-3.94-1.202-7.143-3.607-9.605S320.892,29.339,317.096,29.339z"/>
</g>
<polygon fill="#F9BC68" points="0,33.471 19.637,39.912 22.819,17.397 0,24.489 "/>
<path fill="#FFFFFF" d="M41.556,12.943H23.361c-2.057,0-3.725,1.589-3.725,3.55v37.68c0,1.961,1.668,3.55,3.725,3.55h18.194
	c2.057,0,3.725-1.589,3.725-3.55v-37.68C45.281,14.532,43.613,12.943,41.556,12.943z M32.459,55.299c-1.574,0-2.85-1.276-2.85-2.85
	s1.276-2.85,2.85-2.85c1.574,0,2.85,1.276,2.85,2.85S34.033,55.299,32.459,55.299z M42.098,47.279H22.819V17.397h19.279V47.279z"/>
</svg>
